<?xml version="1.0" encoding="UTF-8"?>
<svg id="Layer_2" data-name="Layer 2" xmlns="http://www.w3.org/2000/svg" viewBox="0 0 421.46 193.25">
  <defs>
    <style>
      .cls-1 {
        fill: #d0ff35;
      }
    </style>
  </defs>
  <g id="Layer_1-2" data-name="Layer 1">
    <g>
      <g>
        <g>
          <path class="cls-1" d="M241.59,150.33c-10.74,0-19-2.81-24.54-8.36-5.54-5.54-8.36-13.8-8.36-24.54v-16.22c0-10.78,2.79-19.05,8.28-24.57,5.41-5.44,13.5-8.19,24.05-8.19h12.03c8.01,0,14.28,1.39,19.17,4.25,5.33,3.12,8.77,7.92,10.24,14.28,1.12,5.22-1.1,8.32-2.52,9.71-1.48,1.45-4.17,3.18-8.57,3.18s-6.75-1.75-8.08-3.22c-1.12-1.25-2.1-2.8-2.97-4.73-.1-.04-.26-.1-.49-.16-.96-.25-2.92-.55-6.78-.55h-12.2c-5.88,0-7.49,1.28-7.76,1.54-.28,.27-1.67,1.96-1.67,8.48v16.22c0,6.46,1.41,8.18,1.69,8.46,.29,.28,2.04,1.7,8.47,1.7h11.46c3.86,0,5.82-.3,6.78-.55,.21-.06,.37-.11,.47-.15,.9-2.08,1.94-3.71,3.17-4.97,1.93-1.98,4.63-2.99,8.03-2.99,4.28,0,6.94,1.73,8.42,3.17,1.43,1.4,3.64,4.5,2.55,9.63-1.49,6.4-4.93,11.18-10.24,14.31-4.89,2.89-11.17,4.29-19.19,4.29h-11.46Z"/>
          <path d="M241.02,73.95c.19,0,.38,0,.57,0h11.46c6.94,0,12.41,1.17,16.39,3.5,3.98,2.33,6.54,5.92,7.65,10.76,.42,1.96,.08,3.47-1.01,4.54-1.1,1.07-2.67,1.61-4.72,1.61-1.82,0-3.15-.46-3.98-1.4-.84-.93-1.61-2.24-2.31-3.91-.7-1.26-1.98-2.13-3.84-2.62-1.86-.49-4.59-.73-8.18-.73h-11.46c-.25,0-.49,0-.73,0-5.61,0-9.48,1.04-11.6,3.12-2.21,2.17-3.32,6.3-3.32,12.41v16.22c0,6.06,1.11,10.18,3.32,12.37,2.21,2.19,6.33,3.29,12.34,3.29h11.46c3.59,0,6.31-.24,8.18-.73,1.86-.49,3.15-1.36,3.84-2.62,.7-1.77,1.48-3.1,2.34-3.98,.86-.88,2.23-1.33,4.09-1.33,1.96,0,3.48,.54,4.58,1.61,1.09,1.07,1.43,2.59,1.01,4.54-1.12,4.8-3.67,8.38-7.65,10.73-3.98,2.35-9.45,3.53-16.39,3.53h-11.46c-9.27,0-16.16-2.25-20.65-6.74-4.5-4.5-6.75-11.38-6.75-20.65v-16.22c0-9.32,2.23-16.22,6.68-20.69,4.36-4.38,11.08-6.57,20.16-6.57m0-11c-12.07,0-21.48,3.3-27.96,9.82-6.55,6.59-9.88,16.16-9.88,28.45v16.22c0,12.25,3.35,21.82,9.97,28.43,6.61,6.61,16.18,9.97,28.43,9.97h11.46c9.03,0,16.22-1.65,21.98-5.06,6.56-3.87,10.98-10,12.77-17.7,.02-.06,.03-.13,.04-.19,1.2-5.63-.28-10.99-4.07-14.7-2.22-2.17-6.14-4.75-12.28-4.75s-9.9,2.53-11.97,4.65c-1.09,1.12-2.05,2.41-2.91,3.89-.83,.07-2,.12-3.57,.12h-11.46c-2.15,0-3.51-.18-4.31-.35-.16-.8-.34-2.17-.34-4.31v-16.22c0-2.09,.17-3.45,.33-4.26,.73-.13,1.88-.26,3.6-.26,.18,0,.37,0,.56,0,.06,0,.11,0,.17,0h11.46c1.6,0,2.78,.06,3.62,.13,.77,1.31,1.61,2.47,2.54,3.5,2.06,2.29,5.85,5.04,12.16,5.04s10.2-2.58,12.41-4.75c3.8-3.72,5.28-9.08,4.08-14.71-.01-.06-.02-.11-.04-.17-1.8-7.78-6.23-13.93-12.82-17.78-5.75-3.37-12.93-5-21.94-5h-11.41c-.21,0-.41,0-.62,0h0Z"/>
        </g>
        <g>
          <path class="cls-1" d="M340.55,150.33c-2.35,0-5.78-.86-8.76-4.93l-15.63-20.39-14.34,20.15c-3.08,4.25-6.59,5.13-9,5.13s-4.68-.83-6.94-2.46c-.05-.04-.1-.07-.15-.11-5.43-4.2-6.34-10.26-2.37-15.8l18.33-25.82-14.69-19.17c-2.71-3.4-2.96-6.46-2.7-8.44,.38-2.86,2-5.35,4.79-7.42,2.3-1.84,4.71-2.77,7.17-2.77,2.29,0,5.65,.83,8.66,4.78l11.8,15.36,11.56-15.31c2.99-4.09,6.42-4.95,8.77-4.95s4.91,.93,7.27,2.77c5.45,4.13,6.3,10.22,2.17,15.84l-15.48,20.35s18.81,24.55,18.84,24.58c4.02,5.5,3.27,11.54-1.96,15.77-.03,.02-.05,.04-.08,.06-2.36,1.84-4.81,2.77-7.27,2.77Z"/>
          <path d="M337.05,73.67c1.22,0,2.52,.54,3.89,1.61,3.08,2.33,3.45,5.08,1.12,8.25l-17.96,23.63,21.32,27.82c2.28,3.12,1.96,5.87-.98,8.25-1.38,1.07-2.67,1.61-3.89,1.61-1.59,0-3.04-.91-4.36-2.73l-20.2-26.35-18.66,26.21c-1.36,1.88-2.87,2.82-4.52,2.82-1.17,0-2.41-.47-3.73-1.42-3.08-2.38-3.49-5.13-1.26-8.25l20.69-29.15-17.19-22.44c-2.47-3.07-2.1-5.78,1.12-8.11,1.34-1.09,2.61-1.64,3.82-1.64,1.53,0,2.96,.87,4.29,2.61l16.22,21.11,15.94-21.11c1.32-1.82,2.77-2.73,4.35-2.73m0-11c-2.97,0-8.62,.93-13.19,7.17l-7.18,9.51-7.42-9.65c-4.58-6.01-10.12-6.91-13.01-6.91-2.56,0-6.45,.69-10.53,3.91-4.96,3.7-6.49,8.04-6.89,11.05-.41,3.03-.07,7.66,3.81,12.55l12.19,15.91-15.99,22.53c-5.67,7.92-4.28,17.31,3.5,23.32,.1,.08,.2,.15,.3,.22,3.22,2.32,6.64,3.5,10.16,3.5,3.02,0,8.78-.96,13.42-7.36,.02-.03,.04-.05,.06-.08l10.03-14.08,11.07,14.44c4.57,6.2,10.2,7.13,13.16,7.13,3.72,0,7.3-1.32,10.65-3.93,.05-.04,.11-.08,.16-.13,7.5-6.07,8.68-15.43,2.94-23.29-.05-.07-.1-.13-.15-.2l-16.21-21.15,12.88-16.94s.07-.09,.11-.14c5.92-8.05,4.6-17.48-3.28-23.49-3.33-2.58-6.9-3.89-10.59-3.89h0Z"/>
        </g>
        <g>
          <path class="cls-1" d="M169.85,150.33c-6.91,0-11.37-4.46-11.37-11.37v-59.13c0-6.91,4.46-11.37,11.37-11.37,4.69,0,8.25,2.05,10.05,5.53,1.29-.82,2.66-1.54,4.09-2.19,4.96-2.22,10.64-3.35,16.89-3.35,6.91,0,11.37,4.46,11.37,11.37s-4.46,11.37-11.37,11.37-12.01,1.17-15.29,3.47c-2.8,1.97-4.19,4.34-4.37,7.46v36.83c0,6.91-4.46,11.37-11.37,11.37Z"/>
          <path d="M200.88,73.96c3.91,0,5.87,1.96,5.87,5.87s-1.96,5.87-5.87,5.87c-8.06,0-14.21,1.49-18.45,4.47-4.24,2.98-6.48,6.92-6.71,11.81v36.97c0,3.91-1.96,5.87-5.87,5.87s-5.87-1.96-5.87-5.87v-59.13c0-3.91,1.96-5.87,5.87-5.87s5.87,1.96,5.87,5.87v5.45c2.75-3.73,6.26-6.55,10.52-8.46,4.26-1.91,9.14-2.87,14.64-2.87m0-11c-7.03,0-13.47,1.29-19.14,3.83-.15,.07-.3,.14-.45,.21-2.92-2.56-6.86-4.03-11.44-4.03-9.93,0-16.87,6.94-16.87,16.87v59.13c0,9.93,6.94,16.87,16.87,16.87s16.87-6.94,16.87-16.87v-36.67c.07-.99,.35-1.94,2.04-3.12,1.31-.92,4.63-2.47,12.12-2.47,9.93,0,16.87-6.94,16.87-16.87s-6.94-16.87-16.87-16.87h0Z"/>
        </g>
        <g>
          <path class="cls-1" d="M112.6,150.33c-8.8,0-15.85-1.99-20.95-5.92-5.32-4.1-8.55-10.28-9.61-18.38,0-.06-.01-.13-.02-.19-.41-4.33,1.22-7.04,2.67-8.55,1.4-1.46,3.94-3.2,8.14-3.2,6.06,0,10.27,3.88,11.04,10.15,.19,.99,.61,2.55,1.46,3.04,.57,.34,2.42,1.12,7.29,1.12h14.83c5.94,0,7.38-1.27,7.53-1.41,.15-.15,1.42-1.58,1.42-7.4s-1.29-7.24-1.43-7.39c-.14-.15-1.58-1.43-7.51-1.43h-10.02c-6.66,0-10.97-4.3-10.97-10.96s4.3-10.96,10.97-10.96h14.96c.33,0,.51-.05,.55-.06h0s.08-.12,.2-.37c.53-1.18,1.17-3.48,1.17-7.72,0-5.23-1.1-6.5-1.11-6.51,0,0-1.22-1.13-6.53-1.13h-12.62c-4.35,0-5.98,.72-6.38,.94-.39,.22-.74,1.01-.95,2.13-.95,6.23-5.11,9.94-11.15,9.94-4.17,0-6.71-1.7-8.1-3.12-1.51-1.55-3.18-4.34-2.55-8.86,1.07-7.58,4.2-13.39,9.29-17.3,4.89-3.75,11.57-5.66,19.84-5.66h12.62c9.63,0,17.04,2.53,22.04,7.53,5,5,7.53,12.41,7.53,22.04,0,6.87-1.48,12.47-4.41,16.73,1.6,1.9,2.91,4.1,3.91,6.59,1.71,4.24,2.58,9.49,2.58,15.59,0,10.06-2.62,17.78-7.79,22.95-5.17,5.17-12.93,7.79-23.08,7.79h-14.83Z"/>
          <path d="M126.65,56.61c8.15,0,14.2,1.97,18.15,5.92,3.95,3.95,5.92,10,5.92,18.15s-2.26,13.71-6.77,17.04c2.99,1.95,5.21,4.73,6.67,8.33,1.45,3.6,2.18,8.11,2.18,13.53,0,8.59-2.06,14.94-6.18,19.06-4.12,4.12-10.52,6.18-19.19,6.18h-14.83c-7.59,0-13.46-1.59-17.6-4.78-4.14-3.19-6.65-8.1-7.51-14.74-.17-1.82,.22-3.23,1.17-4.23,.95-1,2.34-1.5,4.16-1.5,3.34,0,5.21,1.82,5.6,5.46,.61,3.38,1.97,5.7,4.1,6.96,2.12,1.26,5.49,1.89,10.08,1.89h14.83c5.59,0,9.4-1.01,11.42-3.03s3.03-5.78,3.03-11.29-1.01-9.22-3.03-11.25c-2.02-2.04-5.82-3.06-11.42-3.06h-10.02c-3.64,0-5.46-1.82-5.46-5.46s1.82-5.46,5.46-5.46h14.96c2.73,0,4.65-1.23,5.76-3.68,1.11-2.45,1.66-5.78,1.66-9.99,0-5.16-.92-8.64-2.77-10.44-1.84-1.8-5.3-2.7-10.38-2.7h-12.62c-4.08,0-7.09,.54-9.04,1.63-1.95,1.08-3.19,3.1-3.71,6.05-.52,3.56-2.43,5.33-5.73,5.33-1.82,0-3.21-.49-4.16-1.46-.95-.98-1.3-2.4-1.04-4.26,.87-6.12,3.26-10.68,7.19-13.7,3.92-3.01,9.42-4.52,16.49-4.52h12.62m0-11h-12.62c-9.51,0-17.32,2.29-23.19,6.8-6.27,4.82-10.1,11.84-11.38,20.88-.99,7.12,2.12,11.51,4.07,13.5,2.13,2.18,5.94,4.77,12.03,4.77,3.34,0,6.36-.84,8.89-2.38-2.22,2.79-3.49,6.44-3.49,10.63,0,9.69,6.77,16.46,16.46,16.46h10.02c1.48,0,2.54,.1,3.25,.2,.1,.69,.19,1.7,.19,3.11s-.09,2.42-.19,3.11c-.72,.11-1.78,.2-3.25,.2h-14.83c-1.55,0-2.66-.09-3.4-.2-1.4-8.62-7.71-14.12-16.37-14.12-6.14,0-9.98,2.66-12.11,4.89-3.17,3.32-4.65,7.89-4.17,12.88,.01,.13,.03,.25,.04,.38,1.25,9.6,5.2,17.01,11.71,22.03,6.09,4.69,14.27,7.06,24.31,7.06h14.83c11.66,0,20.73-3.16,26.97-9.4,6.24-6.24,9.4-15.27,9.4-26.84,0-6.91-.97-12.68-2.98-17.65-.7-1.74-1.53-3.38-2.49-4.89,2.66-5.49,3.38-11.48,3.38-16.36,0-11.14-3.08-19.86-9.14-25.93-6.07-6.07-14.79-9.14-25.93-9.14h0Zm-14.48,31.23h0Zm0,0h0Zm-.36,1.78c.57-.05,1.3-.09,2.21-.09h12.62c.84,0,1.52,.03,2.06,.08,.05,.54,.08,1.22,.08,2.06,0,1.06-.05,1.94-.11,2.66h-11.27c-3.42,0-6.48,.84-9,2.36,1.59-1.95,2.75-4.34,3.4-7.08h0Z"/>
        </g>
        <g>
          <path class="cls-1" d="M69.99,150.33c-6.91,0-11.37-4.46-11.37-11.37v-37.6c0-6.51-1.39-8.21-1.67-8.48-.29-.28-2.04-1.68-8.49-1.68h-3.91c-5.01,0-9.38,.56-12.99,1.68-1.85,.57-2.94,1.25-3.32,1.77v44.32c0,6.91-4.46,11.37-11.37,11.37s-11.37-4.46-11.37-11.37V52.29c0-6.91,4.46-11.37,11.37-11.37s11.37,4.46,11.37,11.37v19.27c4.65-2.06,10.1-3.1,16.31-3.1h3.91c10.79,0,19.06,2.8,24.58,8.32,5.52,5.52,8.32,13.79,8.32,24.58v37.6c0,6.91-4.46,11.37-11.37,11.37Z"/>
          <path d="M16.87,46.42c3.91,0,5.87,1.96,5.87,5.87v29.85c4.94-5.45,12.21-8.18,21.81-8.18h3.91c9.32,0,16.22,2.24,20.69,6.71,4.47,4.47,6.71,11.37,6.71,20.69v37.6c0,3.91-1.96,5.87-5.87,5.87s-5.87-1.96-5.87-5.87v-37.6c0-6.1-1.11-10.24-3.32-12.41-2.21-2.17-6.33-3.25-12.34-3.25h-3.91c-5.59,0-10.46,.64-14.61,1.92-4.15,1.28-6.55,3.3-7.2,6.05v45.29c0,3.91-1.96,5.87-5.87,5.87s-5.87-1.96-5.87-5.87V52.29c0-3.91,1.96-5.87,5.87-5.87m0-11C6.94,35.42,0,42.35,0,52.29v86.67c0,9.93,6.94,16.87,16.87,16.87s16.87-6.94,16.87-16.87v-40.99c2.98-.84,6.61-1.27,10.81-1.27h3.91c2.14,0,3.51,.18,4.32,.34,.16,.81,.34,2.18,.34,4.31v37.6c0,9.93,6.94,16.87,16.87,16.87s16.87-6.94,16.87-16.87v-37.6c0-12.3-3.34-21.88-9.93-28.47-6.59-6.59-16.17-9.93-28.47-9.93h-3.91c-3.85,0-7.46,.36-10.81,1.08v-11.74c0-9.93-6.94-16.87-16.87-16.87h0Z"/>
        </g>
      </g>
      <g>
        <path class="cls-1" d="M385.94,187.75c-5.36,0-8.08-4.61-8.11-13.7-.02-7.46-1.53-13.47-5.06-20.1-2.89-5.43-7.12-10.04-11.6-14.93-1.16-1.26-2.31-2.53-3.44-3.8-7.8-8.79-15.72-19.67-15.29-33.73,.26-8.58,4.28-16.15,10.76-20.24,3.28-2.07,6.88-3.12,10.7-3.12,2.3,0,4.55,.38,6.71,1.04-5.53-7.89-8.68-17.88-6.03-28.04,1.79-6.88,5.77-12.19,9.61-17.32,1.06-1.42,2.06-2.75,3.01-4.12,2.63-3.77,6.74-10.98,4.67-16.86-.95-2.71,.34-5.7,2.97-6.86,.72-.32,1.47-.47,2.21-.47,1.97,0,3.86,1.06,4.85,2.9,5.61,10.47,3.65,22.16,1.75,33.46-1.71,10.2-3.33,19.84,1.11,26.82,1.84,2.89,4.75,5.27,7.84,7.78,4.42,3.6,9.42,7.68,11.96,14.08,2.53,6.38,1.58,13.93-2.54,20.19-3.76,5.71-9.61,9.22-15.65,9.39-.19,0-.38,0-.57,0-4.65,0-9.06-1.62-12.95-3.04-3.12-1.14-6.06-2.22-8.36-2.22h-.12c-.08,.08-.21,.31-.17,.62,.7,4.53,4.38,9.73,10.63,15.03,1.61,1.37,3.45,2.39,5.39,3.47,5.52,3.07,12.39,6.89,12.66,18.95,.26,11.47-5.56,26.53-10.74,31.83-1.93,1.97-4.02,2.97-6.22,2.97Z"/>
        <path d="M387.06,11c9.65,18.01-7.85,43.47,3.06,60.63,5.21,8.19,15.72,11.82,19.33,20.94,3.75,9.47-3.63,21.79-13.23,22.06-.14,0-.28,0-.41,0-7.21,0-14.62-5.26-21.31-5.26-.12,0-.24,0-.37,0-3.36,.1-5.9,3.4-5.36,6.95,1.11,7.21,6.87,13.61,12.51,18.39,7.01,5.94,15.83,5.82,16.11,18.34,.27,11.94-7.32,29.18-11.47,29.18-1.53,0-2.59-2.36-2.61-8.22-.02-8.21-1.72-15.18-5.71-22.67-4.03-7.56-10.24-13.55-15.78-19.79-7.34-8.27-14.28-17.86-13.91-29.92,.2-6.4,3.05-12.51,8.2-15.76,2.52-1.59,5.13-2.27,7.76-2.27,7.07,0,14.19,4.96,19.63,10.37,1.13,1.12,2.47,2.36,3.95,2.36,.35,0,.71-.07,1.08-.23,1.48-.64,2.2-2.45,1.87-4.13-.62-3.13-3.2-4.66-5.51-6.23-10.38-7.1-18.32-20.54-15-33.26,1.97-7.57,7.42-13.39,11.81-19.68,4.39-6.29,7.93-14.47,5.35-21.82m0-11c-1.48,0-2.99,.3-4.43,.94-5.26,2.32-7.85,8.29-5.94,13.71,.89,2.52-.65,7.08-4,11.89-.9,1.29-1.87,2.59-2.9,3.97-3.97,5.3-8.46,11.31-10.53,19.23-2.1,8.05-1.12,15.96,1.7,23.05-3.79,.43-7.37,1.71-10.7,3.81-8.02,5.07-13,14.31-13.32,24.72-.49,15.99,8.16,27.96,16.68,37.55,1.17,1.31,2.35,2.61,3.5,3.86,4.24,4.62,8.24,8.98,10.8,13.8,3.08,5.78,4.4,11.02,4.42,17.53,.01,4.13,.44,7.27,1.34,9.88,2.38,6.86,7.9,9.3,12.27,9.3,2.57,0,6.42-.8,10.16-4.62,6.83-6.99,12.58-23.71,12.31-35.8-.34-15.21-9.82-20.48-15.48-23.63-1.78-.99-3.31-1.84-4.51-2.86-1-.84-1.88-1.65-2.67-2.41,3.08,.96,6.42,1.72,10.07,1.72,.24,0,.48,0,.73-.01,7.83-.22,15.34-4.66,20.08-11.86,5.11-7.76,6.26-17.2,3.06-25.25-3.07-7.73-8.91-12.49-13.6-16.32-2.73-2.23-5.32-4.33-6.68-6.47-3.31-5.2-1.92-13.43-.32-22.95,1.96-11.64,4.17-24.84-2.33-36.97-1.97-3.68-5.76-5.8-9.7-5.8h0Z"/>
      </g>
    </g>
  </g>
</svg>