<svg width="64" height="64" viewBox="0 0 64 64" fill="none" xmlns="http://www.w3.org/2000/svg">
<path d="M24.1146 23.9222L24.1158 23.9229C24.7106 24.2715 24.9976 24.6702 25.1443 24.9964C25.2911 25.3231 25.3099 25.6027 25.3205 25.7615L25.3211 25.7708C25.3298 25.8997 25.3333 26.0449 25.2711 26.284C25.2057 26.5354 25.0637 26.9038 24.7569 27.4608C24.6735 27.612 24.4909 27.7714 24.1528 27.9146C23.8191 28.0558 23.3855 28.1593 22.8808 28.2315C21.8708 28.3759 20.6776 28.3823 19.6413 28.3823H16.9579V23.3854C17.5206 23.3848 18.0599 23.379 18.5751 23.3736C19.5955 23.3627 20.5217 23.3528 21.3497 23.3855C22.6336 23.4361 23.5491 23.5887 24.1146 23.9222ZM16.9613 23.1694C16.9613 23.1694 16.9612 23.1704 16.9609 23.1721L16.9613 23.1694ZM23.7136 33.2031C24.4446 33.3072 24.9879 33.5485 25.4674 34.1106C25.736 34.4557 25.9279 34.8542 26.0302 35.2794C26.1332 35.7078 26.1429 36.1533 26.0586 36.5858C25.9743 37.0183 25.7979 37.4275 25.5416 37.7858C25.2911 38.1359 24.9699 38.4294 24.5989 38.6473C24.0153 38.8885 23.3906 39.0152 22.759 39.0204H16.9579V33.1431H20.7609C21.0802 33.1431 21.3776 33.1398 21.6565 33.1367C22.4742 33.1277 23.1324 33.1204 23.7136 33.2031ZM16.7411 39.017C16.7412 39.0169 16.7422 39.0171 16.744 39.0174L16.7411 39.017ZM16.9613 32.927C16.9613 32.9271 16.9612 32.928 16.9609 32.9298L16.9613 32.927Z" fill="#D0FF35" stroke="black"/>
<mask id="path-2-inside-1_74_516" fill="white">
<path d="M47.1918 30.9876C47.0292 30.6043 46.7826 30.2626 46.4701 29.9876C46.1575 29.7126 45.7872 29.5115 45.3863 29.399C44.5852 29.1802 43.7467 29.1338 42.9263 29.263C42.1059 29.3922 41.3222 29.6941 40.6271 30.1487C39.9344 30.8486 39.4868 31.7539 39.3512 32.7292C39.3512 33.0705 39.3512 33.1343 39.7563 33.1343H47.3162C47.6894 33.1343 47.6894 33.1343 47.6575 32.6654C47.6218 32.0792 47.4651 31.5073 47.1918 30.9876ZM47.1918 30.9876C47.0292 30.6043 46.7794 30.2626 46.4669 29.9876C46.1543 29.7126 45.7872 29.5115 45.3863 29.399C44.5852 29.1802 43.7467 29.1338 42.9263 29.263C42.1059 29.3922 41.3222 29.6941 40.6271 30.1487C39.9344 30.8486 39.4836 31.7539 39.348 32.7292C39.348 33.0705 39.348 33.1343 39.7531 33.1343H47.3162C47.6894 33.1343 47.6894 33.1343 47.6575 32.6654C47.6218 32.0792 47.4587 31.5073 47.1854 30.9876M50.7357 0.974609H13.4148C10.1155 0.974609 6.95123 2.28528 4.61822 4.61828C2.28522 6.95129 0.974548 10.1155 0.974548 13.4149V50.7357C0.974548 54.0351 2.28522 57.1993 4.61822 59.5323C6.95123 61.8653 10.1155 63.176 13.4148 63.176H50.7357C54.035 63.176 57.1993 61.8653 59.5323 59.5323C61.8653 57.1993 63.1759 54.0351 63.1759 50.7357V13.4149C63.1759 10.1155 61.8653 6.95129 59.5323 4.61828C57.1993 2.28528 54.035 0.974609 50.7357 0.974609ZM38.5442 20.7834C38.5442 20.5377 38.5442 20.442 38.8249 20.442H48.9015V23.0577C48.9015 23.0577 48.9111 23.2427 48.7452 23.2427H38.9812C38.5442 23.2427 38.5442 23.2427 38.5442 22.8089V20.7834ZM29.214 43.6448C25.3862 45.7277 18.9523 44.8888 11.3319 44.8888V19.1055H23.4915C26.6015 19.1055 30.3017 19.8838 31.2969 23.1789C31.8137 24.6181 31.7823 26.1972 31.2086 27.6147C30.6349 29.0321 29.5592 30.1886 28.1869 30.8632C29.4518 31.3313 30.5561 32.152 31.3692 33.2281C32.1823 34.3042 32.67 35.5908 32.7747 36.9355C32.8794 38.2802 32.5967 39.6267 31.96 40.8157C31.3233 42.0048 30.3593 42.9865 29.1821 43.6448H29.214ZM52.3848 36.305H39.9445C39.6032 36.305 39.2906 36.49 39.3512 36.927C39.7244 38.7612 40.5633 40.691 42.4645 40.9717C43.4683 41.2705 44.5433 41.2245 45.518 40.8412C46.4927 40.4579 47.311 39.7594 47.8425 38.8569C47.8425 38.8569 47.9988 38.6687 48.0913 38.6687H52.136C52.136 38.6687 52.3848 38.6687 52.321 38.8856C51.8944 40.0934 51.2632 41.2188 50.455 42.2125C49.3739 43.2451 48.0695 44.0147 46.6429 44.4615C45.2163 44.9084 43.706 45.0204 42.2291 44.789C40.7521 44.5576 39.3484 43.989 38.1268 43.1273C36.9053 42.2655 35.8987 41.1339 35.1853 39.8202C34.7465 38.9441 34.473 37.9947 34.3783 37.0195C33.8235 34.5684 34.2475 31.9976 35.5601 29.8545C36.8726 27.7114 38.97 26.1654 41.4055 25.5458C48.4645 24.021 52.943 28.8727 52.943 35.7149C52.9535 35.7949 52.9454 35.8762 52.9194 35.9525C52.8935 36.0289 52.8503 36.0983 52.7933 36.1553C52.7363 36.2123 52.6669 36.2555 52.5905 36.2814C52.5142 36.3074 52.4329 36.3155 52.3529 36.305H52.3848ZM45.4182 29.399C44.6178 29.177 43.7787 29.1313 42.9589 29.2651C42.1391 29.3927 41.4055 29.549 40.659 30.1487C39.9126 30.7452 39.5171 31.7531 39.3831 32.7292C39.3831 33.0705 39.3831 33.1343 39.7882 33.1343H47.3162C47.6894 33.1343 47.6894 33.1343 47.6575 32.6654C47.6218 32.0792 47.4651 31.5073 47.1918 30.9876C47.0292 30.6043 46.7826 30.2626 46.4701 29.9876C46.1575 29.7126 45.7872 29.5115 45.3863 29.399H45.4182Z"/>
</mask>
<path d="M47.1918 30.9876C47.0292 30.6043 46.7826 30.2626 46.4701 29.9876C46.1575 29.7126 45.7872 29.5115 45.3863 29.399C44.5852 29.1802 43.7467 29.1338 42.9263 29.263C42.1059 29.3922 41.3222 29.6941 40.6271 30.1487C39.9344 30.8486 39.4868 31.7539 39.3512 32.7292C39.3512 33.0705 39.3512 33.1343 39.7563 33.1343H47.3162C47.6894 33.1343 47.6894 33.1343 47.6575 32.6654C47.6218 32.0792 47.4651 31.5073 47.1918 30.9876ZM47.1918 30.9876C47.0292 30.6043 46.7794 30.2626 46.4669 29.9876C46.1543 29.7126 45.7872 29.5115 45.3863 29.399C44.5852 29.1802 43.7467 29.1338 42.9263 29.263C42.1059 29.3922 41.3222 29.6941 40.6271 30.1487C39.9344 30.8486 39.4836 31.7539 39.348 32.7292C39.348 33.0705 39.348 33.1343 39.7531 33.1343H47.3162C47.6894 33.1343 47.6894 33.1343 47.6575 32.6654C47.6218 32.0792 47.4587 31.5073 47.1854 30.9876M50.7357 0.974609H13.4148C10.1155 0.974609 6.95123 2.28528 4.61822 4.61828C2.28522 6.95129 0.974548 10.1155 0.974548 13.4149V50.7357C0.974548 54.0351 2.28522 57.1993 4.61822 59.5323C6.95123 61.8653 10.1155 63.176 13.4148 63.176H50.7357C54.035 63.176 57.1993 61.8653 59.5323 59.5323C61.8653 57.1993 63.1759 54.0351 63.1759 50.7357V13.4149C63.1759 10.1155 61.8653 6.95129 59.5323 4.61828C57.1993 2.28528 54.035 0.974609 50.7357 0.974609ZM38.5442 20.7834C38.5442 20.5377 38.5442 20.442 38.8249 20.442H48.9015V23.0577C48.9015 23.0577 48.9111 23.2427 48.7452 23.2427H38.9812C38.5442 23.2427 38.5442 23.2427 38.5442 22.8089V20.7834ZM29.214 43.6448C25.3862 45.7277 18.9523 44.8888 11.3319 44.8888V19.1055H23.4915C26.6015 19.1055 30.3017 19.8838 31.2969 23.1789C31.8137 24.6181 31.7823 26.1972 31.2086 27.6147C30.6349 29.0321 29.5592 30.1886 28.1869 30.8632C29.4518 31.3313 30.5561 32.152 31.3692 33.2281C32.1823 34.3042 32.67 35.5908 32.7747 36.9355C32.8794 38.2802 32.5967 39.6267 31.96 40.8157C31.3233 42.0048 30.3593 42.9865 29.1821 43.6448H29.214ZM52.3848 36.305H39.9445C39.6032 36.305 39.2906 36.49 39.3512 36.927C39.7244 38.7612 40.5633 40.691 42.4645 40.9717C43.4683 41.2705 44.5433 41.2245 45.518 40.8412C46.4927 40.4579 47.311 39.7594 47.8425 38.8569C47.8425 38.8569 47.9988 38.6687 48.0913 38.6687H52.136C52.136 38.6687 52.3848 38.6687 52.321 38.8856C51.8944 40.0934 51.2632 41.2188 50.455 42.2125C49.3739 43.2451 48.0695 44.0147 46.6429 44.4615C45.2163 44.9084 43.706 45.0204 42.2291 44.789C40.7521 44.5576 39.3484 43.989 38.1268 43.1273C36.9053 42.2655 35.8987 41.1339 35.1853 39.8202C34.7465 38.9441 34.473 37.9947 34.3783 37.0195C33.8235 34.5684 34.2475 31.9976 35.5601 29.8545C36.8726 27.7114 38.97 26.1654 41.4055 25.5458C48.4645 24.021 52.943 28.8727 52.943 35.7149C52.9535 35.7949 52.9454 35.8762 52.9194 35.9525C52.8935 36.0289 52.8503 36.0983 52.7933 36.1553C52.7363 36.2123 52.6669 36.2555 52.5905 36.2814C52.5142 36.3074 52.4329 36.3155 52.3529 36.305H52.3848ZM45.4182 29.399C44.6178 29.177 43.7787 29.1313 42.9589 29.2651C42.1391 29.3927 41.4055 29.549 40.659 30.1487C39.9126 30.7452 39.5171 31.7531 39.3831 32.7292C39.3831 33.0705 39.3831 33.1343 39.7882 33.1343H47.3162C47.6894 33.1343 47.6894 33.1343 47.6575 32.6654C47.6218 32.0792 47.4651 31.5073 47.1918 30.9876C47.0292 30.6043 46.7826 30.2626 46.4701 29.9876C46.1575 29.7126 45.7872 29.5115 45.3863 29.399H45.4182Z" fill="#D0FF35"/>
<path d="M47.1918 30.9876L46.7315 31.1828L46.7396 31.2019L46.7492 31.2203L47.1918 30.9876ZM45.3863 29.399L45.5214 28.9176L45.5181 28.9167L45.3863 29.399ZM47.6575 32.6654L47.1584 32.6958L47.1586 32.6994L47.6575 32.6654ZM47.6521 30.7924C47.4603 30.3401 47.1692 29.9367 46.8003 29.6122L46.1398 30.363C46.396 30.5884 46.5982 30.8686 46.7315 31.1828L47.6521 30.7924ZM46.8003 29.6122C46.4315 29.2877 45.9944 29.0503 45.5214 28.9176L45.2513 29.8805C45.5799 29.9726 45.8836 30.1375 46.1398 30.363L46.8003 29.6122ZM45.5181 28.9167C44.6487 28.6792 43.7388 28.6289 42.8485 28.7691L43.0041 29.7569C43.7546 29.6387 44.5217 29.6811 45.2546 29.8814L45.5181 28.9167ZM42.8485 28.7691C41.9582 28.9093 41.1078 29.2369 40.3535 29.7302L40.9008 30.5671C41.5367 30.1513 42.2536 29.8751 43.0041 29.7569L42.8485 28.7691ZM47.3162 33.6343C47.3938 33.6343 47.5061 33.6355 47.6012 33.6221C47.7036 33.6077 47.9031 33.5621 48.043 33.37C48.1617 33.2069 48.1684 33.025 48.17 32.9467C48.1719 32.8533 48.1636 32.7389 48.1563 32.6315L47.1586 32.6994C47.1627 32.7592 47.1659 32.8061 47.168 32.8461C47.1701 32.8865 47.1705 32.9111 47.1702 32.9263C47.1699 32.9429 47.1688 32.9345 47.1734 32.9131C47.1785 32.8898 47.1932 32.8382 47.2345 32.7815C47.2789 32.7204 47.3348 32.68 47.3851 32.6565C47.4288 32.6361 47.4606 32.632 47.4617 32.6319C47.4635 32.6316 47.455 32.6328 47.4265 32.6336C47.3986 32.6343 47.3648 32.6343 47.3162 32.6343V33.6343ZM48.1566 32.635C48.1166 31.9799 47.9414 31.3389 47.6343 30.7548L46.7492 31.2203C46.9888 31.6758 47.1269 32.1785 47.1584 32.6958L48.1566 32.635ZM45.3863 29.399V28.399L45.1163 30.3619L45.3863 29.399ZM39.3512 32.7292L38.3607 32.5915L38.3512 32.66V32.7292H39.3512ZM39.348 32.7292L38.3575 32.5915L38.348 32.66V32.7292H39.348ZM0.974548 13.4149H-0.0254517H0.974548ZM0.974548 50.7357H-0.0254517H0.974548ZM50.7357 63.176V62.176V63.176ZM63.1759 13.4149H62.1759H63.1759ZM48.9015 20.442H49.9015V19.442H48.9015V20.442ZM48.9015 23.0577H47.9015V23.0835L47.9028 23.1094L48.9015 23.0577ZM29.214 43.6448L29.692 44.5231L29.214 42.6448V43.6448ZM11.3319 44.8888H10.3319V45.8888H11.3319V44.8888ZM11.3319 19.1055V18.1055H10.3319V19.1055H11.3319ZM31.2969 23.1789L30.3396 23.468L30.3471 23.4927L30.3558 23.5169L31.2969 23.1789ZM28.1869 30.8632L27.7457 29.9657L25.6561 30.9929L27.8398 31.801L28.1869 30.8632ZM29.1821 43.6448L28.694 42.7719L25.3447 44.6448H29.1821V43.6448ZM39.3512 36.927L38.3607 37.0644L38.365 37.0956L38.3713 37.1264L39.3512 36.927ZM42.4645 40.9717L42.7497 40.0132L42.6812 39.9929L42.6105 39.9824L42.4645 40.9717ZM47.8425 38.8569L48.7042 39.3643L49.2477 38.4414L48.2897 37.9624L47.8425 38.8569ZM52.136 38.6687L52.136 39.6687L52.136 39.6687L52.136 38.6687ZM52.321 38.8856L53.2639 39.2186L53.2728 39.1934L53.2804 39.1677L52.321 38.8856ZM50.455 42.2125L51.1457 42.9357L51.1911 42.8923L51.2307 42.8435L50.455 42.2125ZM35.1853 39.8202L34.2912 40.268L34.2986 40.2828L34.3065 40.2974L35.1853 39.8202ZM34.3783 37.0195L35.3736 36.9229L35.3675 36.8602L35.3536 36.7988L34.3783 37.0195ZM41.4055 25.5458L41.1943 24.5683L41.1765 24.5721L41.1589 24.5766L41.4055 25.5458ZM52.943 35.7149H51.943V35.78L51.9515 35.8445L52.943 35.7149ZM52.3529 36.305V35.305L52.2232 37.2966L52.3529 36.305ZM45.4182 29.399V30.399L45.6855 28.4354L45.4182 29.399ZM42.9589 29.2651L43.1127 30.2532L43.1199 30.252L42.9589 29.2651ZM40.659 30.1487L41.2833 30.9299L41.2854 30.9282L40.659 30.1487ZM39.3831 32.7292L38.3924 32.5932L38.3831 32.6609V32.7292H39.3831ZM39.9164 29.4452C39.0718 30.2986 38.5261 31.4023 38.3607 32.5915L40.3417 32.8669C40.4476 32.1054 40.797 31.3986 41.3379 30.8521L39.9164 29.4452ZM38.3512 32.7292C38.3512 32.7919 38.3496 32.9276 38.3643 33.053C38.3795 33.1825 38.4264 33.4604 38.6451 33.7135C38.8738 33.9782 39.1579 34.0662 39.3273 34.0999C39.487 34.1316 39.6465 34.1343 39.7563 34.1343V32.1343C39.6635 32.1343 39.6712 32.1291 39.7169 32.1382C39.7724 32.1492 39.9806 32.2 40.1586 32.406C40.3266 32.6006 40.3482 32.7984 40.3507 32.82C40.3528 32.8374 40.3512 32.8372 40.3512 32.7292H38.3512ZM39.7563 34.1343H47.3162V32.1343H39.7563V34.1343ZM48.1124 30.5971C47.8897 30.0719 47.5494 29.6081 47.1274 29.2368L45.8063 30.7384C46.0094 30.9171 46.1688 31.1368 46.2711 31.378L48.1124 30.5971ZM47.1274 29.2368C46.7042 28.8644 46.2041 28.5898 45.6564 28.4362L45.1163 30.3619C45.3702 30.4331 45.6045 30.5608 45.8063 30.7384L47.1274 29.2368ZM39.9164 29.4452C39.0733 30.2971 38.5232 31.4003 38.3575 32.5915L40.3385 32.8669C40.4441 32.1074 40.7956 31.4 41.3379 30.8521L39.9164 29.4452ZM38.348 32.7292C38.348 32.7919 38.3465 32.9276 38.3612 33.053C38.3763 33.1825 38.4232 33.4604 38.642 33.7135C38.8706 33.9782 39.1547 34.0662 39.3241 34.0999C39.4838 34.1316 39.6433 34.1343 39.7531 34.1343V32.1343C39.6604 32.1343 39.668 32.1291 39.7137 32.1382C39.7692 32.1492 39.9774 32.2 40.1554 32.406C40.3234 32.6006 40.345 32.7984 40.3475 32.82C40.3496 32.8374 40.348 32.8372 40.348 32.7292H38.348ZM39.7531 34.1343H47.3162V32.1343H39.7531V34.1343ZM48.6556 32.6046C48.6111 31.8735 48.408 31.164 48.0705 30.5221L46.3003 31.453C46.5094 31.8507 46.6324 32.285 46.6593 32.7263L48.6556 32.6046ZM50.7357 -0.0253906H13.4148V1.97461H50.7357V-0.0253906ZM13.4148 -0.0253906C9.85024 -0.0253906 6.43166 1.39063 3.91111 3.91118L5.32533 5.32539C7.4708 3.17992 10.3807 1.97461 13.4148 1.97461V-0.0253906ZM3.91111 3.91118C1.39057 6.43172 -0.0254517 9.8503 -0.0254517 13.4149H1.97455C1.97455 10.3807 3.17986 7.47086 5.32533 5.32539L3.91111 3.91118ZM-0.0254517 13.4149V50.7357H1.97455V13.4149H-0.0254517ZM-0.0254517 50.7357C-0.0254517 54.3003 1.39057 57.7189 3.91111 60.2394L5.32533 58.8252C3.17986 56.6797 1.97455 53.7699 1.97455 50.7357H-0.0254517ZM3.91111 60.2394C6.43165 62.76 9.85024 64.176 13.4148 64.176V62.176C10.3807 62.176 7.4708 60.9707 5.32533 58.8252L3.91111 60.2394ZM13.4148 64.176H50.7357V62.176H13.4148V64.176ZM50.7357 64.176C54.3002 64.176 57.7188 62.76 60.2394 60.2394L58.8252 58.8252C56.6797 60.9707 53.7698 62.176 50.7357 62.176L50.7357 64.176ZM60.2394 60.2394C62.7599 57.7189 64.1759 54.3003 64.1759 50.7357H62.1759C62.1759 53.7699 60.9706 56.6797 58.8252 58.8252L60.2394 60.2394ZM64.1759 50.7357V13.4149H62.1759V50.7357H64.1759ZM64.1759 13.4149C64.1759 9.8503 62.7599 6.43172 60.2394 3.91118L58.8252 5.32539C60.9706 7.47086 62.1759 10.3807 62.1759 13.4149L64.1759 13.4149ZM60.2394 3.91118C57.7188 1.39063 54.3002 -0.0253906 50.7357 -0.0253906V1.97461C53.7698 1.97461 56.6797 3.17992 58.8252 5.32539L60.2394 3.91118ZM39.5442 20.7834C39.5442 20.7051 39.5453 20.7093 39.5435 20.7267C39.5418 20.7439 39.5284 20.8932 39.4207 21.061C39.2913 21.2624 39.1092 21.3672 38.9713 21.412C38.8642 21.4468 38.7951 21.442 38.8249 21.442V19.442C38.6734 19.442 38.0829 19.443 37.7379 19.9802C37.595 20.2026 37.5641 20.4219 37.5536 20.5261C37.5431 20.6305 37.5442 20.7389 37.5442 20.7834H39.5442ZM38.8249 21.442H48.9015V19.442H38.8249V21.442ZM47.9015 20.442V23.0577H49.9015V20.442H47.9015ZM48.9015 23.0577C47.9028 23.1094 47.9028 23.1089 47.9028 23.1085C47.9028 23.1083 47.9028 23.1079 47.9028 23.1076C47.9027 23.107 47.9027 23.1065 47.9027 23.1059C47.9026 23.1047 47.9026 23.1036 47.9025 23.1024C47.9024 23.1001 47.9023 23.0978 47.9022 23.0955C47.9021 23.0909 47.9019 23.0862 47.9018 23.0816C47.9016 23.0724 47.9016 23.063 47.9017 23.0533C47.9019 23.0344 47.9028 23.013 47.9052 22.9894C47.9092 22.9478 47.92 22.8724 47.956 22.7816C47.9926 22.6893 48.0703 22.5446 48.2279 22.4227C48.3978 22.2913 48.588 22.2427 48.7452 22.2427V24.2427C48.9853 24.2427 49.2366 24.1709 49.4514 24.0049C49.6538 23.8483 49.7602 23.6574 49.8151 23.5188C49.8695 23.3817 49.8882 23.2601 49.8957 23.1838C49.8997 23.1429 49.9012 23.107 49.9015 23.078C49.9017 23.0633 49.9016 23.0499 49.9013 23.0379C49.9012 23.032 49.901 23.0263 49.9008 23.021C49.9007 23.0183 49.9006 23.0158 49.9005 23.0133C49.9005 23.012 49.9004 23.0108 49.9004 23.0096C49.9003 23.009 49.9003 23.0084 49.9003 23.0078C49.9003 23.0075 49.9002 23.0071 49.9002 23.0069C49.9002 23.0065 49.9002 23.006 48.9015 23.0577ZM48.7452 22.2427H38.9812V24.2427H48.7452V22.2427ZM38.9812 22.2427C38.8477 22.2427 38.8317 22.2412 38.8382 22.242C38.8492 22.2432 38.9079 22.2498 38.9874 22.2782C39.075 22.3095 39.1928 22.3691 39.3033 22.4788C39.5255 22.6993 39.5447 22.9473 39.5448 22.9485C39.5457 22.9563 39.5442 22.942 39.5442 22.8089H37.5442C37.5442 22.8927 37.5427 23.041 37.5572 23.1709C37.571 23.2941 37.6175 23.6234 37.8943 23.8982C38.1696 24.1715 38.4976 24.2165 38.6189 24.2299C38.7483 24.2442 38.8962 24.2427 38.9812 24.2427V22.2427ZM39.5442 22.8089V20.7834H37.5442V22.8089H39.5442ZM28.736 42.7664C27.0517 43.6829 24.7011 43.9977 21.6785 44.048C20.1837 44.0729 18.5665 44.0339 16.8291 43.9877C15.0982 43.9417 13.253 43.8888 11.3319 43.8888V45.8888C13.221 45.8888 15.0376 45.9408 16.776 45.987C18.5078 46.033 20.1672 46.0735 21.7118 46.0477C24.7683 45.9968 27.5485 45.6895 29.692 44.5231L28.736 42.7664ZM12.3319 44.8888V19.1055H10.3319V44.8888H12.3319ZM11.3319 20.1055H23.4915V18.1055H11.3319V20.1055ZM23.4915 20.1055C24.9813 20.1055 26.5337 20.2946 27.7987 20.828C29.0372 21.3502 29.949 22.1747 30.3396 23.468L32.2542 22.8898C31.6496 20.8881 30.2137 19.6758 28.5758 18.9851C26.9644 18.3056 25.1117 18.1055 23.4915 18.1055V20.1055ZM30.3558 23.5169C30.7895 24.7247 30.7631 26.0499 30.2816 27.2395L32.1355 27.9898C32.8014 26.3445 32.838 24.5115 32.2381 22.841L30.3558 23.5169ZM30.2816 27.2395C29.8002 28.4291 28.8974 29.3996 27.7457 29.9657L28.628 31.7606C30.2209 30.9775 31.4696 29.6352 32.1355 27.9898L30.2816 27.2395ZM27.8398 31.801C28.9255 32.2028 29.8734 32.9072 30.5713 33.8309L32.1671 32.6253C31.2388 31.3967 29.978 30.4597 28.5339 29.9253L27.8398 31.801ZM30.5713 33.8309C31.2692 34.7546 31.6879 35.8589 31.7777 37.0131L33.7717 36.8579C33.6522 35.3227 33.0953 33.8539 32.1671 32.6253L30.5713 33.8309ZM31.7777 37.0131C31.8676 38.1673 31.6249 39.3231 31.0784 40.3437L32.8416 41.2878C33.5685 39.9303 33.8912 38.393 33.7717 36.8579L31.7777 37.0131ZM31.0784 40.3437C30.5319 41.3643 29.7045 42.2069 28.694 42.7719L29.6701 44.5176C31.0141 43.7661 32.1147 42.6453 32.8416 41.2878L31.0784 40.3437ZM29.1821 44.6448H29.214V42.6448H29.1821V44.6448ZM52.3848 35.305H39.9445V37.305H52.3848V35.305ZM39.9445 35.305C39.6164 35.305 39.1848 35.3912 38.832 35.7054C38.4339 36.06 38.2915 36.5656 38.3607 37.0644L40.3417 36.7896C40.344 36.8063 40.3493 36.8704 40.3196 36.9601C40.2886 37.0534 40.2321 37.1367 40.1623 37.1988C40.0968 37.2572 40.0357 37.2832 40.0011 37.2941C39.9669 37.3049 39.9471 37.305 39.9445 37.305V35.305ZM38.3713 37.1264C38.5701 38.1032 38.9065 39.1852 39.5008 40.0836C40.1095 41.0038 41.0192 41.7691 42.3184 41.961L42.6105 39.9824C42.0086 39.8935 41.5483 39.5537 41.1689 38.9802C40.7752 38.385 40.5056 37.5849 40.3311 36.7276L38.3713 37.1264ZM42.1792 41.9301C43.3972 42.2926 44.7014 42.2369 45.884 41.7719L45.152 39.9106C44.3852 40.2122 43.5395 40.2483 42.7497 40.0132L42.1792 41.9301ZM45.884 41.7719C47.0665 41.3068 48.0594 40.4593 48.7042 39.3643L46.9808 38.3494C46.5627 39.0594 45.9189 39.6091 45.152 39.9106L45.884 41.7719ZM47.8425 38.8569C48.6118 39.4957 48.6117 39.4959 48.6116 39.496C48.6116 39.496 48.6115 39.4961 48.6114 39.4962C48.6113 39.4963 48.6112 39.4965 48.6111 39.4966C48.6109 39.4969 48.6106 39.4971 48.6104 39.4974C48.61 39.4979 48.6096 39.4984 48.6093 39.4988C48.6085 39.4997 48.6079 39.5004 48.6074 39.501C48.6064 39.5022 48.6058 39.5029 48.6055 39.5032C48.605 39.5038 48.6057 39.503 48.6071 39.5015C48.6111 39.4971 48.6137 39.4946 48.6129 39.4953C48.6121 39.496 48.6077 39.5001 48.5997 39.5066C48.5922 39.5126 48.5758 39.5254 48.5512 39.5412C48.5393 39.5488 48.364 39.6687 48.0913 39.6687V37.6687C47.7723 37.6687 47.5429 37.8121 47.4756 37.855C47.3767 37.9181 47.2988 37.9862 47.2515 38.0302C47.2001 38.0779 47.1579 38.1225 47.1296 38.1534C47.115 38.1695 47.1027 38.1834 47.0933 38.1943C47.0886 38.1997 47.0845 38.2045 47.0812 38.2085C47.0795 38.2105 47.078 38.2122 47.0767 38.2138C47.076 38.2146 47.0754 38.2154 47.0748 38.216C47.0745 38.2164 47.0742 38.2167 47.074 38.217C47.0738 38.2172 47.0737 38.2174 47.0736 38.2175C47.0735 38.2176 47.0734 38.2177 47.0734 38.2177C47.0733 38.2178 47.0732 38.218 47.8425 38.8569ZM48.0913 39.6687H52.136V37.6687H48.0913V39.6687ZM52.136 38.6687C52.136 39.6687 52.1356 39.6687 52.1351 39.6687C52.135 39.6687 52.1346 39.6687 52.1343 39.6687C52.1337 39.6686 52.1332 39.6686 52.1326 39.6686C52.1315 39.6686 52.1304 39.6686 52.1292 39.6686C52.127 39.6686 52.1248 39.6686 52.1226 39.6686C52.1182 39.6685 52.1138 39.6684 52.1095 39.6683C52.1008 39.668 52.0921 39.6676 52.0832 39.6671C52.066 39.666 52.0461 39.6641 52.0238 39.6607C51.9883 39.6553 51.9054 39.6403 51.8052 39.5902C51.7012 39.5382 51.524 39.4194 51.4142 39.186C51.2996 38.9424 51.327 38.7213 51.3616 38.6034L53.2804 39.1677C53.3469 38.9414 53.3671 38.6389 53.2238 38.3344C53.0853 38.0399 52.8579 37.8805 52.6996 37.8013C52.5452 37.7241 52.4041 37.6955 52.3239 37.6834C52.2793 37.6766 52.2404 37.673 52.2099 37.6711C52.1943 37.6701 52.1803 37.6695 52.1681 37.6691C52.1619 37.669 52.1562 37.6688 52.1508 37.6688C52.1481 37.6687 52.1456 37.6687 52.1431 37.6687C52.1419 37.6687 52.1407 37.6687 52.1395 37.6687C52.1389 37.6687 52.1383 37.6687 52.1377 37.6687C52.1374 37.6687 52.137 37.6687 52.1368 37.6687C52.1364 37.6687 52.136 37.6687 52.136 38.6687ZM51.3781 38.5526C50.9897 39.6522 50.415 40.6768 49.6792 41.5815L51.2307 42.8435C52.1114 41.7608 52.7992 40.5346 53.2639 39.2186L51.3781 38.5526ZM49.7642 41.4894C48.7943 42.4159 47.624 43.1063 46.344 43.5072L46.9418 45.4158C48.515 44.9231 49.9536 44.0744 51.1457 42.9357L49.7642 41.4894ZM46.344 43.5072C45.0641 43.9081 43.7089 44.0087 42.3838 43.8011L42.0743 45.777C43.703 46.0322 45.3686 45.9086 46.9418 45.4158L46.344 43.5072ZM42.3838 43.8011C41.0587 43.5935 39.7993 43.0833 38.7033 42.3101L37.5504 43.9444C38.8975 44.8947 40.4455 45.5218 42.0743 45.777L42.3838 43.8011ZM38.7033 42.3101C37.6073 41.537 36.7042 40.5216 36.0641 39.343L34.3065 40.2974C35.0933 41.7461 36.2033 42.9941 37.5504 43.9444L38.7033 42.3101ZM36.0794 39.3723C35.6957 38.6062 35.4564 37.7758 35.3736 36.9229L33.383 37.1161C33.4895 38.2136 33.7974 39.2821 34.2912 40.268L36.0794 39.3723ZM35.3536 36.7988C34.8564 34.6019 35.2364 32.2976 36.4129 30.3768L34.7073 29.3322C33.2587 31.6976 32.7907 34.535 33.403 37.2403L35.3536 36.7988ZM36.4129 30.3768C37.5893 28.456 39.4691 27.0703 41.652 26.5149L41.1589 24.5766C38.4708 25.2606 36.156 26.9669 34.7073 29.3322L36.4129 30.3768ZM41.6166 26.5232C44.8692 25.8207 47.406 26.5984 49.1373 28.2221C50.8924 29.8682 51.943 32.5012 51.943 35.7149H53.943C53.943 32.0864 52.7543 28.8725 50.5055 26.7633C48.2327 24.6318 45.0007 23.7461 41.1943 24.5683L41.6166 26.5232ZM51.9515 35.8445C51.942 35.7726 51.9493 35.6994 51.9727 35.6307L53.8662 36.2744C53.9415 36.0529 53.9649 35.8171 53.9346 35.5852L51.9515 35.8445ZM51.9727 35.6307C51.996 35.5619 52.0349 35.4995 52.0862 35.4482L53.5004 36.8624C53.6658 36.697 53.791 36.4958 53.8662 36.2744L51.9727 35.6307ZM52.0862 35.4482C52.1375 35.3969 52.1999 35.358 52.2687 35.3346L52.9124 37.2282C53.1338 37.1529 53.335 37.0278 53.5004 36.8624L52.0862 35.4482ZM52.2687 35.3346C52.3374 35.3113 52.4106 35.304 52.4825 35.3134L52.2232 37.2966C52.4552 37.3269 52.6909 37.3035 52.9124 37.2282L52.2687 35.3346ZM52.3529 37.305H52.3848V35.305H52.3529V37.305ZM45.6855 28.4354C44.7457 28.1747 43.7605 28.1211 42.7979 28.2781L43.1199 30.252C43.797 30.1416 44.4899 30.1793 45.1509 30.3627L45.6855 28.4354ZM42.8051 28.277C41.9471 28.4105 40.9927 28.5978 40.0327 29.3691L41.2854 30.9282C41.8182 30.5002 42.3311 30.3748 43.1127 30.2532L42.8051 28.277ZM40.0347 29.3675C39.0068 30.189 38.5439 31.4891 38.3924 32.5932L40.3738 32.8652C40.4902 32.0171 40.8185 31.3013 41.2833 30.9298L40.0347 29.3675ZM38.3831 32.7292C38.3831 32.7919 38.3815 32.9276 38.3962 33.053C38.4114 33.1825 38.4583 33.4604 38.677 33.7135C38.9057 33.9782 39.1898 34.0662 39.3592 34.0999C39.5189 34.1316 39.6784 34.1343 39.7882 34.1343V32.1343C39.6954 32.1343 39.7031 32.1291 39.7488 32.1382C39.8043 32.1492 40.0124 32.2 40.1905 32.406C40.3585 32.6006 40.3801 32.7984 40.3826 32.82C40.3847 32.8374 40.3831 32.8372 40.3831 32.7292H38.3831ZM39.7882 34.1343H47.3162V32.1343H39.7882V34.1343ZM45.3863 30.399H45.4182V28.399H45.3863V30.399Z" fill="black" mask="url(#path-2-inside-1_74_516)"/>
</svg>
