<svg width="61" height="51" viewBox="0 0 61 51" fill="none" xmlns="http://www.w3.org/2000/svg">
<mask id="path-1-outside-1_21_479" maskUnits="userSpaceOnUse" x="0" y="0" width="61" height="51" fill="black">
<rect fill="white" width="61" height="51"/>
<path d="M49.321 27.6694L32.1383 44.0274V49.588H37.9697L55.124 33.2031M59.5966 26.8596L55.9732 23.4045C55.8368 23.2615 55.6708 23.1469 55.4857 23.0679C55.3006 22.9889 55.1003 22.9473 54.8976 22.9456C54.473 22.9726 54.0766 23.1076 53.7936 23.4045L50.9628 26.1038L56.7659 31.5025L59.5966 28.8031C60.1345 28.2633 60.1345 27.3995 59.5966 26.8596ZM26.4768 38.7907H6.66151V11.7973L29.3075 25.294L51.9536 11.7973V17.196H57.6151V6.39867C57.6151 3.4294 55.0674 1 51.9536 1H6.66151C3.54768 1 1 3.4294 1 6.39867V38.7907C1 41.76 3.54768 44.1894 6.66151 44.1894H26.4768V38.7907ZM51.9536 6.39867L29.3075 19.8953L6.66151 6.39867H51.9536Z"/>
</mask>
<path d="M49.321 27.6694L32.1383 44.0274V49.588H37.9697L55.124 33.2031M59.5966 26.8596L55.9732 23.4045C55.8368 23.2615 55.6708 23.1469 55.4857 23.0679C55.3006 22.9889 55.1003 22.9473 54.8976 22.9456C54.473 22.9726 54.0766 23.1076 53.7936 23.4045L50.9628 26.1038L56.7659 31.5025L59.5966 28.8031C60.1345 28.2633 60.1345 27.3995 59.5966 26.8596ZM26.4768 38.7907H6.66151V11.7973L29.3075 25.294L51.9536 11.7973V17.196H57.6151V6.39867C57.6151 3.4294 55.0674 1 51.9536 1H6.66151C3.54768 1 1 3.4294 1 6.39867V38.7907C1 41.76 3.54768 44.1894 6.66151 44.1894H26.4768V38.7907ZM51.9536 6.39867L29.3075 19.8953L6.66151 6.39867H51.9536Z" fill="#D0FF35"/>
<path d="M32.1383 44.0274L31.4488 43.3031L31.1383 43.5987V44.0274H32.1383ZM32.1383 49.588H31.1383V50.588H32.1383V49.588ZM37.9697 49.588V50.588H38.3705L38.6604 50.3112L37.9697 49.588ZM59.5966 26.8596L60.305 26.1538L60.296 26.1448L60.2867 26.1359L59.5966 26.8596ZM55.9732 23.4045L55.2498 24.0949L55.2661 24.1119L55.2831 24.1282L55.9732 23.4045ZM54.8976 22.9456L54.906 21.9456L54.87 21.9453L54.8341 21.9476L54.8976 22.9456ZM53.7936 23.4045L54.4837 24.1282L54.5009 24.1117L54.5174 24.0945L53.7936 23.4045ZM50.9628 26.1038L50.2727 25.3801L49.5043 26.1128L50.2817 26.836L50.9628 26.1038ZM56.7659 31.5025L56.0847 32.2346L56.7743 32.8762L57.456 32.2262L56.7659 31.5025ZM59.5966 28.8031L60.2867 29.5269L60.296 29.518L60.305 29.5089L59.5966 28.8031ZM26.4768 38.7907H27.4768V37.7907H26.4768V38.7907ZM6.66151 38.7907H5.66151V39.7907H6.66151V38.7907ZM6.66151 11.7973L7.17347 10.9383L5.66151 10.0372V11.7973H6.66151ZM29.3075 25.294L28.7956 26.153L29.3075 26.4581L29.8195 26.153L29.3075 25.294ZM51.9536 11.7973H52.9536V10.0372L51.4416 10.9383L51.9536 11.7973ZM51.9536 17.196H50.9536V18.196H51.9536V17.196ZM57.6151 17.196V18.196H58.6151V17.196H57.6151ZM26.4768 44.1894V45.1894H27.4768V44.1894H26.4768ZM51.9536 6.39867L52.4655 7.25768L55.5848 5.39867H51.9536V6.39867ZM29.3075 19.8953L28.7956 20.7544L29.3075 21.0595L29.8195 20.7544L29.3075 19.8953ZM6.66151 6.39867V5.39867H3.03032L6.14955 7.25768L6.66151 6.39867ZM48.6315 26.9452L31.4488 43.3031L32.8278 44.7517L50.0105 28.3937L48.6315 26.9452ZM31.1383 44.0274V49.588H33.1383V44.0274H31.1383ZM32.1383 50.588H37.9697V48.588H32.1383V50.588ZM38.6604 50.3112L55.8147 33.9262L54.4333 32.4799L37.2789 48.8649L38.6604 50.3112ZM60.2867 26.1359L56.6634 22.6808L55.2831 24.1282L58.9065 27.5833L60.2867 26.1359ZM56.6967 22.7141C56.4649 22.4712 56.1856 22.2793 55.8781 22.1481L55.0933 23.9877C55.1559 24.0144 55.2087 24.0518 55.2498 24.0949L56.6967 22.7141ZM55.8781 22.1481C55.5706 22.0169 55.2398 21.9484 54.906 21.9456L54.8891 23.9456C54.9609 23.9462 55.0306 23.961 55.0933 23.9877L55.8781 22.1481ZM54.8341 21.9476C54.2499 21.9847 53.5807 22.1786 53.0698 22.7145L54.5174 24.0945C54.5726 24.0365 54.696 23.9604 54.961 23.9436L54.8341 21.9476ZM53.1035 22.6808L50.2727 25.3801L51.6529 26.8275L54.4837 24.1282L53.1035 22.6808ZM50.2817 26.836L56.0847 32.2346L57.447 30.7703L51.6439 25.3717L50.2817 26.836ZM57.456 32.2262L60.2867 29.5269L58.9065 28.0794L56.0758 30.7788L57.456 32.2262ZM60.305 29.5089C61.2316 28.5788 61.2316 27.0839 60.305 26.1538L58.8882 27.5654C59.0373 27.7151 59.0373 27.9477 58.8882 28.0974L60.305 29.5089ZM26.4768 37.7907H6.66151V39.7907H26.4768V37.7907ZM7.66151 38.7907V11.7973H5.66151V38.7907H7.66151ZM6.14955 12.6564L28.7956 26.153L29.8195 24.435L7.17347 10.9383L6.14955 12.6564ZM29.8195 26.153L52.4655 12.6564L51.4416 10.9383L28.7956 24.435L29.8195 26.153ZM50.9536 11.7973V17.196H52.9536V11.7973H50.9536ZM51.9536 18.196H57.6151V16.196H51.9536V18.196ZM58.6151 17.196V6.39867H56.6151V17.196H58.6151ZM58.6151 6.39867C58.6151 2.83285 55.5744 0 51.9536 0V2C54.5605 2 56.6151 4.02595 56.6151 6.39867H58.6151ZM51.9536 0H6.66151V2H51.9536V0ZM6.66151 0C3.04072 0 0 2.83285 0 6.39867H2C2 4.02595 4.05463 2 6.66151 2V0ZM0 6.39867V38.7907H2V6.39867H0ZM0 38.7907C0 42.3565 3.04072 45.1894 6.66151 45.1894V43.1894C4.05463 43.1894 2 41.1634 2 38.7907H0ZM6.66151 45.1894H26.4768V43.1894H6.66151V45.1894ZM27.4768 44.1894V38.7907H25.4768V44.1894H27.4768ZM51.4416 5.53966L28.7956 19.0363L29.8195 20.7544L52.4655 7.25768L51.4416 5.53966ZM29.8195 19.0363L7.17347 5.53966L6.14955 7.25768L28.7956 20.7544L29.8195 19.0363ZM6.66151 7.39867H51.9536V5.39867H6.66151V7.39867Z" fill="black" mask="url(#path-1-outside-1_21_479)"/>
</svg>
