<?xml version="1.0" encoding="utf-8"?>
<!-- Generator: Adobe Illustrator 27.0.0, SVG Export Plug-In . SVG Version: 6.00 Build 0)  -->
<svg version="1.1" id="Layer_1" xmlns="http://www.w3.org/2000/svg" xmlns:xlink="http://www.w3.org/1999/xlink" x="0px" y="0px"
	 viewBox="0 0 32 32" enable-background="new 0 0 32 32" xml:space="preserve">
<path fill="#D0FF35" d="M16,0L16,0c8.837,0,16,7.163,16,16v0c0,8.837-7.163,16-16,16h0C7.163,32,0,24.837,0,16v0
	C0,7.163,7.163,0,16,0z"/>
<g>
	<path fill="#D0FF35" d="M16.492,27.06c-0.65,0-0.981-0.56-0.984-1.664c-0.003-0.906-0.186-1.636-0.614-2.44
		c-0.351-0.659-0.865-1.218-1.408-1.812l-0.417-0.459c-0.948-1.067-1.909-2.387-1.857-4.094c0.033-1.043,0.521-1.96,1.306-2.457
		c0.397-0.252,0.835-0.379,1.298-0.379c0.283,0,0.56,0.049,0.826,0.131c-0.684-0.969-1.064-2.176-0.743-3.407
		c0.218-0.836,0.7-1.48,1.168-2.103c0.124-0.165,0.248-0.331,0.364-0.499c0.319-0.458,0.816-1.333,0.566-2.045
		c-0.116-0.33,0.042-0.691,0.36-0.833c0.087-0.038,0.179-0.056,0.268-0.056c0.239,0,0.469,0.129,0.588,0.352
		c0.681,1.271,0.444,2.69,0.213,4.061c-0.208,1.238-0.404,2.407,0.135,3.255c0.224,0.351,0.577,0.639,0.953,0.944
		c0.536,0.437,1.143,0.932,1.452,1.71c0.307,0.774,0.191,1.69-0.309,2.451c-0.456,0.692-1.166,1.119-1.897,1.14
		c-0.002,0-0.003,0-0.005,0c-0.631,0-1.165-0.195-1.635-0.368c-0.378-0.139-0.736-0.268-1.014-0.268
		c0.049,0.625,0.495,1.256,1.255,1.898c0.196,0.166,0.419,0.29,0.655,0.422c0.67,0.372,1.503,0.836,1.537,2.298
		c0.031,1.393-0.675,3.22-1.303,3.863C17.013,26.938,16.758,27.06,16.492,27.06z"/>
	<g>
		<path d="M16.626,5.609c1.172,2.186-0.953,5.275,0.372,7.358c0.632,0.994,1.907,1.434,2.346,2.541
			c0.456,1.15-0.441,2.644-1.606,2.678c-0.017,0-0.034,0.001-0.051,0.001c-0.874,0-1.775-0.639-2.586-0.639
			c-0.015,0-0.03,0-0.045,0.001c-0.408,0.012-0.717,0.413-0.65,0.844c0.135,0.875,0.834,1.651,1.519,2.231
			c0.85,0.721,1.92,0.706,1.955,2.226c0.033,1.449-0.888,3.54-1.391,3.54c-0.186,0-0.315-0.286-0.317-0.997
			c-0.003-0.996-0.209-1.842-0.693-2.751c-0.489-0.918-1.243-1.644-1.915-2.401c-0.89-1.003-1.733-2.168-1.687-3.63
			c0.024-0.776,0.37-1.517,0.995-1.912c0.306-0.193,0.623-0.276,0.942-0.276c0.859,0,1.722,0.601,2.382,1.259
			c0.137,0.137,0.3,0.286,0.479,0.286c0.043,0,0.086-0.009,0.131-0.028c0.18-0.077,0.266-0.298,0.227-0.501
			c-0.075-0.38-0.389-0.565-0.668-0.757c-1.26-0.862-2.223-2.494-1.82-4.035c0.24-0.918,0.901-1.625,1.433-2.389
			C16.509,7.493,16.94,6.501,16.626,5.609 M16.626,4.274c-0.18,0-0.363,0.037-0.538,0.114c-0.639,0.281-0.953,1.006-0.722,1.664
			c0.108,0.306-0.078,0.859-0.485,1.443c-0.114,0.163-0.234,0.323-0.353,0.483c-0.481,0.643-1.026,1.372-1.277,2.332
			c-0.255,0.976-0.136,1.937,0.207,2.798c-0.459,0.052-0.895,0.207-1.298,0.462c-0.973,0.616-1.578,1.737-1.616,3.001
			c-0.059,1.939,0.989,3.392,2.023,4.557c0.139,0.156,0.281,0.311,0.423,0.466c0.515,0.561,1,1.091,1.312,1.677
			c0.373,0.701,0.534,1.338,0.537,2.127c0.006,2.101,1.157,2.328,1.652,2.328c0.312,0,0.779-0.097,1.233-0.561
			c0.829-0.848,1.527-2.878,1.493-4.344c-0.042-1.846-1.191-2.486-1.879-2.868c-0.216-0.12-0.402-0.224-0.548-0.347
			c-0.121-0.103-0.228-0.2-0.324-0.293c0.373,0.117,0.779,0.208,1.222,0.208l0.088-0.001c0.951-0.027,1.862-0.565,2.437-1.44
			c0.62-0.942,0.76-2.087,0.371-3.064c-0.371-0.939-1.08-1.516-1.651-1.981c-0.332-0.27-0.645-0.526-0.81-0.785
			c-0.402-0.631-0.226-1.678-0.04-2.786c0.237-1.413,0.506-3.014-0.283-4.487C17.564,4.531,17.105,4.274,16.626,4.274L16.626,4.274z
			"/>
	</g>
</g>
</svg>
