<?xml version="1.0" encoding="UTF-8"?>
<svg id="Layer_2" data-name="Layer 2" xmlns="http://www.w3.org/2000/svg" viewBox="0 0 453.78 201.25">
  <defs>
    <style>
      .cls-1 {
        fill: #d0ff35;
      }
    </style>
  </defs>
  <g id="Layer_1-2" data-name="Layer 1">
    <g>
      <g>
        <g>
          <path class="cls-1" d="M258.59,152.23c-11.29,0-20.03-3.01-25.96-8.94-5.93-5.93-8.94-14.67-8.94-25.96v-16.22c0-11.33,2.98-20.07,8.86-25.98,5.79-5.83,14.37-8.78,25.47-8.78h12.03c8.37,0,14.97,1.48,20.18,4.52,5.74,3.36,9.6,8.74,11.18,15.55,0,.04,.02,.08,.03,.12,1.3,6.07-1.38,9.79-3.1,11.47-1.75,1.71-4.9,3.75-9.97,3.75s-7.97-2.11-9.56-3.89c-1.09-1.21-2.04-2.65-2.9-4.39-.83-.16-2.58-.39-5.85-.39,0,0-11.54,0-11.58,0h-.62c-4.55,0-6.08,.8-6.35,.97-.18,.28-1.08,1.95-1.08,7.05v16.22c0,5.57,1.09,7.03,1.12,7.07h0s1.49,1.09,7.03,1.09h11.46c3.23,0,4.98-.22,5.82-.39,.91-1.89,1.95-3.44,3.17-4.68,1.6-1.64,4.54-3.6,9.46-3.6s8.07,2.04,9.82,3.75c1.72,1.69,4.4,5.41,3.1,11.48,0,.04-.02,.09-.03,.13-1.57,6.76-5.43,12.11-11.15,15.49-5.21,3.08-11.81,4.57-20.2,4.57h-11.46Z"/>
          <path d="M258.02,73.86c.19,0,.38,0,.57,0h11.46c6.94,0,12.41,1.17,16.39,3.5,3.98,2.33,6.54,5.92,7.65,10.76,.42,1.96,.08,3.47-1.01,4.54-1.1,1.07-2.67,1.61-4.72,1.61-1.82,0-3.15-.46-3.98-1.4-.84-.93-1.61-2.24-2.31-3.91-.7-1.26-1.98-2.13-3.84-2.62-1.86-.49-4.59-.73-8.18-.73h-11.46c-.25,0-.49,0-.73,0-5.61,0-9.48,1.04-11.6,3.12-2.21,2.17-3.32,6.3-3.32,12.41v16.22c0,6.06,1.11,10.18,3.32,12.37,2.21,2.19,6.33,3.29,12.34,3.29h11.46c3.59,0,6.31-.24,8.18-.73,1.86-.49,3.15-1.36,3.84-2.62,.7-1.77,1.48-3.1,2.34-3.98,.86-.88,2.23-1.33,4.09-1.33,1.96,0,3.48,.54,4.58,1.61,1.09,1.07,1.43,2.59,1.01,4.54-1.12,4.8-3.67,8.38-7.65,10.73-3.98,2.35-9.45,3.53-16.39,3.53h-11.46c-9.27,0-16.16-2.25-20.65-6.74-4.5-4.5-6.75-11.38-6.75-20.65v-16.22c0-9.32,2.23-16.22,6.68-20.69,4.36-4.38,11.08-6.57,20.16-6.57m0-15c-13.18,0-23.54,3.7-30.79,11-7.33,7.36-11.04,17.88-11.04,31.27v16.22c0,13.35,3.75,23.87,11.14,31.26,7.39,7.39,17.9,11.14,31.26,11.14h11.46c9.77,0,17.62-1.84,24.02-5.61,7.52-4.44,12.58-11.44,14.63-20.24,.02-.09,.04-.18,.06-.26,1.5-7-.39-13.7-5.18-18.4-2.75-2.69-7.6-5.89-15.08-5.89s-12.22,3.19-14.83,5.86c-.83,.85-1.6,1.78-2.31,2.8-.39,0-.83,.01-1.31,.01h-11.46c-.23,0-.44,0-.65,0,0-.21,0-.42,0-.65v-16.22c0-.18,0-.36,0-.52,.14,0,.28,0,.42,0,.08,0,.15,0,.23,0h11.46c.5,0,.96,0,1.36,.02,.57,.81,1.18,1.58,1.82,2.29,3.68,4.1,9.06,6.36,15.13,6.36,7.6,0,12.47-3.2,15.21-5.89,4.8-4.7,6.69-11.4,5.19-18.4-.02-.08-.03-.16-.05-.23-2.05-8.88-7.13-15.91-14.7-20.34-6.39-3.73-14.22-5.55-23.96-5.55h-11.39c-.21,0-.42,0-.64,0h0Z"/>
        </g>
        <g>
          <path class="cls-1" d="M362.55,152.23c-2.81,0-6.89-1-10.36-5.74l-13.97-18.22-12.78,17.94c-3.58,4.94-7.75,5.97-10.63,5.97s-5.5-.96-8.11-2.84c-.07-.05-.14-.1-.2-.15-6.28-4.85-7.37-12.13-2.77-18.55l17.47-24.61-13.79-17.99c-3.13-3.94-3.42-7.58-3.1-9.94,.31-2.35,1.54-5.76,5.55-8.74,2.66-2.12,5.48-3.19,8.4-3.19,2.74,0,6.75,.97,10.25,5.57l10.2,13.27,9.96-13.2c3.48-4.76,7.56-5.76,10.38-5.76s5.78,1.07,8.5,3.19c6.3,4.78,7.33,12.1,2.55,18.61-.02,.03-14.57,19.17-14.57,19.17,0,0,17.9,23.36,17.94,23.41,4.64,6.35,3.73,13.61-2.31,18.5-.04,.03-.07,.06-.11,.09-2.72,2.12-5.58,3.19-8.5,3.19Z"/>
          <path d="M359.05,73.58c1.22,0,2.52,.54,3.89,1.61,3.08,2.33,3.45,5.08,1.12,8.25l-17.96,23.63,21.32,27.82c2.28,3.12,1.96,5.87-.98,8.25-1.38,1.07-2.67,1.61-3.89,1.61-1.59,0-3.04-.91-4.36-2.73l-20.2-26.35-18.66,26.21c-1.36,1.88-2.87,2.82-4.52,2.82-1.17,0-2.41-.47-3.73-1.42-3.08-2.38-3.49-5.13-1.26-8.25l20.69-29.15-17.19-22.44c-2.47-3.07-2.1-5.78,1.12-8.11,1.34-1.09,2.61-1.64,3.82-1.64,1.53,0,2.96,.87,4.29,2.61l16.22,21.11,15.94-21.11c1.32-1.82,2.77-2.73,4.35-2.73m0-15c-3.72,0-10.79,1.15-16.4,8.78l-4,5.29-4.2-5.47c-5.65-7.39-12.57-8.5-16.2-8.5-3.19,0-8,.83-12.96,4.74-6.04,4.52-7.91,9.93-8.42,13.69-.51,3.8-.11,9.56,4.62,15.54l10.38,13.54-14.27,20.1c-6.91,9.68-5.15,21.53,4.3,28.83,.13,.1,.27,.2,.4,.3,3.92,2.82,8.12,4.25,12.5,4.25,3.78,0,10.98-1.17,16.66-9.02,.03-.03,.05-.07,.08-.1l6.89-9.67,7.75,10.11c5.61,7.59,12.64,8.73,16.36,8.73,3.18,0,8.04-.83,13.11-4.78,.07-.06,.15-.11,.22-.17,9.13-7.39,10.63-19.21,3.65-28.76-.07-.09-.13-.18-.2-.27l-14.35-18.73,11.03-14.51c.05-.06,.1-.13,.15-.19,7.19-9.78,5.52-21.71-4.06-29.03-5.04-3.9-9.87-4.72-13.03-4.72h0Z"/>
        </g>
        <g>
          <path class="cls-1" d="M181.85,152.23c-8,0-13.37-5.37-13.37-13.37v-59.13c0-8,5.37-13.37,13.37-13.37,4.61,0,8.35,1.79,10.69,4.83,.85-.47,1.73-.91,2.63-1.31,5.22-2.34,11.18-3.52,17.71-3.52,8,0,13.37,5.37,13.37,13.37s-5.37,13.37-13.37,13.37c-6.36,0-11.25,1.08-14.14,3.11-2.31,1.62-3.37,3.39-3.52,5.88v36.77c0,8-5.37,13.37-13.37,13.37Z"/>
          <path d="M212.88,73.86c3.91,0,5.87,1.96,5.87,5.87s-1.96,5.87-5.87,5.87c-8.06,0-14.21,1.49-18.45,4.47-4.24,2.98-6.48,6.92-6.71,11.81v36.97c0,3.91-1.96,5.87-5.87,5.87s-5.87-1.96-5.87-5.87v-59.13c0-3.91,1.96-5.87,5.87-5.87s5.87,1.96,5.87,5.87v5.45c2.75-3.73,6.26-6.55,10.52-8.46,4.26-1.91,9.14-2.87,14.64-2.87m0-15c-6.86,0-13.23,1.15-18.96,3.41-3.32-2.19-7.43-3.41-12.08-3.41-12.29,0-20.87,8.58-20.87,20.87v59.13c0,12.29,8.58,20.87,20.87,20.87s20.87-8.58,20.87-20.87v-36.26c.08-.07,.19-.16,.34-.26,.41-.29,2.83-1.74,9.82-1.74,12.29,0,20.87-8.58,20.87-20.87s-8.58-20.87-20.87-20.87h0Z"/>
        </g>
        <g>
          <path class="cls-1" d="M120.6,152.23c-9.25,0-16.71-2.13-22.17-6.34-5.76-4.43-9.25-11.06-10.38-19.71-.01-.09-.02-.17-.03-.26-.49-5.08,1.48-8.31,3.21-10.12,1.67-1.74,4.68-3.82,9.59-3.82,7.03,0,12.11,4.63,13.01,11.83,.2,.99,.45,1.5,.57,1.67,.34,.17,1.92,.81,6.2,.81h14.83c4.1,0,5.7-.65,6.1-.85,.2-.39,.84-1.95,.84-5.96s-.66-5.58-.86-5.95c-.38-.2-1.96-.86-6.08-.86h-10.02c-7.75,0-12.97-5.21-12.97-12.96s5.21-12.96,12.97-12.96h14.16c.35-1.1,.72-3.01,.72-6.16s-.39-4.49-.59-5.04c-.55-.21-2-.6-5.05-.6h-12.62c-3.11,0-4.58,.37-5.13,.57-.06,.16-.15,.43-.22,.83-1.1,7.16-6.12,11.61-13.12,11.61-4.87,0-7.87-2.02-9.53-3.72-1.49-1.53-3.89-4.93-3.11-10.54,1.15-8.12,4.53-14.37,10.05-18.61,5.25-4.03,12.34-6.07,21.06-6.07h12.62c10.18,0,18.07,2.73,23.45,8.12,5.39,5.39,8.12,13.28,8.12,23.45,0,6.65-1.33,12.21-3.95,16.61,1.32,1.78,2.43,3.77,3.31,5.96,1.83,4.54,2.72,9.89,2.72,16.34,0,10.61-2.82,18.81-8.38,24.37-5.56,5.56-13.8,8.38-24.5,8.38h-14.83Z"/>
          <path d="M134.65,56.52c8.15,0,14.2,1.97,18.15,5.92,3.95,3.95,5.92,10,5.92,18.15s-2.26,13.71-6.77,17.04c2.99,1.95,5.21,4.73,6.67,8.33,1.45,3.6,2.18,8.11,2.18,13.53,0,8.59-2.06,14.94-6.18,19.06-4.12,4.12-10.52,6.18-19.19,6.18h-14.83c-7.59,0-13.46-1.59-17.6-4.78-4.14-3.19-6.65-8.1-7.51-14.74-.17-1.82,.22-3.23,1.17-4.23,.95-1,2.34-1.5,4.16-1.5,3.34,0,5.21,1.82,5.6,5.46,.61,3.38,1.97,5.7,4.1,6.96,2.12,1.26,5.49,1.89,10.08,1.89h14.83c5.59,0,9.4-1.01,11.42-3.03s3.03-5.78,3.03-11.29-1.01-9.22-3.03-11.25c-2.02-2.04-5.82-3.06-11.42-3.06h-10.02c-3.64,0-5.46-1.82-5.46-5.46s1.82-5.46,5.46-5.46h14.96c2.73,0,4.65-1.23,5.76-3.68,1.11-2.45,1.66-5.78,1.66-9.99,0-5.16-.92-8.64-2.77-10.44-1.84-1.8-5.3-2.7-10.38-2.7h-12.62c-4.08,0-7.09,.54-9.04,1.63-1.95,1.08-3.19,3.1-3.71,6.05-.52,3.56-2.43,5.33-5.73,5.33-1.82,0-3.21-.49-4.16-1.46-.95-.98-1.3-2.4-1.04-4.26,.87-6.12,3.26-10.68,7.19-13.7,3.92-3.01,9.42-4.52,16.49-4.52h12.62m0-15h-12.62c-10.42,0-19.04,2.56-25.63,7.62-4.9,3.77-11.12,10.9-12.91,23.49-.91,6.54,.93,12.52,5.17,16.86,2.66,2.72,7.41,5.97,14.89,5.97,.61,0,1.21-.02,1.8-.07-.26,1.38-.4,2.83-.4,4.33,0,1.84,.21,3.6,.6,5.27-1.5-.32-3.09-.49-4.73-.49-5.89,0-11.22,2.18-15,6.13-3.99,4.17-5.85,9.86-5.27,16.02,.02,.17,.04,.35,.06,.52,1.74,13.31,8.16,20.77,13.24,24.68,6.8,5.24,15.8,7.89,26.75,7.89h14.83c12.76,0,22.78-3.56,29.8-10.57,7.02-7.02,10.57-17,10.57-29.67,0-7.43-1.07-13.69-3.27-19.14-.51-1.26-1.08-2.47-1.7-3.63,1.75-4.28,2.89-9.58,2.89-16.13,0-12.24-3.47-21.91-10.31-28.76-6.85-6.84-16.52-10.31-28.76-10.31h0Z"/>
        </g>
        <g>
          <path class="cls-1" d="M73.99,152.23c-8,0-13.37-5.37-13.37-13.37v-37.6c0-5.54-1.06-7.03-1.11-7.09h0s-1.53-1.07-7.05-1.07h-3.91c-4.81,0-8.98,.53-12.39,1.59-.96,.3-1.56,.58-1.91,.79v43.39c0,8-5.37,13.37-13.37,13.37s-13.37-5.37-13.37-13.37V52.19c0-8,5.37-13.37,13.37-13.37s13.37,5.37,13.37,13.37v16.33c4.24-1.44,9.01-2.17,14.31-2.17h3.91c11.34,0,20.08,3,25.99,8.91,5.91,5.91,8.91,14.65,8.91,25.99v37.6c0,8-5.37,13.37-13.37,13.37Z"/>
          <path d="M20.87,46.32c3.91,0,5.87,1.96,5.87,5.87v29.85c4.94-5.45,12.21-8.18,21.81-8.18h3.91c9.32,0,16.22,2.24,20.69,6.71,4.47,4.47,6.71,11.37,6.71,20.69v37.6c0,3.91-1.96,5.87-5.87,5.87s-5.87-1.96-5.87-5.87v-37.6c0-6.1-1.11-10.24-3.32-12.41-2.21-2.17-6.33-3.25-12.34-3.25h-3.91c-5.59,0-10.46,.64-14.61,1.92-4.15,1.28-6.55,3.3-7.2,6.05v45.29c0,3.91-1.96,5.87-5.87,5.87s-5.87-1.96-5.87-5.87V52.19c0-3.91,1.96-5.87,5.87-5.87m0-15C8.58,31.32,0,39.9,0,52.19v86.67c0,12.29,8.58,20.87,20.87,20.87s20.87-8.58,20.87-20.87v-37.78c2.01-.32,4.28-.48,6.81-.48h3.91c.23,0,.45,0,.65,0,0,.21,0,.42,0,.65v37.6c0,12.29,8.58,20.87,20.87,20.87s20.87-8.58,20.87-20.87v-37.6c0-13.4-3.74-23.93-11.1-31.3-7.37-7.37-17.9-11.1-31.3-11.1h-3.91c-2.35,0-4.62,.12-6.81,.37v-7.04c0-12.29-8.58-20.87-20.87-20.87h0Z"/>
        </g>
      </g>
      <g>
        <path class="cls-1" d="M414.26,193.75c-3.16,0-7.18-1.83-8.96-6.95-.78-2.23-1.14-5.01-1.15-8.75-.02-7.12-1.46-12.85-4.83-19.16-2.77-5.21-6.92-9.73-11.31-14.52-1.17-1.27-2.33-2.54-3.46-3.82-8.06-9.08-16.25-20.36-15.79-35.12,.28-9.25,4.65-17.42,11.69-21.87,3.6-2.28,7.56-3.43,11.76-3.43,.86,0,1.71,.05,2.56,.14-4.19-7.58-6.19-16.53-3.81-25.65,1.89-7.26,6.17-12.97,9.94-18.01,1.05-1.4,2.04-2.73,2.97-4.07,4.11-5.89,5.72-11.37,4.43-15.05-1.3-3.7,.47-7.77,4.05-9.35,.98-.43,2.01-.64,3.02-.64,2.69,0,5.27,1.45,6.61,3.96,5.94,11.07,3.82,23.64,1.96,34.74-1.65,9.81-3.21,19.08,.82,25.41,1.66,2.62,4.46,4.9,7.42,7.31,4.61,3.75,9.83,8.01,12.56,14.89,2.77,6.99,1.75,15.23-2.73,22.03-4.12,6.25-10.57,10.1-17.26,10.29-.21,0-.42,0-.63,0-5.01,0-9.59-1.68-13.64-3.16-1.89-.69-3.81-1.4-5.47-1.79,1.27,3.59,4.49,7.63,9.44,11.82,1.46,1.24,3.22,2.21,5.07,3.25,5.65,3.14,13.39,7.45,13.69,20.65,.27,12.14-5.74,27.58-11.31,33.27-2.32,2.37-4.89,3.57-7.65,3.57Z"/>
        <path d="M415.38,15c9.65,18.01-7.85,43.47,3.07,60.63,5.21,8.19,15.72,11.82,19.33,20.94,3.75,9.47-3.63,21.79-13.23,22.06-.14,0-.28,0-.41,0-7.21,0-14.62-5.26-21.31-5.26-.12,0-.24,0-.37,0-3.36,.1-5.9,3.4-5.36,6.95,1.11,7.21,6.87,13.61,12.51,18.39,7.01,5.94,15.83,5.82,16.11,18.34,.27,11.94-7.32,29.18-11.47,29.18-1.53,0-2.59-2.36-2.61-8.22-.02-8.21-1.72-15.18-5.71-22.67-4.03-7.56-10.24-13.55-15.78-19.79-7.34-8.27-14.28-17.86-13.91-29.92,.2-6.4,3.05-12.51,8.2-15.76,2.52-1.59,5.13-2.27,7.76-2.27,7.07,0,14.19,4.96,19.63,10.37,1.13,1.12,2.47,2.36,3.95,2.36,.35,0,.71-.07,1.08-.23,1.48-.64,2.2-2.45,1.87-4.13-.62-3.13-3.2-4.66-5.51-6.23-10.38-7.1-18.32-20.54-15-33.26,1.97-7.57,7.42-13.39,11.81-19.68s7.93-14.47,5.35-21.82m0-15c-2.02,0-4.08,.41-6.04,1.28-7.17,3.16-10.7,11.31-8.1,18.7,.12,.35,.02,3.22-3.5,8.27-.86,1.23-1.81,2.51-2.82,3.86-3.98,5.32-8.93,11.93-11.2,20.62-1.78,6.84-1.66,14,.31,21.05-2.63,.77-5.16,1.92-7.57,3.44-9.15,5.78-14.82,16.24-15.18,27.98-.53,17.49,9.17,30.74,17.68,40.33,1.19,1.34,2.38,2.64,3.54,3.9,4.06,4.43,7.89,8.61,10.22,12.98,2.79,5.23,3.93,9.77,3.95,15.66,.01,4.59,.51,8.14,1.57,11.18,2.53,7.29,8.83,11.99,16.04,11.99,3.34,0,8.31-1.01,13.02-5.83,7.59-7.76,13.74-25.48,13.45-38.69-.29-12.74-6.28-19.5-11.83-23.51,7.66-1.39,14.71-6.15,19.39-13.25,5.83-8.85,7.11-19.66,3.44-28.92-3.45-8.7-9.74-13.83-14.79-17.95-2.48-2.02-4.82-3.93-5.83-5.52-2.48-3.9-1.16-11.79,.24-20.14,1.96-11.67,4.4-26.19-2.75-39.52-2.69-5.02-7.85-7.91-13.23-7.91h0Z"/>
      </g>
    </g>
  </g>
</svg>