<svg width="64" height="64" viewBox="0 0 64 64" fill="none" xmlns="http://www.w3.org/2000/svg">
<mask id="path-1-inside-1_73_515" fill="white">
<path d="M49.2347 0.3125H14.7653C10.9321 0.3125 7.25603 1.8352 4.54561 4.54561C1.8352 7.25603 0.3125 10.9321 0.3125 14.7653V49.2347C0.3125 53.0679 1.8352 56.744 4.54561 59.4544C7.25603 62.1648 10.9321 63.6875 14.7653 63.6875H49.2347C53.0679 63.6875 56.744 62.1648 59.4544 59.4544C62.1648 56.744 63.6875 53.0679 63.6875 49.2347V14.7653C63.6875 10.9321 62.1648 7.25603 59.4544 4.54561C56.744 1.8352 53.0679 0.3125 49.2347 0.3125ZM21.7398 51.474C21.7499 51.6509 21.7239 51.828 21.6631 51.9945C21.6023 52.1609 21.5082 52.3132 21.3865 52.442C21.2647 52.5707 21.1179 52.6732 20.9551 52.7432C20.7923 52.8131 20.6169 52.849 20.4397 52.8488H14.6548C14.3059 52.8402 13.9743 52.6952 13.7312 52.4448C13.4881 52.1945 13.3529 51.8587 13.3548 51.5098V27.45C13.35 27.2763 13.3801 27.1034 13.4433 26.9415C13.5064 26.7797 13.6014 26.6321 13.7226 26.5076C13.8438 26.383 13.9888 26.2841 14.1489 26.2165C14.309 26.149 14.481 26.1142 14.6548 26.1143H20.4397C20.6135 26.1142 20.7855 26.149 20.9456 26.2165C21.1057 26.2841 21.2507 26.383 21.3719 26.5076C21.4931 26.6321 21.5881 26.7797 21.6512 26.9415C21.7144 27.1034 21.7445 27.2763 21.7398 27.45V51.474ZM17.44 21.054C16.8137 21.0493 16.1944 20.9213 15.6176 20.6773C15.0407 20.4333 14.5176 20.078 14.078 19.6318C13.6385 19.1856 13.2911 18.6572 13.0557 18.0768C12.8204 17.4963 12.7017 16.8752 12.7064 16.2489C12.7111 15.6226 12.8391 15.0033 13.0831 14.4264C13.3271 13.8496 13.6824 13.3264 14.1286 12.8869C14.5748 12.4473 15.1032 12.1 15.6836 11.8646C16.2641 11.6293 16.8852 11.5106 17.5115 11.5153C18.7547 11.5557 19.9328 12.0803 20.7946 12.9773C21.6564 13.8742 22.1335 15.0724 22.1241 16.3162C22.1148 17.56 21.6198 18.751 20.7447 19.6349C19.8695 20.5188 18.6836 21.0257 17.44 21.0475M52.5952 51.435C52.5937 51.7634 52.4648 52.0784 52.2356 52.3136C52.0065 52.5488 51.695 52.6859 51.3667 52.696H45.26C44.9312 52.6859 44.6192 52.5483 44.39 52.3124C44.1607 52.0765 44.0322 51.7607 44.0315 51.4318V40.3038C44.0315 38.643 44.5385 33.079 39.6245 33.079C35.7927 33.079 35.0355 36.979 34.8892 38.7145V51.6852C34.8894 52.0148 34.7612 52.3314 34.5319 52.568C34.3026 52.8046 33.9901 52.9426 33.6607 52.9528H27.736C27.4004 52.9519 27.0788 52.818 26.8418 52.5804C26.6048 52.3428 26.4717 52.0208 26.4717 51.6852V27.333C26.4819 27.0036 26.6199 26.6912 26.8565 26.4618C27.0931 26.2325 27.4097 26.1043 27.7393 26.1045H33.6607C33.9903 26.1043 34.3069 26.2325 34.5435 26.4618C34.7801 26.6912 34.9181 27.0036 34.9283 27.333V29.4292C35.7929 28.1638 36.9866 27.1584 38.3806 26.5215C39.7746 25.8846 41.3161 25.6404 42.8388 25.8153C52.7025 25.8153 52.6667 35.029 52.6667 40.268L52.5952 51.435Z"/>
</mask>
<path d="M49.2347 0.3125H14.7653C10.9321 0.3125 7.25603 1.8352 4.54561 4.54561C1.8352 7.25603 0.3125 10.9321 0.3125 14.7653V49.2347C0.3125 53.0679 1.8352 56.744 4.54561 59.4544C7.25603 62.1648 10.9321 63.6875 14.7653 63.6875H49.2347C53.0679 63.6875 56.744 62.1648 59.4544 59.4544C62.1648 56.744 63.6875 53.0679 63.6875 49.2347V14.7653C63.6875 10.9321 62.1648 7.25603 59.4544 4.54561C56.744 1.8352 53.0679 0.3125 49.2347 0.3125ZM21.7398 51.474C21.7499 51.6509 21.7239 51.828 21.6631 51.9945C21.6023 52.1609 21.5082 52.3132 21.3865 52.442C21.2647 52.5707 21.1179 52.6732 20.9551 52.7432C20.7923 52.8131 20.6169 52.849 20.4397 52.8488H14.6548C14.3059 52.8402 13.9743 52.6952 13.7312 52.4448C13.4881 52.1945 13.3529 51.8587 13.3548 51.5098V27.45C13.35 27.2763 13.3801 27.1034 13.4433 26.9415C13.5064 26.7797 13.6014 26.6321 13.7226 26.5076C13.8438 26.383 13.9888 26.2841 14.1489 26.2165C14.309 26.149 14.481 26.1142 14.6548 26.1143H20.4397C20.6135 26.1142 20.7855 26.149 20.9456 26.2165C21.1057 26.2841 21.2507 26.383 21.3719 26.5076C21.4931 26.6321 21.5881 26.7797 21.6512 26.9415C21.7144 27.1034 21.7445 27.2763 21.7398 27.45V51.474ZM17.44 21.054C16.8137 21.0493 16.1944 20.9213 15.6176 20.6773C15.0407 20.4333 14.5176 20.078 14.078 19.6318C13.6385 19.1856 13.2911 18.6572 13.0557 18.0768C12.8204 17.4963 12.7017 16.8752 12.7064 16.2489C12.7111 15.6226 12.8391 15.0033 13.0831 14.4264C13.3271 13.8496 13.6824 13.3264 14.1286 12.8869C14.5748 12.4473 15.1032 12.1 15.6836 11.8646C16.2641 11.6293 16.8852 11.5106 17.5115 11.5153C18.7547 11.5557 19.9328 12.0803 20.7946 12.9773C21.6564 13.8742 22.1335 15.0724 22.1241 16.3162C22.1148 17.56 21.6198 18.751 20.7447 19.6349C19.8695 20.5188 18.6836 21.0257 17.44 21.0475M52.5952 51.435C52.5937 51.7634 52.4648 52.0784 52.2356 52.3136C52.0065 52.5488 51.695 52.6859 51.3667 52.696H45.26C44.9312 52.6859 44.6192 52.5483 44.39 52.3124C44.1607 52.0765 44.0322 51.7607 44.0315 51.4318V40.3038C44.0315 38.643 44.5385 33.079 39.6245 33.079C35.7927 33.079 35.0355 36.979 34.8892 38.7145V51.6852C34.8894 52.0148 34.7612 52.3314 34.5319 52.568C34.3026 52.8046 33.9901 52.9426 33.6607 52.9528H27.736C27.4004 52.9519 27.0788 52.818 26.8418 52.5804C26.6048 52.3428 26.4717 52.0208 26.4717 51.6852V27.333C26.4819 27.0036 26.6199 26.6912 26.8565 26.4618C27.0931 26.2325 27.4097 26.1043 27.7393 26.1045H33.6607C33.9903 26.1043 34.3069 26.2325 34.5435 26.4618C34.7801 26.6912 34.9181 27.0036 34.9283 27.333V29.4292C35.7929 28.1638 36.9866 27.1584 38.3806 26.5215C39.7746 25.8846 41.3161 25.6404 42.8388 25.8153C52.7025 25.8153 52.6667 35.029 52.6667 40.268L52.5952 51.435Z" fill="#D0FF35"/>
<path d="M14.7653 0.3125V-0.6875V0.3125ZM0.3125 14.7653H-0.6875H0.3125ZM0.3125 49.2347H-0.6875H0.3125ZM21.7398 51.474H20.7398V51.5028L20.7414 51.5315L21.7398 51.474ZM20.4397 52.8488L20.4414 51.8488H20.4397V52.8488ZM14.6548 52.8488L14.6304 53.8485L14.6426 53.8488H14.6548V52.8488ZM13.3548 51.5098L14.3548 51.5149V51.5098H13.3548ZM13.3548 27.45H14.3548V27.4362L14.3544 27.4225L13.3548 27.45ZM14.6548 26.1143L14.6544 27.1143H14.6548V26.1143ZM20.4397 26.1143L20.4397 27.1143L20.4401 27.1143L20.4397 26.1143ZM21.7398 27.45L20.7401 27.4225L20.7398 27.4362V27.45H21.7398ZM17.5115 11.5153L17.544 10.5158L17.5315 10.5154L17.519 10.5153L17.5115 11.5153ZM52.5952 51.435L51.5953 51.4286L51.5953 51.4303L52.5952 51.435ZM51.3667 52.696V53.696H51.3821L51.3975 53.6955L51.3667 52.696ZM45.26 52.696L45.2292 53.6955L45.2446 53.696H45.26V52.696ZM44.0315 51.4318L43.0315 51.4318L43.0315 51.4338L44.0315 51.4318ZM34.8892 38.7145L33.8928 38.6305L33.8892 38.6724V38.7145H34.8892ZM34.8892 51.6852L33.8892 51.6852L33.8892 51.6857L34.8892 51.6852ZM33.6607 52.9528V53.9528H33.6761L33.6915 53.9523L33.6607 52.9528ZM27.736 52.9528L27.7334 53.9528H27.736V52.9528ZM26.4717 51.6852L27.4717 51.6853V51.6852H26.4717ZM26.4717 27.333L25.4722 27.3022L25.4717 27.3176V27.333H26.4717ZM27.7393 26.1045L27.7388 27.1045H27.7393V26.1045ZM33.6607 26.1045L33.6607 27.1045L33.6612 27.1045L33.6607 26.1045ZM34.9283 27.333H35.9283V27.3176L35.9278 27.3022L34.9283 27.333ZM34.9283 29.4292H33.9283V32.6655L35.7539 29.9934L34.9283 29.4292ZM42.8388 25.8153L42.7247 26.8087L42.7815 26.8153H42.8388V25.8153ZM52.6667 40.268L53.6667 40.2744V40.268H52.6667ZM49.2347 -0.6875H14.7653V1.3125H49.2347V-0.6875ZM14.7653 -0.6875C10.6669 -0.6875 6.73646 0.940553 3.83851 3.83851L5.25272 5.25272C7.7756 2.72984 11.1974 1.3125 14.7653 1.3125V-0.6875ZM3.83851 3.83851C0.940553 6.73646 -0.6875 10.6669 -0.6875 14.7653L1.3125 14.7653C1.3125 11.1974 2.72984 7.7756 5.25272 5.25272L3.83851 3.83851ZM-0.6875 14.7653V49.2347H1.3125V14.7653H-0.6875ZM-0.6875 49.2347C-0.6875 53.3331 0.940553 57.2635 3.83851 60.1615L5.25272 58.7473C2.72984 56.2244 1.3125 52.8026 1.3125 49.2347H-0.6875ZM3.83851 60.1615C6.73646 63.0594 10.6669 64.6875 14.7653 64.6875V62.6875C11.1974 62.6875 7.7756 61.2702 5.25272 58.7473L3.83851 60.1615ZM14.7653 64.6875H49.2347V62.6875H14.7653V64.6875ZM49.2347 64.6875C53.3331 64.6875 57.2635 63.0594 60.1615 60.1615L58.7473 58.7473C56.2244 61.2702 52.8026 62.6875 49.2347 62.6875V64.6875ZM60.1615 60.1615C63.0594 57.2635 64.6875 53.3331 64.6875 49.2347H62.6875C62.6875 52.8026 61.2702 56.2244 58.7473 58.7473L60.1615 60.1615ZM64.6875 49.2347V14.7653H62.6875V49.2347H64.6875ZM64.6875 14.7653C64.6875 10.6669 63.0594 6.73646 60.1615 3.83851L58.7473 5.25272C61.2702 7.7756 62.6875 11.1974 62.6875 14.7653H64.6875ZM60.1615 3.83851C57.2635 0.940553 53.3331 -0.6875 49.2347 -0.6875V1.3125C52.8026 1.3125 56.2244 2.72984 58.7473 5.25272L60.1615 3.83851ZM20.7414 51.5315C20.7438 51.5723 20.7377 51.6132 20.7237 51.6516L22.6025 52.3373C22.71 52.0428 22.7561 51.7295 22.7381 51.4165L20.7414 51.5315ZM20.7237 51.6516C20.7097 51.69 20.688 51.7252 20.6599 51.7549L22.113 53.129C22.3284 52.9012 22.495 52.6318 22.6025 52.3373L20.7237 51.6516ZM20.6599 51.7549C20.6318 51.7846 20.5979 51.8082 20.5603 51.8244L21.3499 53.6619C21.638 53.5382 21.8977 53.3568 22.113 53.129L20.6599 51.7549ZM20.5603 51.8244C20.5228 51.8405 20.4823 51.8488 20.4414 51.8488L20.4381 53.8488C20.7516 53.8493 21.0619 53.7857 21.3499 53.6619L20.5603 51.8244ZM20.4397 51.8488H14.6548V53.8488H20.4397V51.8488ZM14.6791 51.8491C14.5921 51.8469 14.5093 51.8107 14.4487 51.7483L13.0137 53.1414C13.4392 53.5797 14.0197 53.8336 14.6304 53.8485L14.6791 51.8491ZM14.4487 51.7483C14.388 51.6858 14.3543 51.602 14.3547 51.5149L12.3548 51.5046C12.3516 52.1154 12.5882 52.7031 13.0137 53.1414L14.4487 51.7483ZM14.3548 51.5098V27.45H12.3548V51.5098H14.3548ZM14.3544 27.4225C14.3533 27.3824 14.3602 27.3425 14.3748 27.3052L12.5117 26.5779C12.3999 26.8643 12.3467 27.1702 12.3551 27.4775L14.3544 27.4225ZM14.3748 27.3052C14.3894 27.2678 14.4113 27.2338 14.4393 27.205L13.006 25.8101C12.7916 26.0304 12.6235 26.2915 12.5117 26.5779L14.3748 27.3052ZM14.4393 27.205C14.4672 27.1763 14.5007 27.1534 14.5376 27.1379L13.7601 25.2952C13.4768 25.4147 13.2204 25.5898 13.006 25.8101L14.4393 27.205ZM14.5376 27.1379C14.5746 27.1223 14.6143 27.1142 14.6544 27.1143L14.6551 25.1143C14.3477 25.1141 14.0433 25.1757 13.7601 25.2952L14.5376 27.1379ZM14.6548 27.1143H20.4397V25.1143H14.6548V27.1143ZM20.4401 27.1143C20.4802 27.1142 20.5199 27.1223 20.5569 27.1379L21.3344 25.2952C21.0512 25.1757 20.7468 25.1141 20.4394 25.1143L20.4401 27.1143ZM20.5569 27.1379C20.5938 27.1534 20.6273 27.1763 20.6552 27.205L22.0885 25.8101C21.8741 25.5898 21.6177 25.4147 21.3344 25.2952L20.5569 27.1379ZM20.6552 27.205C20.6832 27.2338 20.7051 27.2678 20.7197 27.3052L22.5828 26.5779C22.471 26.2915 22.3029 26.0304 22.0885 25.8101L20.6552 27.205ZM20.7197 27.3052C20.7343 27.3425 20.7412 27.3824 20.7401 27.4225L22.7394 27.4775C22.7478 27.1702 22.6946 26.8643 22.5828 26.5779L20.7197 27.3052ZM20.7398 27.45V51.474H22.7398V27.45H20.7398ZM17.4475 20.054C16.9525 20.0503 16.4631 19.9491 16.0072 19.7563L15.228 21.5983C15.9258 21.8934 16.6749 22.0483 17.4325 22.054L17.4475 20.054ZM16.0072 19.7563C15.5513 19.5634 15.1378 19.2827 14.7904 18.93L13.3656 20.3336C13.8973 20.8733 14.5302 21.3031 15.228 21.5983L16.0072 19.7563ZM14.7904 18.93C14.443 18.5774 14.1685 18.1598 13.9825 17.701L12.129 18.4525C12.4137 19.1546 12.8339 19.7938 13.3656 20.3336L14.7904 18.93ZM13.9825 17.701C13.7965 17.2423 13.7026 16.7514 13.7063 16.2564L11.7064 16.2414C11.7007 16.999 11.8443 17.7504 12.129 18.4525L13.9825 17.701ZM13.7063 16.2564C13.7101 15.7614 13.8112 15.2719 14.0041 14.816L12.1621 14.0368C11.8669 14.7346 11.7121 15.4837 11.7064 16.2414L13.7063 16.2564ZM14.0041 14.816C14.1969 14.3601 14.4777 13.9467 14.8304 13.5993L13.4268 12.1745C12.887 12.7062 12.4573 13.339 12.1621 14.0368L14.0041 14.816ZM14.8304 13.5993C15.183 13.2519 15.6006 12.9773 16.0594 12.7913L15.3079 10.9379C14.6057 11.2226 13.9665 11.6428 13.4268 12.1745L14.8304 13.5993ZM16.0594 12.7913C16.5181 12.6053 17.009 12.5115 17.504 12.5152L17.519 10.5153C16.7614 10.5096 16.01 10.6532 15.3079 10.9379L16.0594 12.7913ZM17.479 12.5147C18.4614 12.5467 19.3925 12.9613 20.0735 13.6701L21.5157 12.2845C20.4732 11.1994 19.0479 10.5647 17.544 10.5158L17.479 12.5147ZM20.0735 13.6701C20.7545 14.3789 21.1315 15.3258 21.1242 16.3087L23.1241 16.3237C23.1354 14.8191 22.5582 13.3695 21.5157 12.2845L20.0735 13.6701ZM21.1242 16.3087C21.1168 17.2917 20.7256 18.2328 20.034 18.9313L21.4553 20.3384C22.514 19.2691 23.1128 17.8284 23.1241 16.3237L21.1242 16.3087ZM20.034 18.9313C19.3425 19.6298 18.4053 20.0304 17.4225 20.0477L17.4575 22.0473C18.962 22.021 20.3966 21.4077 21.4553 20.3384L20.034 18.9313ZM51.5953 51.4303C51.5949 51.4997 51.5677 51.5661 51.5194 51.6158L52.9519 53.0114C53.3619 52.5906 53.5925 52.0271 53.5952 51.4397L51.5953 51.4303ZM51.5194 51.6158C51.471 51.6654 51.4053 51.6943 51.336 51.6965L51.3975 53.6955C51.9847 53.6775 52.542 53.4322 52.9519 53.0114L51.5194 51.6158ZM51.3667 51.696H45.26V53.696H51.3667V51.696ZM45.2908 51.6965C45.2214 51.6943 45.1555 51.6653 45.1072 51.6155L43.6728 53.0093C44.0829 53.4313 44.641 53.6774 45.2292 53.6955L45.2908 51.6965ZM45.1072 51.6155C45.0588 51.5657 45.0316 51.4991 45.0315 51.4297L43.0315 51.4338C43.0327 52.0223 43.2627 52.5873 43.6728 53.0093L45.1072 51.6155ZM45.0315 51.4318V40.3038H43.0315V51.4318H45.0315ZM45.0315 40.3038C45.0315 39.5755 45.1707 37.5591 44.6273 35.7769C44.3481 34.8613 43.8686 33.9227 43.0342 33.2127C42.1844 32.4896 41.0547 32.079 39.6245 32.079V34.079C40.6513 34.079 41.301 34.3639 41.7381 34.7359C42.1908 35.1211 42.5059 35.6773 42.7142 36.3603C43.1458 37.7753 43.0315 39.3713 43.0315 40.3038H45.0315ZM39.6245 32.079C37.2825 32.079 35.8363 33.3093 35.0083 34.7468C34.2131 36.1272 33.9704 37.7089 33.8928 38.6305L35.8857 38.7985C35.9543 37.9846 36.1634 36.7485 36.7413 35.7451C37.2864 34.7987 38.1347 34.079 39.6245 34.079V32.079ZM33.8892 38.7145V51.6852H35.8892V38.7145H33.8892ZM33.8892 51.6857C33.8893 51.7553 33.8622 51.8221 33.8138 51.872L35.25 53.264C35.6602 52.8407 35.8895 52.2743 35.8892 51.6848L33.8892 51.6857ZM33.8138 51.872C33.7654 51.922 33.6995 51.9511 33.63 51.9532L33.6915 53.9523C34.2807 53.9341 34.8397 53.6873 35.25 53.264L33.8138 51.872ZM33.6607 51.9528H27.736V53.9528H33.6607V51.9528ZM27.7386 51.9528C27.6677 51.9526 27.5999 51.9243 27.5499 51.8742L26.1338 53.2866C26.5578 53.7116 27.1331 53.9512 27.7334 53.9527L27.7386 51.9528ZM27.5499 51.8742C27.4998 51.824 27.4717 51.7561 27.4717 51.6853L25.4717 51.6852C25.4717 52.2856 25.7098 52.8615 26.1338 53.2866L27.5499 51.8742ZM27.4717 51.6852V27.333H25.4717V51.6852H27.4717ZM27.4713 27.3638C27.4734 27.2943 27.5025 27.2283 27.5525 27.1799L26.1605 25.7438C25.7372 26.154 25.4904 26.713 25.4722 27.3022L27.4713 27.3638ZM27.5525 27.1799C27.6024 27.1315 27.6692 27.1045 27.7388 27.1045L27.7397 25.1045C27.1502 25.1042 26.5838 25.3335 26.1605 25.7438L27.5525 27.1799ZM27.7393 27.1045H33.6607V25.1045H27.7393V27.1045ZM33.6612 27.1045C33.7308 27.1045 33.7976 27.1315 33.8475 27.1799L35.2395 25.7438C34.8162 25.3335 34.2498 25.1042 33.6603 25.1045L33.6612 27.1045ZM33.8475 27.1799C33.8975 27.2283 33.9266 27.2943 33.9287 27.3638L35.9278 27.3022C35.9096 26.713 35.6628 26.154 35.2395 25.7438L33.8475 27.1799ZM33.9283 27.333V29.4292H35.9283V27.333H33.9283ZM35.7539 29.9934C36.5158 28.8782 37.5677 27.9923 38.7961 27.4311L37.9651 25.6119C36.4054 26.3245 35.0699 27.4493 34.1026 28.8651L35.7539 29.9934ZM38.7961 27.4311C40.0246 26.8698 41.3829 26.6546 42.7247 26.8087L42.9528 24.8218C41.2493 24.6262 39.5247 24.8994 37.9651 25.6119L38.7961 27.4311ZM42.8388 26.8153C45.1451 26.8153 46.7853 27.3518 47.9714 28.1624C49.1592 28.9741 49.9716 30.1154 50.5276 31.4593C51.6621 34.2012 51.6667 37.6052 51.6667 40.268H53.6667C53.6667 37.6918 53.6893 33.8694 52.3757 30.6947C51.7077 29.0803 50.6796 27.5907 49.0999 26.5111C47.5185 25.4304 45.4643 24.8153 42.8388 24.8153V26.8153ZM51.6668 40.2616L51.5953 51.4286L53.5952 51.4414L53.6667 40.2744L51.6668 40.2616Z" fill="black" mask="url(#path-1-inside-1_73_515)"/>
</svg>
