<svg width="364" height="513" viewBox="0 0 364 513" fill="none" xmlns="http://www.w3.org/2000/svg">
<mask id="path-1-outside-1_74_517" maskUnits="userSpaceOnUse" x="0" y="25" width="363" height="433" fill="black">
<rect fill="white" y="25" width="363" height="433"/>
<path d="M32.2455 97C30.499 97 29.122 95.8916 28.1144 93.6749L3.22675 34.7306C2.72295 33.555 2.5886 32.5138 2.82371 31.607C3.05881 30.6666 3.8313 29.8941 5.14118 29.2895C7.89528 27.9125 9.8433 28.6178 10.9852 31.4055L34.5126 87.1256H31.5906L54.5134 31.4055C55.6218 28.6514 57.5698 27.9461 60.3575 29.2895C61.533 29.8941 62.2551 30.6666 62.5238 31.607C62.8261 32.5138 62.7421 33.555 62.2719 34.7306L37.1827 93.6749C36.1416 95.8916 34.6302 97 32.6486 97H32.2455ZM79.7615 97C78.3173 97 77.2426 96.6641 76.5372 95.9924C75.8655 95.2871 75.5296 94.2123 75.5296 92.7681V33.0176C75.5296 31.5398 75.8655 30.4651 76.5372 29.7933C77.2426 29.1216 78.3173 28.7857 79.7615 28.7857C81.2394 28.7857 82.3141 29.1216 82.9859 29.7933C83.6576 30.4651 83.9935 31.5398 83.9935 33.0176V92.7681C83.9935 94.2123 83.6576 95.2871 82.9859 95.9924C82.3141 96.6641 81.2394 97 79.7615 97ZM122.029 97C116.286 97 111.802 95.8413 108.578 93.5238C105.387 91.2063 103.389 87.6294 102.583 82.7929C102.448 81.3151 102.751 80.2067 103.49 79.4678C104.229 78.7289 105.303 78.3595 106.714 78.3595C108.125 78.3595 109.149 78.6953 109.787 79.3671C110.459 80.0388 110.912 81.08 111.147 82.4906C111.651 84.8081 112.726 86.4034 114.372 87.2767C116.051 88.1164 118.604 88.5362 122.029 88.5362H136.539C140.871 88.5362 143.81 87.7637 145.355 86.2187C146.934 84.6402 147.723 81.7181 147.723 77.4526C147.723 73.12 146.917 70.1644 145.305 68.5858C143.693 66.9736 140.771 66.1676 136.539 66.1676H124.045C117.697 66.1676 112.978 64.6226 109.888 61.5326C106.832 58.4091 105.303 53.6734 105.303 47.3255C105.303 41.0112 106.815 36.3259 109.838 33.2695C112.894 30.2132 117.596 28.685 123.944 28.685H135.934C141.275 28.685 145.456 29.7765 148.479 31.9597C151.535 34.1428 153.466 37.4846 154.273 41.9852C154.474 43.4295 154.205 44.5378 153.466 45.3103C152.728 46.0492 151.619 46.4187 150.141 46.4187C148.798 46.4187 147.79 46.066 147.119 45.3607C146.447 44.6554 146.01 43.631 145.809 42.2875C145.271 40.3059 144.247 38.9625 142.736 38.2571C141.224 37.5182 138.957 37.1488 135.934 37.1488H123.944C119.913 37.1488 117.21 37.8709 115.833 39.3151C114.456 40.7257 113.767 43.3959 113.767 47.3255C113.767 51.2887 114.472 54.0092 115.883 55.487C117.294 56.9648 120.014 57.7037 124.045 57.7037H136.539C143.155 57.7037 148.076 59.3159 151.3 62.5402C154.558 65.7645 156.187 70.7353 156.187 77.4526C156.187 84.1364 154.575 89.0736 151.35 92.2643C148.126 95.4214 143.189 97 136.539 97H122.029ZM196.781 97C189.09 97 183.397 95.1695 179.703 91.5086C176.042 87.8141 174.211 82.1212 174.211 74.4298V32.9169C174.211 31.5062 174.564 30.4483 175.269 29.743C175.974 29.0376 177.032 28.685 178.443 28.685C179.854 28.685 180.912 29.0376 181.617 29.743C182.322 30.4483 182.675 31.5062 182.675 32.9169V74.4298C182.675 78.0236 183.095 80.8449 183.934 82.8937C184.808 84.9424 186.269 86.4034 188.317 87.2767C190.366 88.1164 193.188 88.5362 196.781 88.5362H208.872C212.466 88.5362 215.287 88.1164 217.336 87.2767C219.385 86.4034 220.829 84.9424 221.669 82.8937C222.542 80.8449 222.979 78.0236 222.979 74.4298V32.9169C222.979 31.5062 223.331 30.4483 224.037 29.743C224.742 29.0376 225.8 28.685 227.211 28.685C228.621 28.685 229.679 29.0376 230.385 29.743C231.09 30.4483 231.443 31.5062 231.443 32.9169V74.4298C231.443 82.1212 229.612 87.8141 225.951 91.5086C222.29 95.1695 216.597 97 208.872 97H196.781ZM248.635 96.597C245.948 95.5558 245.142 93.7085 246.216 91.0552L270.197 32.01C271.205 29.7933 272.783 28.685 274.933 28.685H275.134C277.318 28.7857 278.795 29.8941 279.568 32.01L303.952 91.0552C305.026 93.7085 304.254 95.5558 301.634 96.597C298.981 97.6381 297.134 96.8657 296.092 94.2795L290.651 81.08H259.265L254.076 94.2795C253.035 96.8992 251.221 97.6717 248.635 96.597ZM262.59 72.6162H287.175L274.631 42.086L262.59 72.6162ZM323.198 97C320.377 97 318.966 95.5894 318.966 92.7681V32.9169C318.966 30.0956 320.377 28.685 323.198 28.685C326.02 28.685 327.43 30.0956 327.43 32.9169V88.5362H355.341C358.162 88.5362 359.573 89.9468 359.573 92.7681C359.573 95.5894 358.162 97 355.341 97H323.198ZM255.328 216C247.637 216 241.944 214.17 238.249 210.509C234.588 206.814 232.758 201.121 232.758 193.43V151.917C232.758 150.506 233.111 149.448 233.816 148.743C234.521 148.038 235.579 147.685 236.99 147.685C238.401 147.685 239.458 148.038 240.164 148.743C240.869 149.448 241.222 150.506 241.222 151.917V193.43C241.222 197.024 241.642 199.845 242.481 201.894C243.355 203.942 244.816 205.403 246.864 206.277C248.913 207.116 251.734 207.536 255.328 207.536H267.419C271.013 207.536 273.834 207.116 275.883 206.277C277.932 205.403 279.376 203.942 280.216 201.894C281.089 199.845 281.526 197.024 281.526 193.43V151.917C281.526 150.506 281.878 149.448 282.584 148.743C283.289 148.038 284.347 147.685 285.758 147.685C287.168 147.685 288.226 148.038 288.931 148.743C289.637 149.448 289.989 150.506 289.989 151.917V193.43C289.989 201.121 288.159 206.814 284.498 210.509C280.837 214.17 275.144 216 267.419 216H255.328ZM308.592 215.093C306.342 213.548 306.006 211.567 307.585 209.148L326.024 181.943L306.577 154.537C305.066 152.32 305.435 150.338 307.685 148.592C310.003 147.013 311.951 147.383 313.529 149.7L331.565 174.991L349.702 149.7C351.449 147.45 353.397 147.148 355.546 148.793C357.83 150.473 358.166 152.421 356.554 154.637L336.704 182.246L355.748 209.048C357.326 211.365 356.957 213.38 354.639 215.093C352.322 216.672 350.374 216.302 348.795 213.985L331.263 189.299L314.537 214.086C312.992 216.269 311.01 216.605 308.592 215.093ZM179.559 334.597C176.872 333.556 176.066 331.709 177.141 329.055L201.122 270.01C202.129 267.793 203.708 266.685 205.857 266.685H206.059C208.242 266.786 209.72 267.894 210.492 270.01L234.876 329.055C235.951 331.709 235.179 333.556 232.559 334.597C229.905 335.638 228.058 334.866 227.017 332.279L221.576 319.08H190.189L185 332.279C183.959 334.899 182.145 335.672 179.559 334.597ZM193.514 310.616H218.1L205.555 280.086L193.514 310.616ZM254.123 335C251.302 335 249.891 333.589 249.891 330.768V270.917C249.891 268.096 251.302 266.685 254.123 266.685H277.701C283.847 266.685 288.549 268.331 291.807 271.622C295.099 274.88 296.744 279.582 296.744 285.729V288.751C296.744 294.898 295.099 299.617 291.807 302.908C288.549 306.166 283.847 307.795 277.701 307.795H258.355V330.768C258.355 333.589 256.944 335 254.123 335ZM258.355 299.331H277.701C281.53 299.331 284.25 298.525 285.862 296.913C287.474 295.301 288.28 292.58 288.28 288.751V285.729C288.28 281.933 287.474 279.23 285.862 277.617C284.25 275.972 281.53 275.149 277.701 275.149H258.355V299.331ZM315.917 335C313.096 335 311.685 333.589 311.685 330.768V270.917C311.685 268.096 313.096 266.685 315.917 266.685H339.495C345.641 266.685 350.343 268.331 353.601 271.622C356.892 274.88 358.538 279.582 358.538 285.729V288.751C358.538 294.898 356.892 299.617 353.601 302.908C350.343 306.166 345.641 307.795 339.495 307.795H320.149V330.768C320.149 333.589 318.738 335 315.917 335ZM320.149 299.331H339.495C343.324 299.331 346.044 298.525 347.656 296.913C349.268 295.301 350.074 292.58 350.074 288.751V285.729C350.074 281.933 349.268 279.23 347.656 277.617C346.044 275.972 343.324 275.149 339.495 275.149H320.149V299.331ZM30.9561 454C28.1348 454 26.7242 452.589 26.7242 449.768V389.917C26.7242 387.096 28.1348 385.685 30.9561 385.685H57.2544C62.5946 385.685 66.6922 387.096 69.5471 389.917C72.4355 392.738 73.8797 396.769 73.8797 402.008V404.729C73.8797 409.263 72.4523 412.773 69.5974 415.258C74.9377 418.247 77.6078 423.705 77.6078 431.631V435.057C77.6078 441.237 75.9621 445.939 72.6706 449.164C69.4127 452.388 64.7106 454 58.5643 454H30.9561ZM35.188 445.536H58.5643C62.3595 445.536 65.0632 444.73 66.6754 443.118C68.3211 441.472 69.144 438.785 69.144 435.057V431.631C69.144 427.903 68.3547 425.25 66.7762 423.671C65.1976 422.059 62.4603 421.253 58.5643 421.253H35.188V445.536ZM35.188 412.789H59.068C61.5199 412.789 63.1824 412.034 64.0557 410.522C64.9625 409.011 65.4159 407.08 65.4159 404.729V402.008C65.4159 399.086 64.8113 397.054 63.6022 395.912C62.3931 394.737 60.2772 394.149 57.2544 394.149H35.188V412.789ZM138.452 454.202C137.343 454.907 136.285 455.125 135.278 454.856C134.27 454.588 133.414 453.899 132.708 452.791L117.091 426.795H102.984V449.768C102.984 452.589 101.574 454 98.7524 454C95.9311 454 94.5205 452.589 94.5205 449.768V389.917C94.5205 387.096 95.9311 385.685 98.7524 385.685H122.33C128.476 385.685 133.179 387.331 136.436 390.622C139.728 393.88 141.374 398.582 141.374 404.729V407.751C141.374 413.092 140.131 417.357 137.646 420.548C135.16 423.705 131.566 425.67 126.864 426.442L140.064 448.458C141.34 450.809 140.803 452.724 138.452 454.202ZM102.984 418.331H122.33C126.159 418.331 128.88 417.525 130.492 415.913C132.104 414.301 132.91 411.58 132.91 407.751V404.729C132.91 400.933 132.104 398.23 130.492 396.617C128.88 394.972 126.159 394.149 122.33 394.149H102.984V418.331ZM154.271 453.597C151.584 452.556 150.778 450.709 151.853 448.055L175.833 389.01C176.841 386.793 178.42 385.685 180.569 385.685H180.771C182.954 385.786 184.432 386.894 185.204 389.01L209.588 448.055C210.663 450.709 209.89 452.556 207.27 453.597C204.617 454.638 202.77 453.866 201.729 451.279L196.288 438.08H164.901L159.712 451.279C158.671 453.899 156.857 454.672 154.271 453.597ZM168.226 429.616H192.811L180.267 399.086L168.226 429.616ZM228.835 454C226.013 454 224.603 452.589 224.603 449.768V389.917C224.603 387.096 226.013 385.685 228.835 385.685C230.279 385.685 231.689 386.525 233.067 388.204L273.572 440.397H271.456V389.917C271.456 387.096 272.867 385.685 275.688 385.685C278.509 385.685 279.92 387.096 279.92 389.917V449.768C279.92 452.589 278.509 454 275.688 454C274.176 454 272.766 453.16 271.456 451.481L230.951 399.288H233.067V449.768C233.067 452.589 231.656 454 228.835 454ZM305.093 454C302.272 454 300.861 452.589 300.861 449.768V389.917C300.861 387.096 302.272 385.685 305.093 385.685H329.376C338.142 385.685 344.591 387.767 348.722 391.932C352.887 396.063 354.969 402.512 354.969 411.278V428.407C354.969 437.173 352.904 443.639 348.772 447.803C344.675 451.934 338.209 454 329.376 454H305.093ZM309.325 445.536H329.376C333.675 445.536 337.068 445.016 339.553 443.974C342.072 442.9 343.852 441.12 344.893 438.634C345.968 436.115 346.505 432.706 346.505 428.407V411.278C346.505 407.012 345.968 403.637 344.893 401.152C343.852 398.633 342.072 396.836 339.553 395.761C337.068 394.686 333.675 394.149 329.376 394.149H309.325V445.536Z"/>
</mask>
<path d="M32.2455 97C30.499 97 29.122 95.8916 28.1144 93.6749L3.22675 34.7306C2.72295 33.555 2.5886 32.5138 2.82371 31.607C3.05881 30.6666 3.8313 29.8941 5.14118 29.2895C7.89528 27.9125 9.8433 28.6178 10.9852 31.4055L34.5126 87.1256H31.5906L54.5134 31.4055C55.6218 28.6514 57.5698 27.9461 60.3575 29.2895C61.533 29.8941 62.2551 30.6666 62.5238 31.607C62.8261 32.5138 62.7421 33.555 62.2719 34.7306L37.1827 93.6749C36.1416 95.8916 34.6302 97 32.6486 97H32.2455ZM79.7615 97C78.3173 97 77.2426 96.6641 76.5372 95.9924C75.8655 95.2871 75.5296 94.2123 75.5296 92.7681V33.0176C75.5296 31.5398 75.8655 30.4651 76.5372 29.7933C77.2426 29.1216 78.3173 28.7857 79.7615 28.7857C81.2394 28.7857 82.3141 29.1216 82.9859 29.7933C83.6576 30.4651 83.9935 31.5398 83.9935 33.0176V92.7681C83.9935 94.2123 83.6576 95.2871 82.9859 95.9924C82.3141 96.6641 81.2394 97 79.7615 97ZM122.029 97C116.286 97 111.802 95.8413 108.578 93.5238C105.387 91.2063 103.389 87.6294 102.583 82.7929C102.448 81.3151 102.751 80.2067 103.49 79.4678C104.229 78.7289 105.303 78.3595 106.714 78.3595C108.125 78.3595 109.149 78.6953 109.787 79.3671C110.459 80.0388 110.912 81.08 111.147 82.4906C111.651 84.8081 112.726 86.4034 114.372 87.2767C116.051 88.1164 118.604 88.5362 122.029 88.5362H136.539C140.871 88.5362 143.81 87.7637 145.355 86.2187C146.934 84.6402 147.723 81.7181 147.723 77.4526C147.723 73.12 146.917 70.1644 145.305 68.5858C143.693 66.9736 140.771 66.1676 136.539 66.1676H124.045C117.697 66.1676 112.978 64.6226 109.888 61.5326C106.832 58.4091 105.303 53.6734 105.303 47.3255C105.303 41.0112 106.815 36.3259 109.838 33.2695C112.894 30.2132 117.596 28.685 123.944 28.685H135.934C141.275 28.685 145.456 29.7765 148.479 31.9597C151.535 34.1428 153.466 37.4846 154.273 41.9852C154.474 43.4295 154.205 44.5378 153.466 45.3103C152.728 46.0492 151.619 46.4187 150.141 46.4187C148.798 46.4187 147.79 46.066 147.119 45.3607C146.447 44.6554 146.01 43.631 145.809 42.2875C145.271 40.3059 144.247 38.9625 142.736 38.2571C141.224 37.5182 138.957 37.1488 135.934 37.1488H123.944C119.913 37.1488 117.21 37.8709 115.833 39.3151C114.456 40.7257 113.767 43.3959 113.767 47.3255C113.767 51.2887 114.472 54.0092 115.883 55.487C117.294 56.9648 120.014 57.7037 124.045 57.7037H136.539C143.155 57.7037 148.076 59.3159 151.3 62.5402C154.558 65.7645 156.187 70.7353 156.187 77.4526C156.187 84.1364 154.575 89.0736 151.35 92.2643C148.126 95.4214 143.189 97 136.539 97H122.029ZM196.781 97C189.09 97 183.397 95.1695 179.703 91.5086C176.042 87.8141 174.211 82.1212 174.211 74.4298V32.9169C174.211 31.5062 174.564 30.4483 175.269 29.743C175.974 29.0376 177.032 28.685 178.443 28.685C179.854 28.685 180.912 29.0376 181.617 29.743C182.322 30.4483 182.675 31.5062 182.675 32.9169V74.4298C182.675 78.0236 183.095 80.8449 183.934 82.8937C184.808 84.9424 186.269 86.4034 188.317 87.2767C190.366 88.1164 193.188 88.5362 196.781 88.5362H208.872C212.466 88.5362 215.287 88.1164 217.336 87.2767C219.385 86.4034 220.829 84.9424 221.669 82.8937C222.542 80.8449 222.979 78.0236 222.979 74.4298V32.9169C222.979 31.5062 223.331 30.4483 224.037 29.743C224.742 29.0376 225.8 28.685 227.211 28.685C228.621 28.685 229.679 29.0376 230.385 29.743C231.09 30.4483 231.443 31.5062 231.443 32.9169V74.4298C231.443 82.1212 229.612 87.8141 225.951 91.5086C222.29 95.1695 216.597 97 208.872 97H196.781ZM248.635 96.597C245.948 95.5558 245.142 93.7085 246.216 91.0552L270.197 32.01C271.205 29.7933 272.783 28.685 274.933 28.685H275.134C277.318 28.7857 278.795 29.8941 279.568 32.01L303.952 91.0552C305.026 93.7085 304.254 95.5558 301.634 96.597C298.981 97.6381 297.134 96.8657 296.092 94.2795L290.651 81.08H259.265L254.076 94.2795C253.035 96.8992 251.221 97.6717 248.635 96.597ZM262.59 72.6162H287.175L274.631 42.086L262.59 72.6162ZM323.198 97C320.377 97 318.966 95.5894 318.966 92.7681V32.9169C318.966 30.0956 320.377 28.685 323.198 28.685C326.02 28.685 327.43 30.0956 327.43 32.9169V88.5362H355.341C358.162 88.5362 359.573 89.9468 359.573 92.7681C359.573 95.5894 358.162 97 355.341 97H323.198ZM255.328 216C247.637 216 241.944 214.17 238.249 210.509C234.588 206.814 232.758 201.121 232.758 193.43V151.917C232.758 150.506 233.111 149.448 233.816 148.743C234.521 148.038 235.579 147.685 236.99 147.685C238.401 147.685 239.458 148.038 240.164 148.743C240.869 149.448 241.222 150.506 241.222 151.917V193.43C241.222 197.024 241.642 199.845 242.481 201.894C243.355 203.942 244.816 205.403 246.864 206.277C248.913 207.116 251.734 207.536 255.328 207.536H267.419C271.013 207.536 273.834 207.116 275.883 206.277C277.932 205.403 279.376 203.942 280.216 201.894C281.089 199.845 281.526 197.024 281.526 193.43V151.917C281.526 150.506 281.878 149.448 282.584 148.743C283.289 148.038 284.347 147.685 285.758 147.685C287.168 147.685 288.226 148.038 288.931 148.743C289.637 149.448 289.989 150.506 289.989 151.917V193.43C289.989 201.121 288.159 206.814 284.498 210.509C280.837 214.17 275.144 216 267.419 216H255.328ZM308.592 215.093C306.342 213.548 306.006 211.567 307.585 209.148L326.024 181.943L306.577 154.537C305.066 152.32 305.435 150.338 307.685 148.592C310.003 147.013 311.951 147.383 313.529 149.7L331.565 174.991L349.702 149.7C351.449 147.45 353.397 147.148 355.546 148.793C357.83 150.473 358.166 152.421 356.554 154.637L336.704 182.246L355.748 209.048C357.326 211.365 356.957 213.38 354.639 215.093C352.322 216.672 350.374 216.302 348.795 213.985L331.263 189.299L314.537 214.086C312.992 216.269 311.01 216.605 308.592 215.093ZM179.559 334.597C176.872 333.556 176.066 331.709 177.141 329.055L201.122 270.01C202.129 267.793 203.708 266.685 205.857 266.685H206.059C208.242 266.786 209.72 267.894 210.492 270.01L234.876 329.055C235.951 331.709 235.179 333.556 232.559 334.597C229.905 335.638 228.058 334.866 227.017 332.279L221.576 319.08H190.189L185 332.279C183.959 334.899 182.145 335.672 179.559 334.597ZM193.514 310.616H218.1L205.555 280.086L193.514 310.616ZM254.123 335C251.302 335 249.891 333.589 249.891 330.768V270.917C249.891 268.096 251.302 266.685 254.123 266.685H277.701C283.847 266.685 288.549 268.331 291.807 271.622C295.099 274.88 296.744 279.582 296.744 285.729V288.751C296.744 294.898 295.099 299.617 291.807 302.908C288.549 306.166 283.847 307.795 277.701 307.795H258.355V330.768C258.355 333.589 256.944 335 254.123 335ZM258.355 299.331H277.701C281.53 299.331 284.25 298.525 285.862 296.913C287.474 295.301 288.28 292.58 288.28 288.751V285.729C288.28 281.933 287.474 279.23 285.862 277.617C284.25 275.972 281.53 275.149 277.701 275.149H258.355V299.331ZM315.917 335C313.096 335 311.685 333.589 311.685 330.768V270.917C311.685 268.096 313.096 266.685 315.917 266.685H339.495C345.641 266.685 350.343 268.331 353.601 271.622C356.892 274.88 358.538 279.582 358.538 285.729V288.751C358.538 294.898 356.892 299.617 353.601 302.908C350.343 306.166 345.641 307.795 339.495 307.795H320.149V330.768C320.149 333.589 318.738 335 315.917 335ZM320.149 299.331H339.495C343.324 299.331 346.044 298.525 347.656 296.913C349.268 295.301 350.074 292.58 350.074 288.751V285.729C350.074 281.933 349.268 279.23 347.656 277.617C346.044 275.972 343.324 275.149 339.495 275.149H320.149V299.331ZM30.9561 454C28.1348 454 26.7242 452.589 26.7242 449.768V389.917C26.7242 387.096 28.1348 385.685 30.9561 385.685H57.2544C62.5946 385.685 66.6922 387.096 69.5471 389.917C72.4355 392.738 73.8797 396.769 73.8797 402.008V404.729C73.8797 409.263 72.4523 412.773 69.5974 415.258C74.9377 418.247 77.6078 423.705 77.6078 431.631V435.057C77.6078 441.237 75.9621 445.939 72.6706 449.164C69.4127 452.388 64.7106 454 58.5643 454H30.9561ZM35.188 445.536H58.5643C62.3595 445.536 65.0632 444.73 66.6754 443.118C68.3211 441.472 69.144 438.785 69.144 435.057V431.631C69.144 427.903 68.3547 425.25 66.7762 423.671C65.1976 422.059 62.4603 421.253 58.5643 421.253H35.188V445.536ZM35.188 412.789H59.068C61.5199 412.789 63.1824 412.034 64.0557 410.522C64.9625 409.011 65.4159 407.08 65.4159 404.729V402.008C65.4159 399.086 64.8113 397.054 63.6022 395.912C62.3931 394.737 60.2772 394.149 57.2544 394.149H35.188V412.789ZM138.452 454.202C137.343 454.907 136.285 455.125 135.278 454.856C134.27 454.588 133.414 453.899 132.708 452.791L117.091 426.795H102.984V449.768C102.984 452.589 101.574 454 98.7524 454C95.9311 454 94.5205 452.589 94.5205 449.768V389.917C94.5205 387.096 95.9311 385.685 98.7524 385.685H122.33C128.476 385.685 133.179 387.331 136.436 390.622C139.728 393.88 141.374 398.582 141.374 404.729V407.751C141.374 413.092 140.131 417.357 137.646 420.548C135.16 423.705 131.566 425.67 126.864 426.442L140.064 448.458C141.34 450.809 140.803 452.724 138.452 454.202ZM102.984 418.331H122.33C126.159 418.331 128.88 417.525 130.492 415.913C132.104 414.301 132.91 411.58 132.91 407.751V404.729C132.91 400.933 132.104 398.23 130.492 396.617C128.88 394.972 126.159 394.149 122.33 394.149H102.984V418.331ZM154.271 453.597C151.584 452.556 150.778 450.709 151.853 448.055L175.833 389.01C176.841 386.793 178.42 385.685 180.569 385.685H180.771C182.954 385.786 184.432 386.894 185.204 389.01L209.588 448.055C210.663 450.709 209.89 452.556 207.27 453.597C204.617 454.638 202.77 453.866 201.729 451.279L196.288 438.08H164.901L159.712 451.279C158.671 453.899 156.857 454.672 154.271 453.597ZM168.226 429.616H192.811L180.267 399.086L168.226 429.616ZM228.835 454C226.013 454 224.603 452.589 224.603 449.768V389.917C224.603 387.096 226.013 385.685 228.835 385.685C230.279 385.685 231.689 386.525 233.067 388.204L273.572 440.397H271.456V389.917C271.456 387.096 272.867 385.685 275.688 385.685C278.509 385.685 279.92 387.096 279.92 389.917V449.768C279.92 452.589 278.509 454 275.688 454C274.176 454 272.766 453.16 271.456 451.481L230.951 399.288H233.067V449.768C233.067 452.589 231.656 454 228.835 454ZM305.093 454C302.272 454 300.861 452.589 300.861 449.768V389.917C300.861 387.096 302.272 385.685 305.093 385.685H329.376C338.142 385.685 344.591 387.767 348.722 391.932C352.887 396.063 354.969 402.512 354.969 411.278V428.407C354.969 437.173 352.904 443.639 348.772 447.803C344.675 451.934 338.209 454 329.376 454H305.093ZM309.325 445.536H329.376C333.675 445.536 337.068 445.016 339.553 443.974C342.072 442.9 343.852 441.12 344.893 438.634C345.968 436.115 346.505 432.706 346.505 428.407V411.278C346.505 407.012 345.968 403.637 344.893 401.152C343.852 398.633 342.072 396.836 339.553 395.761C337.068 394.686 333.675 394.149 329.376 394.149H309.325V445.536Z" fill="#D0FF35"/>
<path d="M28.1144 93.6749L25.6568 94.7126L25.6709 94.7459L25.6858 94.7788L28.1144 93.6749ZM3.22675 34.7306L5.68433 33.6929L5.68154 33.6863L5.67871 33.6797L3.22675 34.7306ZM2.82371 31.607L5.40599 32.2765L5.4089 32.2653L5.41172 32.254L2.82371 31.607ZM5.14118 29.2895L6.25908 31.7117L6.29692 31.6942L6.33419 31.6756L5.14118 29.2895ZM10.9852 31.4055L8.51667 32.4167L8.5221 32.43L8.52768 32.4432L10.9852 31.4055ZM34.5126 87.1256V89.7932H38.5347L36.9702 86.0879L34.5126 87.1256ZM31.5906 87.1256L29.1235 86.1106L27.6085 89.7932H31.5906V87.1256ZM54.5134 31.4055L56.9804 32.4204L56.9843 32.4109L56.9882 32.4014L54.5134 31.4055ZM60.3575 29.2895L61.5775 26.9172L61.5467 26.9014L61.5156 26.8864L60.3575 29.2895ZM62.5238 31.607L59.9588 32.3399L59.9747 32.3956L59.993 32.4506L62.5238 31.607ZM62.2719 34.7306L64.7264 35.7753L64.7379 35.7484L64.7487 35.7213L62.2719 34.7306ZM37.1827 93.6749L39.5973 94.8091L39.6181 94.7647L39.6373 94.7197L37.1827 93.6749ZM32.2455 94.3323C31.9545 94.3323 31.3173 94.2748 30.5429 92.571L25.6858 94.7788C26.9266 97.5085 29.0435 99.6677 32.2455 99.6677V94.3323ZM30.572 92.6373L5.68433 33.6929L0.769169 35.7682L25.6568 94.7126L30.572 92.6373ZM5.67871 33.6797C5.32367 32.8513 5.36506 32.4344 5.40599 32.2765L0.241424 30.9375C-0.187859 32.5933 0.122229 34.2588 0.774783 35.7814L5.67871 33.6797ZM5.41172 32.254C5.39765 32.3103 5.37692 32.2974 5.46572 32.2086C5.57086 32.1035 5.80351 31.9219 6.25908 31.7117L4.02328 26.8674C2.34774 27.6407 0.747502 28.9128 0.2357 30.96L5.41172 32.254ZM6.33419 31.6756C7.37515 31.1551 7.74792 31.2898 7.75959 31.294C7.77666 31.3002 7.85128 31.3277 7.97957 31.4727C8.11945 31.6308 8.31316 31.9199 8.51667 32.4167L13.4538 30.3943C12.7291 28.6251 11.5296 26.9848 9.57595 26.2774C7.63959 25.5763 5.6613 26.0469 3.94817 26.9035L6.33419 31.6756ZM8.52768 32.4432L32.055 88.1632L36.9702 86.0879L13.4428 30.3678L8.52768 32.4432ZM34.5126 84.4579H31.5906V89.7932H34.5126V84.4579ZM34.0576 88.1405L56.9804 32.4204L52.0464 30.3906L29.1235 86.1106L34.0576 88.1405ZM56.9882 32.4014C57.1826 31.9182 57.3688 31.6403 57.5013 31.4903C57.6219 31.3538 57.6932 31.3267 57.7139 31.3192C57.7416 31.3092 58.135 31.1798 59.1993 31.6927L61.5156 26.8864C59.7922 26.0558 57.8178 25.6073 55.8975 26.3026C53.9452 27.0095 52.7505 28.6406 52.0386 30.4095L56.9882 32.4014ZM59.1374 31.6618C59.8967 32.0523 59.9563 32.3311 59.9588 32.3399L65.0888 30.8741C64.5539 29.002 63.1693 27.7358 61.5775 26.9172L59.1374 31.6618ZM59.993 32.4506C60.0389 32.5881 60.1078 32.958 59.795 33.7398L64.7487 35.7213C65.3764 34.1521 65.6133 32.4396 65.0545 30.7634L59.993 32.4506ZM59.8173 33.6858L34.7282 92.6302L39.6373 94.7197L64.7264 35.7753L59.8173 33.6858ZM34.7682 92.5408C34.3808 93.3655 33.9933 93.7957 33.6908 94.0175C33.4197 94.2163 33.1066 94.3323 32.6486 94.3323V99.6677C34.1722 99.6677 35.6055 99.2296 36.8459 98.3199C38.0547 97.4334 38.9435 96.2011 39.5973 94.8091L34.7682 92.5408ZM32.6486 94.3323H32.2455V99.6677H32.6486V94.3323ZM76.5372 95.9924L74.6055 97.8322L74.6504 97.8793L74.6975 97.9242L76.5372 95.9924ZM76.5372 29.7933L74.6975 27.8616L74.6739 27.884L74.6509 27.907L76.5372 29.7933ZM82.9859 29.7933L84.8722 27.907L84.8722 27.907L82.9859 29.7933ZM82.9859 95.9924L84.8722 97.8787L84.8952 97.8557L84.9176 97.8322L82.9859 95.9924ZM79.7615 94.3323C78.6764 94.3323 78.3921 94.075 78.377 94.0607L74.6975 97.9242C76.0931 99.2533 77.9582 99.6677 79.7615 99.6677V94.3323ZM78.469 94.1526C78.4547 94.1376 78.1973 93.8532 78.1973 92.7681H72.862C72.862 94.5714 73.2764 96.4366 74.6055 97.8322L78.469 94.1526ZM78.1973 92.7681V33.0176H72.862V92.7681H78.1973ZM78.1973 33.0176C78.1973 31.8646 78.4698 31.6334 78.4236 31.6796L74.6509 27.907C73.2612 29.2967 72.862 31.2151 72.862 33.0176H78.1973ZM78.377 31.7251C78.3921 31.7107 78.6764 31.4534 79.7615 31.4534V26.1181C77.9582 26.1181 76.0931 26.5325 74.6975 27.8616L78.377 31.7251ZM79.7615 31.4534C80.9146 31.4534 81.1458 31.7259 81.0995 31.6796L84.8722 27.907C83.4825 26.5173 81.5641 26.1181 79.7615 26.1181V31.4534ZM81.0995 31.6796C81.0533 31.6334 81.3258 31.8646 81.3258 33.0176H86.6611C86.6611 31.2151 86.2619 29.2967 84.8722 27.907L81.0995 31.6796ZM81.3258 33.0176V92.7681H86.6611V33.0176H81.3258ZM81.3258 92.7681C81.3258 93.8532 81.0684 94.1376 81.0541 94.1526L84.9176 97.8322C86.2467 96.4366 86.6611 94.5714 86.6611 92.7681H81.3258ZM81.0995 94.1061C81.1458 94.0598 80.9146 94.3323 79.7615 94.3323V99.6677C81.5641 99.6677 83.4825 99.2684 84.8722 97.8787L81.0995 94.1061ZM108.578 93.5238L107.01 95.6822L107.021 95.69L108.578 93.5238ZM102.583 82.7929L99.9261 83.0344L99.9351 83.1334L99.9515 83.2315L102.583 82.7929ZM103.49 79.4678L101.603 77.5815L101.603 77.5815L103.49 79.4678ZM109.787 79.3671L107.853 81.2044L107.877 81.2292L107.901 81.2534L109.787 79.3671ZM111.147 82.4906L108.516 82.9292L108.527 82.9935L108.541 83.0573L111.147 82.4906ZM114.372 87.2767L113.121 89.6332L113.15 89.6483L113.179 89.6627L114.372 87.2767ZM145.355 86.2187L143.469 84.3324L143.469 84.3324L145.355 86.2187ZM145.305 68.5858L143.419 70.4721L143.429 70.482L143.439 70.4919L145.305 68.5858ZM109.888 61.5326L107.981 63.3983L107.991 63.4087L108.002 63.4189L109.888 61.5326ZM109.838 33.2695L107.951 31.3832L107.946 31.3884L107.941 31.3937L109.838 33.2695ZM148.479 31.9597L146.917 34.1223L146.928 34.1304L148.479 31.9597ZM154.273 41.9852L156.915 41.6166L156.907 41.5656L156.898 41.5149L154.273 41.9852ZM153.466 45.3103L155.353 47.1966L155.374 47.1757L155.394 47.1543L153.466 45.3103ZM147.119 45.3607L149.05 43.5209L149.05 43.5209L147.119 45.3607ZM145.809 42.2875L148.447 41.8918L148.424 41.7387L148.383 41.5893L145.809 42.2875ZM142.736 38.2571L141.564 40.6537L141.586 40.6643L141.607 40.6745L142.736 38.2571ZM115.833 39.3151L117.742 41.1786L117.753 41.1673L117.763 41.156L115.833 39.3151ZM115.883 55.487L117.813 53.6451L117.813 53.6451L115.883 55.487ZM151.3 62.5402L149.414 64.4266L149.424 64.4363L151.3 62.5402ZM151.35 92.2643L153.217 94.1704L153.227 94.1605L151.35 92.2643ZM122.029 94.3323C116.606 94.3323 112.744 93.2327 110.135 91.3576L107.021 95.69C110.861 98.4498 115.967 99.6677 122.029 99.6677V94.3323ZM110.146 91.3654C107.652 89.5542 105.935 86.6775 105.214 82.3543L99.9515 83.2315C100.843 88.5812 103.123 92.8584 107.01 95.6822L110.146 91.3654ZM105.24 82.5514C105.193 82.0415 105.235 81.7274 105.282 81.5552C105.324 81.4032 105.367 81.3634 105.376 81.3541L101.603 77.5815C100.099 79.0858 99.7514 81.1126 99.9261 83.0344L105.24 82.5514ZM105.376 81.3541C105.459 81.2707 105.756 81.0271 106.714 81.0271V75.6918C104.85 75.6918 102.998 76.1872 101.603 77.5815L105.376 81.3541ZM106.714 81.0271C107.772 81.0271 107.93 81.2857 107.853 81.2044L111.721 77.5297C110.368 76.105 108.478 75.6918 106.714 75.6918V81.0271ZM107.901 81.2534C108.026 81.3787 108.329 81.8054 108.516 82.9292L113.779 82.0521C113.496 80.3546 112.892 78.6988 111.673 77.4807L107.901 81.2534ZM108.541 83.0573C109.162 85.9159 110.601 88.2958 113.121 89.6332L115.622 84.9202C114.851 84.511 114.14 83.7003 113.754 81.9239L108.541 83.0573ZM113.179 89.6627C115.42 90.7836 118.477 91.2038 122.029 91.2038V85.8685C118.73 85.8685 116.682 85.4491 115.565 84.8907L113.179 89.6627ZM122.029 91.2038H136.539V85.8685H122.029V91.2038ZM136.539 91.2038C140.973 91.2038 144.889 90.4581 147.242 88.105L143.469 84.3324C142.732 85.0693 140.77 85.8685 136.539 85.8685V91.2038ZM147.242 88.105C149.616 85.7308 150.391 81.8537 150.391 77.4526H145.055C145.055 81.5825 144.252 83.5495 143.469 84.3324L147.242 88.105ZM150.391 77.4526C150.391 72.9889 149.601 69.059 147.171 66.6797L143.439 70.4919C144.233 71.2697 145.055 73.251 145.055 77.4526H150.391ZM147.191 66.6995C144.793 64.3017 140.933 63.4999 136.539 63.4999V68.8352C140.608 68.8352 142.592 69.6456 143.419 70.4721L147.191 66.6995ZM136.539 63.4999H124.045V68.8352H136.539V63.4999ZM124.045 63.4999C118.084 63.4999 114.176 62.0476 111.774 59.6463L108.002 63.4189C111.78 67.1976 117.31 68.8352 124.045 68.8352V63.4999ZM111.795 59.6669C109.409 57.2289 107.971 53.2907 107.971 47.3255H102.636C102.636 54.056 104.254 59.5892 107.981 63.3983L111.795 59.6669ZM107.971 47.3255C107.971 41.386 109.396 37.5098 111.734 35.1454L107.941 31.3937C104.234 35.142 102.636 40.6365 102.636 47.3255H107.971ZM111.724 35.1559C114.087 32.7929 117.973 31.3526 123.944 31.3526V26.0173C117.219 26.0173 111.701 27.6334 107.951 31.3832L111.724 35.1559ZM123.944 31.3526H135.934V26.0173H123.944V31.3526ZM135.934 31.3526C140.947 31.3526 144.507 32.3819 146.917 34.1223L150.041 29.7971C146.405 27.1712 141.602 26.0173 135.934 26.0173V31.3526ZM146.928 34.1304C149.3 35.8242 150.935 38.4823 151.647 42.4556L156.898 41.5149C155.998 36.487 153.771 32.4614 150.029 29.7889L146.928 34.1304ZM151.63 42.3539C151.697 42.8321 151.666 43.1202 151.63 43.2712C151.598 43.4004 151.562 43.4424 151.539 43.4664L155.394 47.1543C156.884 45.5962 157.185 43.5553 156.915 41.6166L151.63 42.3539ZM151.58 43.424C151.518 43.4862 151.208 43.751 150.141 43.751V49.0863C152.03 49.0863 153.937 48.6123 155.353 47.1966L151.58 43.424ZM150.141 43.751C149.243 43.751 149.051 43.5218 149.05 43.5209L145.187 47.2005C146.529 48.6103 148.353 49.0863 150.141 49.0863V43.751ZM149.05 43.5209C148.88 43.3418 148.598 42.9004 148.447 41.8918L143.171 42.6832C143.422 44.3615 144.014 45.9689 145.187 47.2005L149.05 43.5209ZM148.383 41.5893C147.692 39.0408 146.249 36.9527 143.864 35.8398L141.607 40.6745C142.245 40.9722 142.85 41.571 143.234 42.9857L148.383 41.5893ZM143.907 35.8606C141.846 34.8528 139.089 34.4811 135.934 34.4811V39.8164C138.825 39.8164 140.602 40.1836 141.564 40.6537L143.907 35.8606ZM135.934 34.4811H123.944V39.8164H135.934V34.4811ZM123.944 34.4811C119.831 34.4811 116.1 35.1685 113.902 37.4742L117.763 41.156C118.319 40.5732 119.996 39.8164 123.944 39.8164V34.4811ZM113.924 37.4517C111.76 39.6678 111.099 43.2987 111.099 47.3255H116.435C116.435 43.493 117.151 41.7837 117.742 41.1786L113.924 37.4517ZM111.099 47.3255C111.099 51.4104 111.786 55.0588 113.953 57.329L117.813 53.6451C117.158 52.9596 116.435 51.167 116.435 47.3255H111.099ZM113.953 57.329C116.178 59.659 119.909 60.3714 124.045 60.3714V55.0361C120.119 55.0361 118.41 54.2707 117.813 53.6451L113.953 57.329ZM124.045 60.3714H136.539V55.0361H124.045V60.3714ZM136.539 60.3714C142.767 60.3714 146.878 61.8904 149.414 64.4265L153.186 60.6539C149.274 56.7414 143.543 55.0361 136.539 55.0361V60.3714ZM149.424 64.4363C151.98 66.9667 153.519 71.1164 153.519 77.4526H158.855C158.855 70.3542 157.136 64.5624 153.177 60.6441L149.424 64.4363ZM153.519 77.4526C153.519 83.7602 151.995 87.8737 149.474 90.3681L153.227 94.1605C157.155 90.2735 158.855 84.5125 158.855 77.4526H153.519ZM149.484 90.3582C146.952 92.8378 142.819 94.3323 136.539 94.3323V99.6677C143.559 99.6677 149.301 98.005 153.217 94.1704L149.484 90.3582ZM136.539 94.3323H122.029V99.6677H136.539V94.3323ZM179.703 91.5086L177.808 93.3863L177.816 93.3949L177.825 93.4035L179.703 91.5086ZM181.617 29.743L183.503 27.8566L183.503 27.8566L181.617 29.743ZM183.934 82.8937L181.466 83.9053L181.473 83.9225L181.48 83.9396L183.934 82.8937ZM188.317 87.2767L187.271 89.7307L187.289 89.738L187.306 89.7451L188.317 87.2767ZM217.336 87.2767L218.348 89.7451L218.365 89.738L218.382 89.7307L217.336 87.2767ZM221.669 82.8937L219.215 81.8477L219.208 81.8648L219.2 81.882L221.669 82.8937ZM225.951 91.5086L227.838 93.3949L227.846 93.3863L225.951 91.5086ZM196.781 94.3323C189.459 94.3323 184.58 92.5858 181.58 89.6137L177.825 93.4035C182.215 97.7533 188.721 99.6677 196.781 99.6677V94.3323ZM181.597 89.6309C178.625 86.6316 176.879 81.752 176.879 74.4298H171.543C171.543 82.4903 173.458 88.9966 177.808 93.3863L181.597 89.6309ZM176.879 74.4298V32.9169H171.543V74.4298H176.879ZM176.879 32.9169C176.879 31.9175 177.127 31.6579 177.155 31.6293L173.383 27.8566C172.001 29.2387 171.543 31.095 171.543 32.9169H176.879ZM177.155 31.6293C177.184 31.6007 177.444 31.3526 178.443 31.3526V26.0173C176.621 26.0173 174.765 26.4746 173.383 27.8566L177.155 31.6293ZM178.443 31.3526C179.442 31.3526 179.702 31.6007 179.731 31.6293L183.503 27.8566C182.121 26.4746 180.265 26.0173 178.443 26.0173V31.3526ZM179.731 31.6293C179.759 31.6579 180.007 31.9175 180.007 32.9169H185.343C185.343 31.095 184.885 29.2387 183.503 27.8566L179.731 31.6293ZM180.007 32.9169V74.4298H185.343V32.9169H180.007ZM180.007 74.4298C180.007 78.181 180.438 81.3973 181.466 83.9053L186.403 81.882C185.751 80.2924 185.343 77.8662 185.343 74.4298H180.007ZM181.48 83.9396C182.624 86.6219 184.589 88.5875 187.271 89.7307L189.363 84.8227C187.948 84.2194 186.992 83.2629 186.388 81.8477L181.48 83.9396ZM187.306 89.7451C189.814 90.773 193.03 91.2038 196.781 91.2038V85.8685C193.345 85.8685 190.919 85.4598 189.329 84.8083L187.306 89.7451ZM196.781 91.2038H208.872V85.8685H196.781V91.2038ZM208.872 91.2038C212.624 91.2038 215.84 90.773 218.348 89.7451L216.325 84.8083C214.735 85.4598 212.309 85.8685 208.872 85.8685V91.2038ZM218.382 89.7307C221.072 88.5842 223.03 86.6075 224.137 83.9053L219.2 81.882C218.629 83.2774 217.698 84.2227 216.29 84.8227L218.382 89.7307ZM224.123 83.9396C225.197 81.419 225.646 78.1888 225.646 74.4298H220.311C220.311 77.8584 219.887 80.2708 219.215 81.8477L224.123 83.9396ZM225.646 74.4298V32.9169H220.311V74.4298H225.646ZM225.646 32.9169C225.646 31.9175 225.894 31.6579 225.923 31.6293L222.15 27.8566C220.768 29.2387 220.311 31.095 220.311 32.9169H225.646ZM225.923 31.6293C225.952 31.6007 226.211 31.3526 227.211 31.3526V26.0173C225.389 26.0173 223.532 26.4746 222.15 27.8566L225.923 31.6293ZM227.211 31.3526C228.21 31.3526 228.47 31.6007 228.498 31.6293L232.271 27.8566C230.889 26.4746 229.033 26.0173 227.211 26.0173V31.3526ZM228.498 31.6293C228.527 31.6579 228.775 31.9175 228.775 32.9169H234.11C234.11 31.095 233.653 29.2387 232.271 27.8566L228.498 31.6293ZM228.775 32.9169V74.4298H234.11V32.9169H228.775ZM228.775 74.4298C228.775 81.752 227.028 86.6316 224.056 89.6309L227.846 93.3863C232.196 88.9966 234.11 82.4903 234.11 74.4298H228.775ZM224.065 89.6223C221.104 92.5829 216.235 94.3323 208.872 94.3323V99.6677C216.96 99.6677 223.476 97.7562 227.837 93.3949L224.065 89.6223ZM208.872 94.3323H196.781V99.6677H208.872V94.3323ZM248.635 96.597L249.658 94.1336L249.629 94.1212L249.599 94.1095L248.635 96.597ZM246.216 91.0552L243.745 90.0514L243.744 90.0537L246.216 91.0552ZM270.197 32.01L267.769 30.9062L267.746 30.9557L267.726 31.0062L270.197 32.01ZM275.134 28.685L275.257 26.0202L275.196 26.0173H275.134V28.685ZM279.568 32.01L277.062 32.9249L277.081 32.977L277.102 33.0283L279.568 32.01ZM303.952 91.0552L306.424 90.0537L306.421 90.0453L306.417 90.0369L303.952 91.0552ZM301.634 96.597L302.609 99.0803L302.619 99.076L301.634 96.597ZM296.092 94.2795L298.567 93.2832L298.563 93.273L298.559 93.2628L296.092 94.2795ZM290.651 81.08L293.118 80.0633L292.437 78.4123H290.651V81.08ZM259.265 81.08V78.4123H257.447L256.782 80.104L259.265 81.08ZM254.076 94.2795L256.555 95.2648L256.558 95.2555L254.076 94.2795ZM262.59 72.6162L260.108 71.6374L258.67 75.2838H262.59V72.6162ZM287.175 72.6162V75.2838H291.155L289.643 71.6023L287.175 72.6162ZM274.631 42.086L277.098 41.0721L274.58 34.9435L272.149 41.1073L274.631 42.086ZM249.599 94.1095C248.631 93.7346 248.475 93.3986 248.46 93.3637C248.447 93.3331 248.306 93.0015 248.689 92.0567L243.744 90.0537C243.052 91.7623 242.777 93.6809 243.57 95.4975C244.361 97.3099 245.951 98.4181 247.671 99.0844L249.599 94.1095ZM248.688 92.059L272.669 33.0139L267.726 31.0062L243.745 90.0514L248.688 92.059ZM272.626 33.1139C272.984 32.3266 273.36 31.9172 273.67 31.6995C273.959 31.4962 274.341 31.3526 274.933 31.3526V26.0173C273.375 26.0173 271.893 26.4279 270.604 27.333C269.335 28.2237 268.418 29.4767 267.769 30.9062L272.626 33.1139ZM274.933 31.3526H275.134V26.0173H274.933V31.3526ZM275.011 31.3498C275.668 31.3801 276.042 31.5481 276.28 31.7259C276.522 31.9079 276.814 32.2452 277.062 32.9249L282.074 31.0952C281.549 29.659 280.716 28.3841 279.481 27.4577C278.24 26.5272 276.784 26.0906 275.257 26.0202L275.011 31.3498ZM277.102 33.0283L301.486 92.0734L306.417 90.0369L282.034 30.9918L277.102 33.0283ZM301.479 92.0567C301.867 93.0131 301.734 93.3616 301.717 93.4014C301.705 93.4313 301.568 93.7525 300.649 94.1179L302.619 99.076C304.32 98.4002 305.88 97.2773 306.64 95.4598C307.395 93.6524 307.112 91.7506 306.424 90.0537L301.479 92.0567ZM300.66 94.1137C299.704 94.4887 299.344 94.3606 299.288 94.3374C299.246 94.3198 298.928 94.179 298.567 93.2832L293.618 95.2758C294.298 96.9661 295.424 98.5046 297.23 99.2596C299.021 100.009 300.911 99.7464 302.609 99.0803L300.66 94.1137ZM298.559 93.2628L293.118 80.0633L288.185 82.0966L293.626 95.2961L298.559 93.2628ZM290.651 78.4123H259.265V83.7476H290.651V78.4123ZM256.782 80.104L251.593 93.3035L256.558 95.2555L261.748 82.056L256.782 80.104ZM251.597 93.2942C251.225 94.2295 250.904 94.3632 250.889 94.3694C250.879 94.3736 250.571 94.5128 249.658 94.1336L247.611 99.0604C249.284 99.7558 251.176 100.046 252.98 99.278C254.779 98.5116 255.885 96.9492 256.555 95.2648L251.597 93.2942ZM262.59 75.2838H287.175V69.9485H262.59V75.2838ZM289.643 71.6023L277.098 41.0721L272.163 43.0999L284.708 73.63L289.643 71.6023ZM272.149 41.1073L260.108 71.6374L265.072 73.5949L277.112 43.0647L272.149 41.1073ZM327.43 88.5362H324.763V91.2038H327.43V88.5362ZM323.198 94.3323C322.199 94.3323 321.939 94.0843 321.911 94.0557C321.882 94.0271 321.634 93.7675 321.634 92.7681H316.299C316.299 94.5899 316.756 96.4463 318.138 97.8283C319.52 99.2104 321.377 99.6677 323.198 99.6677V94.3323ZM321.634 92.7681V32.9169H316.299V92.7681H321.634ZM321.634 32.9169C321.634 31.9174 321.882 31.6579 321.911 31.6293C321.939 31.6007 322.199 31.3526 323.198 31.3526V26.0173C321.377 26.0173 319.52 26.4746 318.138 27.8566C316.756 29.2387 316.299 31.095 316.299 32.9169H321.634ZM323.198 31.3526C324.198 31.3526 324.457 31.6007 324.486 31.6293C324.515 31.6579 324.763 31.9174 324.763 32.9169H330.098C330.098 31.095 329.641 29.2387 328.259 27.8566C326.877 26.4746 325.02 26.0173 323.198 26.0173V31.3526ZM324.763 32.9169V88.5362H330.098V32.9169H324.763ZM327.43 91.2038H355.341V85.8685H327.43V91.2038ZM355.341 91.2038C356.34 91.2038 356.6 91.4519 356.628 91.4805C356.657 91.5091 356.905 91.7687 356.905 92.7681H362.24C362.24 90.9463 361.783 89.0899 360.401 87.7078C359.019 86.3258 357.163 85.8685 355.341 85.8685V91.2038ZM356.905 92.7681C356.905 93.7675 356.657 94.0271 356.628 94.0557C356.6 94.0843 356.34 94.3323 355.341 94.3323V99.6677C357.163 99.6677 359.019 99.2104 360.401 97.8283C361.783 96.4463 362.24 94.5899 362.24 92.7681H356.905ZM355.341 94.3323H323.198V99.6677H355.341V94.3323ZM238.249 210.509L236.354 212.386L236.363 212.395L236.372 212.404L238.249 210.509ZM240.164 148.743L242.05 146.857L242.05 146.857L240.164 148.743ZM242.481 201.894L240.013 202.905L240.02 202.923L240.027 202.94L242.481 201.894ZM246.864 206.277L245.818 208.731L245.835 208.738L245.853 208.745L246.864 206.277ZM275.883 206.277L276.895 208.745L276.912 208.738L276.929 208.731L275.883 206.277ZM280.216 201.894L277.762 200.848L277.754 200.865L277.747 200.882L280.216 201.894ZM284.498 210.509L286.384 212.395L286.393 212.386L284.498 210.509ZM255.328 213.332C248.006 213.332 243.126 211.586 240.127 208.614L236.372 212.404C240.761 216.753 247.268 218.668 255.328 218.668V213.332ZM240.144 208.631C237.172 205.632 235.426 200.752 235.426 193.43H230.09C230.09 201.49 232.005 207.997 236.354 212.386L240.144 208.631ZM235.426 193.43V151.917H230.09V193.43H235.426ZM235.426 151.917C235.426 150.917 235.674 150.658 235.702 150.629L231.93 146.857C230.548 148.239 230.09 150.095 230.09 151.917H235.426ZM235.702 150.629C235.731 150.601 235.99 150.353 236.99 150.353V145.017C235.168 145.017 233.312 145.475 231.93 146.857L235.702 150.629ZM236.99 150.353C237.989 150.353 238.249 150.601 238.277 150.629L242.05 146.857C240.668 145.475 238.812 145.017 236.99 145.017V150.353ZM238.277 150.629C238.306 150.658 238.554 150.917 238.554 151.917H243.889C243.889 150.095 243.432 148.239 242.05 146.857L238.277 150.629ZM238.554 151.917V193.43H243.889V151.917H238.554ZM238.554 193.43C238.554 197.181 238.985 200.397 240.013 202.905L244.95 200.882C244.298 199.292 243.889 196.866 243.889 193.43H238.554ZM240.027 202.94C241.17 205.622 243.136 207.587 245.818 208.731L247.91 203.823C246.495 203.219 245.539 202.263 244.935 200.848L240.027 202.94ZM245.853 208.745C248.361 209.773 251.577 210.204 255.328 210.204V204.869C251.892 204.869 249.466 204.46 247.876 203.808L245.853 208.745ZM255.328 210.204H267.419V204.869H255.328V210.204ZM267.419 210.204C271.17 210.204 274.387 209.773 276.895 208.745L274.871 203.808C273.282 204.46 270.856 204.869 267.419 204.869V210.204ZM276.929 208.731C279.619 207.584 281.577 205.607 282.684 202.905L277.747 200.882C277.175 202.277 276.245 203.223 274.837 203.823L276.929 208.731ZM282.67 202.94C283.744 200.419 284.193 197.189 284.193 193.43H278.858C278.858 196.858 278.434 199.271 277.762 200.848L282.67 202.94ZM284.193 193.43V151.917H278.858V193.43H284.193ZM284.193 151.917C284.193 150.917 284.441 150.658 284.47 150.629L280.697 146.857C279.315 148.239 278.858 150.095 278.858 151.917H284.193ZM284.47 150.629C284.499 150.601 284.758 150.353 285.758 150.353V145.017C283.936 145.017 282.079 145.475 280.697 146.857L284.47 150.629ZM285.758 150.353C286.757 150.353 287.017 150.601 287.045 150.629L290.818 146.857C289.436 145.475 287.579 145.017 285.758 145.017V150.353ZM287.045 150.629C287.074 150.658 287.322 150.917 287.322 151.917H292.657C292.657 150.095 292.2 148.239 290.818 146.857L287.045 150.629ZM287.322 151.917V193.43H292.657V151.917H287.322ZM287.322 193.43C287.322 200.752 285.575 205.632 282.603 208.631L286.393 212.386C290.743 207.997 292.657 201.49 292.657 193.43H287.322ZM282.612 208.622C279.651 211.583 274.781 213.332 267.419 213.332V218.668C275.507 218.668 282.023 216.756 286.384 212.395L282.612 208.622ZM267.419 213.332H255.328V218.668H267.419V213.332ZM308.592 215.093L307.082 217.292L307.13 217.325L307.178 217.355L308.592 215.093ZM307.585 209.148L305.376 207.652L305.363 207.671L305.351 207.69L307.585 209.148ZM326.024 181.943L328.232 183.44L329.27 181.908L328.199 180.4L326.024 181.943ZM306.577 154.537L304.373 156.039L304.387 156.06L304.401 156.08L306.577 154.537ZM307.685 148.592L306.184 146.387L306.115 146.434L306.05 146.484L307.685 148.592ZM313.529 149.7L311.325 151.202L311.341 151.226L311.357 151.249L313.529 149.7ZM331.565 174.991L329.393 176.54L331.559 179.577L333.733 176.545L331.565 174.991ZM349.702 149.7L347.595 148.065L347.564 148.104L347.534 148.146L349.702 149.7ZM355.546 148.793L353.924 150.911L353.945 150.927L353.966 150.943L355.546 148.793ZM356.554 154.637L354.396 153.068L354.392 153.074L354.388 153.08L356.554 154.637ZM336.704 182.246L334.538 180.688L333.425 182.236L334.529 183.791L336.704 182.246ZM355.748 209.048L357.952 207.546L357.938 207.524L357.922 207.502L355.748 209.048ZM354.639 215.093L356.141 217.298L356.184 217.269L356.225 217.238L354.639 215.093ZM348.795 213.985L351 212.483L350.985 212.461L350.97 212.44L348.795 213.985ZM331.263 189.299L333.438 187.754L331.207 184.613L329.052 187.807L331.263 189.299ZM314.537 214.086L316.715 215.627L316.732 215.602L316.748 215.578L314.537 214.086ZM310.102 212.894C309.352 212.379 309.292 212.055 309.283 212.002C309.268 211.914 309.237 211.497 309.818 210.607L305.351 207.69C304.354 209.218 303.702 211.001 304.022 212.894C304.349 214.823 305.582 216.262 307.082 217.292L310.102 212.894ZM309.793 210.645L328.232 183.44L323.815 180.447L305.376 207.652L309.793 210.645ZM328.199 180.4L308.753 152.993L304.401 156.08L323.848 183.487L328.199 180.4ZM308.781 153.034C308.287 152.309 308.326 151.969 308.343 151.877C308.367 151.75 308.5 151.336 309.321 150.699L306.05 146.484C304.62 147.594 303.444 149.044 303.098 150.899C302.746 152.788 303.356 154.548 304.373 156.039L308.781 153.034ZM309.187 150.797C310.006 150.239 310.354 150.3 310.387 150.306C310.421 150.312 310.767 150.383 311.325 151.202L315.734 148.198C314.713 146.7 313.296 145.427 311.382 145.064C309.467 144.701 307.682 145.366 306.184 146.387L309.187 150.797ZM311.357 151.249L329.393 176.54L333.737 173.442L315.701 148.151L311.357 151.249ZM333.733 176.545L351.87 151.255L347.534 148.146L329.398 173.436L333.733 176.545ZM351.81 151.336C352.45 150.511 352.829 150.43 352.882 150.422C352.901 150.419 353.206 150.361 353.924 150.911L357.168 146.675C355.737 145.58 353.993 144.85 352.064 145.15C350.169 145.444 348.701 146.639 347.595 148.065L351.81 151.336ZM353.966 150.943C354.793 151.551 354.874 151.919 354.882 151.967C354.886 151.992 354.946 152.312 354.396 153.068L358.711 156.206C359.773 154.746 360.471 152.984 360.14 151.061C359.812 149.16 358.583 147.715 357.126 146.644L353.966 150.943ZM354.388 153.08L334.538 180.688L338.87 183.803L358.72 156.195L354.388 153.08ZM334.529 183.791L353.573 210.593L357.922 207.502L338.879 180.7L334.529 183.791ZM353.543 210.549C354.086 211.346 354.048 211.721 354.031 211.816C354.01 211.928 353.89 212.33 353.054 212.948L356.225 217.238C357.706 216.144 358.929 214.682 359.278 212.778C359.631 210.858 358.988 209.066 357.952 207.546L353.543 210.549ZM353.138 212.888C352.319 213.446 351.971 213.385 351.937 213.379C351.904 213.373 351.558 213.302 351 212.483L346.59 215.487C347.611 216.985 349.029 218.258 350.943 218.621C352.857 218.984 354.643 218.319 356.141 217.298L353.138 212.888ZM350.97 212.44L333.438 187.754L329.088 190.843L346.62 215.529L350.97 212.44ZM329.052 187.807L312.326 212.593L316.748 215.578L333.474 190.791L329.052 187.807ZM312.359 212.545C311.856 213.255 311.531 213.33 311.446 213.345C311.325 213.365 310.891 213.384 310.006 212.831L307.178 217.355C308.711 218.313 310.478 218.92 312.338 218.605C314.235 218.283 315.673 217.099 316.715 215.627L312.359 212.545ZM179.559 334.597L180.583 332.134L180.553 332.121L180.523 332.11L179.559 334.597ZM177.141 329.055L174.669 328.051L174.668 328.054L177.141 329.055ZM201.122 270.01L198.693 268.906L198.671 268.956L198.65 269.006L201.122 270.01ZM206.059 266.685L206.182 264.02L206.121 264.017H206.059V266.685ZM210.492 270.01L207.987 270.925L208.006 270.977L208.027 271.028L210.492 270.01ZM234.876 329.055L237.349 328.054L237.345 328.045L237.342 328.037L234.876 329.055ZM232.559 334.597L233.533 337.08L233.544 337.076L232.559 334.597ZM227.017 332.279L229.492 331.283L229.488 331.273L229.483 331.263L227.017 332.279ZM221.576 319.08L224.042 318.063L223.362 316.412H221.576V319.08ZM190.189 319.08V316.412H188.372L187.707 318.104L190.189 319.08ZM185 332.279L187.479 333.265L187.483 333.256L185 332.279ZM193.514 310.616L191.033 309.637L189.595 313.284H193.514V310.616ZM218.1 310.616V313.284H222.08L220.567 309.602L218.1 310.616ZM205.555 280.086L208.023 279.072L205.505 272.944L203.074 279.107L205.555 280.086ZM180.523 332.11C179.556 331.735 179.4 331.399 179.384 331.364C179.371 331.333 179.231 331.001 179.614 330.057L174.668 328.054C173.976 329.762 173.702 331.681 174.494 333.498C175.285 335.31 176.876 336.418 178.595 337.084L180.523 332.11ZM179.613 330.059L203.593 271.014L198.65 269.006L174.669 328.051L179.613 330.059ZM203.55 271.114C203.908 270.327 204.284 269.917 204.594 269.699C204.884 269.496 205.266 269.353 205.857 269.353V264.017C204.3 264.017 202.818 264.428 201.528 265.333C200.26 266.224 199.343 267.477 198.693 268.906L203.55 271.114ZM205.857 269.353H206.059V264.017H205.857V269.353ZM205.936 269.35C206.593 269.38 206.967 269.548 207.204 269.726C207.447 269.908 207.738 270.245 207.987 270.925L212.998 269.095C212.474 267.659 211.641 266.384 210.405 265.458C209.165 264.527 207.708 264.091 206.182 264.02L205.936 269.35ZM208.027 271.028L232.411 330.073L237.342 328.037L212.958 268.992L208.027 271.028ZM232.404 330.057C232.791 331.013 232.658 331.362 232.642 331.401C232.629 331.431 232.493 331.753 231.574 332.118L233.544 337.076C235.244 336.4 236.804 335.277 237.564 333.46C238.32 331.652 238.036 329.751 237.349 328.054L232.404 330.057ZM231.584 332.114C230.629 332.489 230.268 332.361 230.213 332.337C230.171 332.32 229.852 332.179 229.492 331.283L224.542 333.276C225.223 334.966 226.349 336.505 228.154 337.26C229.946 338.009 231.836 337.746 233.533 337.08L231.584 332.114ZM229.483 331.263L224.042 318.063L219.11 320.097L224.551 333.296L229.483 331.263ZM221.576 316.412H190.189V321.748H221.576V316.412ZM187.707 318.104L182.518 331.303L187.483 333.256L192.672 320.056L187.707 318.104ZM182.521 331.294C182.149 332.23 181.828 332.363 181.814 332.369C181.804 332.374 181.496 332.513 180.583 332.134L178.535 337.06C180.209 337.756 182.101 338.046 183.904 337.278C185.704 336.512 186.81 334.949 187.479 333.265L182.521 331.294ZM193.514 313.284H218.1V307.949H193.514V313.284ZM220.567 309.602L208.023 279.072L203.088 281.1L215.632 311.63L220.567 309.602ZM203.074 279.107L191.033 309.637L195.996 311.595L208.037 281.065L203.074 279.107ZM291.807 271.622L289.911 273.499L289.921 273.509L289.93 273.518L291.807 271.622ZM291.807 302.908L293.693 304.794L293.693 304.794L291.807 302.908ZM258.355 307.795V305.127H255.687V307.795H258.355ZM258.355 299.331H255.687V301.999H258.355V299.331ZM285.862 277.617L283.957 279.484L283.966 279.494L283.976 279.504L285.862 277.617ZM258.355 275.149V272.481H255.687V275.149H258.355ZM254.123 332.332C253.123 332.332 252.864 332.084 252.835 332.056C252.807 332.027 252.559 331.768 252.559 330.768H247.223C247.223 332.59 247.681 334.446 249.063 335.828C250.445 337.21 252.301 337.668 254.123 337.668V332.332ZM252.559 330.768V270.917H247.223V330.768H252.559ZM252.559 270.917C252.559 269.917 252.807 269.658 252.835 269.629C252.864 269.601 253.123 269.353 254.123 269.353V264.017C252.301 264.017 250.445 264.475 249.063 265.857C247.681 267.239 247.223 269.095 247.223 270.917H252.559ZM254.123 269.353H277.701V264.017H254.123V269.353ZM277.701 269.353C283.376 269.353 287.302 270.863 289.911 273.499L293.703 269.746C289.796 265.799 284.318 264.017 277.701 264.017V269.353ZM289.93 273.518C292.567 276.127 294.077 280.053 294.077 285.729H299.412C299.412 279.111 297.63 273.633 293.684 269.726L289.93 273.518ZM294.077 285.729V288.751H299.412V285.729H294.077ZM294.077 288.751C294.077 294.425 292.567 298.375 289.921 301.022L293.693 304.794C297.63 300.858 299.412 295.37 299.412 288.751H294.077ZM289.921 301.022C287.313 303.63 283.384 305.127 277.701 305.127V310.463C284.31 310.463 289.786 308.702 293.693 304.794L289.921 301.022ZM277.701 305.127H258.355V310.463H277.701V305.127ZM255.687 307.795V330.768H261.022V307.795H255.687ZM255.687 330.768C255.687 331.768 255.439 332.027 255.411 332.056C255.382 332.084 255.122 332.332 254.123 332.332V337.668C255.945 337.668 257.801 337.21 259.183 335.828C260.565 334.446 261.022 332.59 261.022 330.768H255.687ZM258.355 301.999H277.701V296.663H258.355V301.999ZM277.701 301.999C281.784 301.999 285.388 301.16 287.749 298.799L283.976 295.027C283.112 295.89 281.275 296.663 277.701 296.663V301.999ZM287.749 298.799C290.109 296.438 290.948 292.835 290.948 288.751H285.613C285.613 292.326 284.839 294.163 283.976 295.027L287.749 298.799ZM290.948 288.751V285.729H285.613V288.751H290.948ZM290.948 285.729C290.948 281.671 290.106 278.088 287.749 275.731L283.976 279.504C284.843 280.371 285.613 282.196 285.613 285.729H290.948ZM287.768 275.751C285.408 273.342 281.796 272.481 277.701 272.481V277.816C281.263 277.816 283.092 278.602 283.957 279.484L287.768 275.751ZM277.701 272.481H258.355V277.816H277.701V272.481ZM255.687 275.149V299.331H261.022V275.149H255.687ZM353.601 271.622L351.705 273.499L351.715 273.509L351.724 273.518L353.601 271.622ZM353.601 302.908L355.487 304.794L355.487 304.794L353.601 302.908ZM320.149 307.795V305.127H317.481V307.795H320.149ZM320.149 299.331H317.481V301.999H320.149V299.331ZM347.656 277.617L345.751 279.484L345.76 279.494L345.77 279.504L347.656 277.617ZM320.149 275.149V272.481H317.481V275.149H320.149ZM315.917 332.332C314.917 332.332 314.658 332.084 314.629 332.056C314.601 332.027 314.353 331.768 314.353 330.768H309.017C309.017 332.59 309.475 334.446 310.857 335.828C312.239 337.21 314.095 337.668 315.917 337.668V332.332ZM314.353 330.768V270.917H309.017V330.768H314.353ZM314.353 270.917C314.353 269.917 314.601 269.658 314.629 269.629C314.658 269.601 314.917 269.353 315.917 269.353V264.017C314.095 264.017 312.239 264.475 310.857 265.857C309.475 267.239 309.017 269.095 309.017 270.917H314.353ZM315.917 269.353H339.495V264.017H315.917V269.353ZM339.495 269.353C345.17 269.353 349.096 270.863 351.705 273.499L355.497 269.746C351.59 265.799 346.112 264.017 339.495 264.017V269.353ZM351.724 273.518C354.361 276.127 355.871 280.053 355.871 285.729H361.206C361.206 279.111 359.424 273.633 355.478 269.726L351.724 273.518ZM355.871 285.729V288.751H361.206V285.729H355.871ZM355.871 288.751C355.871 294.425 354.361 298.375 351.715 301.022L355.487 304.794C359.424 300.858 361.206 295.37 361.206 288.751H355.871ZM351.715 301.022C349.107 303.63 345.178 305.127 339.495 305.127V310.463C346.104 310.463 351.58 308.702 355.487 304.794L351.715 301.022ZM339.495 305.127H320.149V310.463H339.495V305.127ZM317.481 307.795V330.768H322.816V307.795H317.481ZM317.481 330.768C317.481 331.768 317.233 332.027 317.205 332.056C317.176 332.084 316.916 332.332 315.917 332.332V337.668C317.739 337.668 319.595 337.21 320.977 335.828C322.359 334.446 322.816 332.59 322.816 330.768H317.481ZM320.149 301.999H339.495V296.663H320.149V301.999ZM339.495 301.999C343.578 301.999 347.182 301.16 349.543 298.799L345.77 295.027C344.906 295.89 343.069 296.663 339.495 296.663V301.999ZM349.543 298.799C351.903 296.438 352.742 292.835 352.742 288.751H347.407C347.407 292.326 346.633 294.163 345.77 295.027L349.543 298.799ZM352.742 288.751V285.729H347.407V288.751H352.742ZM352.742 285.729C352.742 281.671 351.9 278.088 349.543 275.731L345.77 279.504C346.637 280.371 347.407 282.196 347.407 285.729H352.742ZM349.562 275.751C347.202 273.342 343.59 272.481 339.495 272.481V277.816C343.057 277.816 344.886 278.602 345.751 279.484L349.562 275.751ZM339.495 272.481H320.149V277.816H339.495V272.481ZM317.481 275.149V299.331H322.816V275.149H317.481ZM69.5471 389.917L67.6719 391.814L67.6775 391.82L67.6831 391.825L69.5471 389.917ZM69.5974 415.258L67.8458 413.246L64.9873 415.735L68.2944 417.586L69.5974 415.258ZM72.6706 449.164L70.8038 447.258L70.7941 447.267L72.6706 449.164ZM35.188 445.536H32.5204V448.204H35.188V445.536ZM66.6754 443.118L64.7891 441.232L64.7891 441.232L66.6754 443.118ZM66.7762 423.671L64.8701 425.538L64.8799 425.548L64.8898 425.558L66.7762 423.671ZM35.188 421.253V418.585H32.5204V421.253H35.188ZM35.188 412.789H32.5204V415.457H35.188V412.789ZM64.0557 410.522L61.7682 409.15L61.7568 409.169L61.7458 409.188L64.0557 410.522ZM63.6022 395.912L61.7427 397.825L61.7565 397.838L61.7706 397.852L63.6022 395.912ZM35.188 394.149V391.481H32.5204V394.149H35.188ZM30.9561 451.332C29.9567 451.332 29.6971 451.084 29.6685 451.056C29.6399 451.027 29.3919 450.768 29.3919 449.768H24.0566C24.0566 451.59 24.5138 453.446 25.8959 454.828C27.2779 456.21 29.1343 456.668 30.9561 456.668V451.332ZM29.3919 449.768V389.917H24.0566V449.768H29.3919ZM29.3919 389.917C29.3919 388.917 29.6399 388.658 29.6685 388.629C29.6971 388.601 29.9567 388.353 30.9561 388.353V383.017C29.1343 383.017 27.2779 383.475 25.8959 384.857C24.5138 386.239 24.0566 388.095 24.0566 389.917H29.3919ZM30.9561 388.353H57.2544V383.017H30.9561V388.353ZM57.2544 388.353C62.1321 388.353 65.4642 389.633 67.6719 391.814L71.4222 388.019C67.9202 384.559 63.0572 383.017 57.2544 383.017V388.353ZM67.6831 391.825C69.9169 394.007 71.2121 397.263 71.2121 402.008H76.5474C76.5474 396.274 74.9541 391.469 71.4111 388.008L67.6831 391.825ZM71.2121 402.008V404.729H76.5474V402.008H71.2121ZM71.2121 404.729C71.2121 408.658 70.0034 411.368 67.8458 413.246L71.3491 417.27C74.9012 414.178 76.5474 409.867 76.5474 404.729H71.2121ZM68.2944 417.586C72.5389 419.962 74.9402 424.341 74.9402 431.631H80.2755C80.2755 423.069 77.3365 416.533 70.9004 412.93L68.2944 417.586ZM74.9402 431.631V435.057H80.2755V431.631H74.9402ZM74.9402 435.057C74.9402 440.773 73.4268 444.688 70.8038 447.258L74.5374 451.069C78.4973 447.19 80.2755 441.701 80.2755 435.057H74.9402ZM70.7941 447.267C68.1872 449.848 64.2545 451.332 58.5643 451.332V456.668C65.1667 456.668 70.6383 454.928 74.5471 451.06L70.7941 447.267ZM58.5643 451.332H30.9561V456.668H58.5643V451.332ZM35.188 448.204H58.5643V442.869H35.188V448.204ZM58.5643 448.204C62.6222 448.204 66.2043 447.362 68.5617 445.004L64.7891 441.232C63.9222 442.099 62.0969 442.869 58.5643 442.869V448.204ZM68.5617 445.004C70.9374 442.629 71.8117 439.083 71.8117 435.057H66.4764C66.4764 438.487 65.7049 440.316 64.7891 441.232L68.5617 445.004ZM71.8117 435.057V431.631H66.4764V435.057H71.8117ZM71.8117 431.631C71.8117 427.644 70.9876 424.11 68.6625 421.785L64.8898 425.558C65.7219 426.39 66.4764 428.163 66.4764 431.631H71.8117ZM68.6822 421.805C66.3412 419.414 62.6908 418.585 58.5643 418.585V423.921C62.2297 423.921 64.054 424.704 64.8701 425.538L68.6822 421.805ZM58.5643 418.585H35.188V423.921H58.5643V418.585ZM32.5204 421.253V445.536H37.8557V421.253H32.5204ZM35.188 415.457H59.068V410.122H35.188V415.457ZM59.068 415.457C62.0423 415.457 64.8337 414.508 66.3655 411.857L61.7458 409.188C61.5311 409.559 60.9974 410.122 59.068 410.122V415.457ZM66.3431 411.895C67.5686 409.852 68.0836 407.407 68.0836 404.729H62.7482C62.7482 406.753 62.3564 408.169 61.7682 409.15L66.3431 411.895ZM68.0836 404.729V402.008H62.7482V404.729H68.0836ZM68.0836 402.008C68.0836 398.87 67.4623 395.888 65.4339 393.973L61.7706 397.852C62.1604 398.22 62.7482 399.302 62.7482 402.008H68.0836ZM65.4618 393.999C63.4843 392.077 60.4701 391.481 57.2544 391.481V396.816C60.0842 396.816 61.302 397.396 61.7427 397.825L65.4618 393.999ZM57.2544 391.481H35.188V396.816H57.2544V391.481ZM32.5204 394.149V412.789H37.8557V394.149H32.5204ZM138.452 454.202L137.032 451.943L137.026 451.947L137.019 451.951L138.452 454.202ZM135.278 454.856L135.965 452.279L135.965 452.279L135.278 454.856ZM132.708 452.791L130.422 454.165L130.439 454.194L130.458 454.223L132.708 452.791ZM117.091 426.795L119.377 425.421L118.6 424.127H117.091V426.795ZM102.984 426.795V424.127H100.317V426.795H102.984ZM136.436 390.622L134.541 392.499L134.55 392.509L134.56 392.518L136.436 390.622ZM137.646 420.548L139.742 422.198L139.75 422.187L137.646 420.548ZM126.864 426.442L126.432 423.81L122.557 424.446L124.576 427.814L126.864 426.442ZM140.064 448.458L142.408 447.186L142.381 447.135L142.352 447.086L140.064 448.458ZM102.984 418.331H100.317V420.999H102.984V418.331ZM130.492 396.617L128.586 398.484L128.596 398.494L128.605 398.504L130.492 396.617ZM102.984 394.149V391.481H100.317V394.149H102.984ZM137.019 451.951C136.366 452.367 136.073 452.308 135.965 452.279L134.59 457.434C136.497 457.943 138.321 457.447 139.884 456.452L137.019 451.951ZM135.965 452.279C135.759 452.224 135.402 452.055 134.959 451.359L130.458 454.223C131.425 455.743 132.781 456.952 134.59 457.434L135.965 452.279ZM134.995 451.417L119.377 425.421L114.804 428.169L130.422 454.165L134.995 451.417ZM117.091 424.127H102.984V429.463H117.091V424.127ZM100.317 426.795V449.768H105.652V426.795H100.317ZM100.317 449.768C100.317 450.768 100.069 451.027 100.04 451.056C100.011 451.084 99.7518 451.332 98.7524 451.332V456.668C100.574 456.668 102.431 456.21 103.813 454.828C105.195 453.446 105.652 451.59 105.652 449.768H100.317ZM98.7524 451.332C97.7529 451.332 97.4934 451.084 97.4648 451.056C97.4362 451.027 97.1881 450.768 97.1881 449.768H91.8528C91.8528 451.59 92.3101 453.446 93.6921 454.828C95.0742 456.21 96.9305 456.668 98.7524 456.668V451.332ZM97.1881 449.768V389.917H91.8528V449.768H97.1881ZM97.1881 389.917C97.1881 388.917 97.4362 388.658 97.4648 388.629C97.4934 388.601 97.7529 388.353 98.7524 388.353V383.017C96.9305 383.017 95.0742 383.475 93.6921 384.857C92.3101 386.239 91.8528 388.095 91.8528 389.917H97.1881ZM98.7524 388.353H122.33V383.017H98.7524V388.353ZM122.33 388.353C128.006 388.353 131.931 389.863 134.541 392.499L138.332 388.746C134.426 384.799 128.947 383.017 122.33 383.017V388.353ZM134.56 392.518C137.196 395.127 138.706 399.053 138.706 404.729H144.041C144.041 398.111 142.26 392.633 138.313 388.726L134.56 392.518ZM138.706 404.729V407.751H144.041V404.729H138.706ZM138.706 407.751C138.706 412.688 137.56 416.317 135.541 418.908L139.75 422.187C142.702 418.397 144.041 413.495 144.041 407.751H138.706ZM135.55 418.898C133.551 421.436 130.606 423.124 126.432 423.81L127.297 429.075C132.527 428.215 136.769 425.974 139.742 422.198L135.55 418.898ZM124.576 427.814L137.776 449.83L142.352 447.086L129.152 425.071L124.576 427.814ZM137.719 449.731C138.144 450.512 138.073 450.852 138.05 450.936C138.02 451.042 137.87 451.417 137.032 451.943L139.871 456.46C141.385 455.509 142.679 454.187 143.186 452.378C143.7 450.548 143.26 448.755 142.408 447.186L137.719 449.731ZM102.984 420.999H122.33V415.663H102.984V420.999ZM122.33 420.999C126.414 420.999 130.017 420.16 132.378 417.799L128.605 414.027C127.742 414.89 125.904 415.663 122.33 415.663V420.999ZM132.378 417.799C134.739 415.438 135.578 411.835 135.578 407.751H130.242C130.242 411.326 129.469 413.163 128.605 414.027L132.378 417.799ZM135.578 407.751V404.729H130.242V407.751H135.578ZM135.578 404.729C135.578 400.671 134.735 397.088 132.378 394.731L128.605 398.504C129.472 399.371 130.242 401.196 130.242 404.729H135.578ZM132.397 394.751C130.038 392.342 126.425 391.481 122.33 391.481V396.816C125.893 396.816 127.721 397.602 128.586 398.484L132.397 394.751ZM122.33 391.481H102.984V396.816H122.33V391.481ZM100.317 394.149V418.331H105.652V394.149H100.317ZM154.271 453.597L155.295 451.134L155.265 451.121L155.235 451.11L154.271 453.597ZM151.853 448.055L149.381 447.051L149.38 447.054L151.853 448.055ZM175.833 389.01L173.405 387.906L173.382 387.956L173.362 388.006L175.833 389.01ZM180.771 385.685L180.894 383.02L180.832 383.017H180.771V385.685ZM185.204 389.01L182.698 389.925L182.717 389.977L182.738 390.028L185.204 389.01ZM209.588 448.055L212.06 447.054L212.057 447.045L212.054 447.037L209.588 448.055ZM207.27 453.597L208.245 456.08L208.256 456.076L207.27 453.597ZM201.729 451.279L204.203 450.283L204.199 450.273L204.195 450.263L201.729 451.279ZM196.288 438.08L198.754 437.063L198.073 435.412H196.288V438.08ZM164.901 438.08V435.412H163.083L162.418 437.104L164.901 438.08ZM159.712 451.279L162.191 452.265L162.195 452.256L159.712 451.279ZM168.226 429.616L165.745 428.637L164.306 432.284H168.226V429.616ZM192.811 429.616V432.284H196.792L195.279 428.602L192.811 429.616ZM180.267 399.086L182.734 398.072L180.216 391.944L177.785 398.107L180.267 399.086ZM155.235 451.11C154.267 450.735 154.111 450.399 154.096 450.364C154.083 450.333 153.943 450.001 154.325 449.057L149.38 447.054C148.688 448.762 148.413 450.681 149.206 452.498C149.997 454.31 151.588 455.418 153.307 456.084L155.235 451.11ZM154.324 449.059L178.305 390.014L173.362 388.006L149.381 447.051L154.324 449.059ZM178.262 390.114C178.62 389.327 178.996 388.917 179.306 388.699C179.596 388.496 179.978 388.353 180.569 388.353V383.017C179.011 383.017 177.529 383.428 176.24 384.333C174.972 385.224 174.055 386.477 173.405 387.906L178.262 390.114ZM180.569 388.353H180.771V383.017H180.569V388.353ZM180.648 388.35C181.305 388.38 181.679 388.548 181.916 388.726C182.158 388.908 182.45 389.245 182.698 389.925L187.71 388.095C187.186 386.659 186.352 385.384 185.117 384.458C183.876 383.527 182.42 383.091 180.894 383.02L180.648 388.35ZM182.738 390.028L207.122 449.073L212.054 447.037L187.67 387.992L182.738 390.028ZM207.115 449.057C207.503 450.013 207.37 450.362 207.354 450.401C207.341 450.431 207.205 450.753 206.285 451.118L208.256 456.076C209.956 455.4 211.516 454.277 212.276 452.46C213.032 450.652 212.748 448.751 212.06 447.054L207.115 449.057ZM206.296 451.114C205.34 451.489 204.98 451.361 204.924 451.337C204.882 451.32 204.564 451.179 204.203 450.283L199.254 452.276C199.935 453.966 201.061 455.505 202.866 456.26C204.657 457.009 206.547 456.746 208.245 456.08L206.296 451.114ZM204.195 450.263L198.754 437.063L193.821 439.097L199.262 452.296L204.195 450.263ZM196.288 435.412H164.901V440.748H196.288V435.412ZM162.418 437.104L157.229 450.303L162.195 452.256L167.384 439.056L162.418 437.104ZM157.233 450.294C156.861 451.23 156.54 451.363 156.525 451.369C156.515 451.374 156.207 451.513 155.295 451.134L153.247 456.06C154.921 456.756 156.813 457.046 158.616 456.278C160.415 455.512 161.522 453.949 162.191 452.265L157.233 450.294ZM168.226 432.284H192.811V426.949H168.226V432.284ZM195.279 428.602L182.734 398.072L177.799 400.1L190.344 430.63L195.279 428.602ZM177.785 398.107L165.745 428.637L170.708 430.595L182.749 400.065L177.785 398.107ZM233.067 388.204L235.174 386.568L235.152 386.54L235.129 386.512L233.067 388.204ZM273.572 440.397V443.065H279.019L275.679 438.762L273.572 440.397ZM271.456 440.397H268.788V443.065H271.456V440.397ZM271.456 451.481L269.348 453.117L269.352 453.122L271.456 451.481ZM230.951 399.288V396.62H225.504L228.843 400.923L230.951 399.288ZM233.067 399.288H235.734V396.62H233.067V399.288ZM228.835 451.332C227.835 451.332 227.576 451.084 227.547 451.056C227.518 451.027 227.27 450.768 227.27 449.768H221.935C221.935 451.59 222.392 453.446 223.774 454.828C225.156 456.21 227.013 456.668 228.835 456.668V451.332ZM227.27 449.768V389.917H221.935V449.768H227.27ZM227.27 389.917C227.27 388.917 227.518 388.658 227.547 388.629C227.576 388.601 227.835 388.353 228.835 388.353V383.017C227.013 383.017 225.156 383.475 223.774 384.857C222.392 386.239 221.935 388.095 221.935 389.917H227.27ZM228.835 388.353C229.144 388.353 229.873 388.517 231.004 389.895L235.129 386.512C233.506 384.533 231.413 383.017 228.835 383.017V388.353ZM230.959 389.839L271.464 442.033L275.679 438.762L235.174 386.568L230.959 389.839ZM273.572 437.73H271.456V443.065H273.572V437.73ZM274.124 440.397V389.917H268.788V440.397H274.124ZM274.124 389.917C274.124 388.917 274.372 388.658 274.4 388.629C274.429 388.601 274.688 388.353 275.688 388.353V383.017C273.866 383.017 272.01 383.475 270.628 384.857C269.246 386.239 268.788 388.095 268.788 389.917H274.124ZM275.688 388.353C276.687 388.353 276.947 388.601 276.975 388.629C277.004 388.658 277.252 388.917 277.252 389.917H282.587C282.587 388.095 282.13 386.239 280.748 384.857C279.366 383.475 277.51 383.017 275.688 383.017V388.353ZM277.252 389.917V449.768H282.587V389.917H277.252ZM277.252 449.768C277.252 450.768 277.004 451.027 276.975 451.056C276.947 451.084 276.687 451.332 275.688 451.332V456.668C277.51 456.668 279.366 456.21 280.748 454.828C282.13 453.446 282.587 451.59 282.587 449.768H277.252ZM275.688 451.332C275.298 451.332 274.582 451.151 273.559 449.84L269.352 453.122C270.95 455.169 273.055 456.668 275.688 456.668V451.332ZM273.563 449.845L233.058 397.652L228.843 400.923L269.348 453.117L273.563 449.845ZM230.951 401.955H233.067V396.62H230.951V401.955ZM230.399 399.288V449.768H235.734V399.288H230.399ZM230.399 449.768C230.399 450.768 230.151 451.027 230.122 451.056C230.094 451.084 229.834 451.332 228.835 451.332V456.668C230.656 456.668 232.513 456.21 233.895 454.828C235.277 453.446 235.734 451.59 235.734 449.768H230.399ZM348.722 391.932L346.828 393.811L346.836 393.818L346.843 393.826L348.722 391.932ZM348.772 447.803L346.878 445.925L346.878 445.925L348.772 447.803ZM309.325 445.536H306.657V448.204H309.325V445.536ZM339.553 443.974L340.584 446.435L340.592 446.432L340.6 446.428L339.553 443.974ZM344.893 438.634L342.44 437.587L342.436 437.595L342.433 437.603L344.893 438.634ZM344.893 401.152L342.428 402.171L342.436 402.191L342.445 402.21L344.893 401.152ZM339.553 395.761L338.494 398.209L338.506 398.215L339.553 395.761ZM309.325 394.149V391.481H306.657V394.149H309.325ZM305.093 451.332C304.094 451.332 303.834 451.084 303.806 451.056C303.777 451.027 303.529 450.768 303.529 449.768H298.194C298.194 451.59 298.651 453.446 300.033 454.828C301.415 456.21 303.271 456.668 305.093 456.668V451.332ZM303.529 449.768V389.917H298.194V449.768H303.529ZM303.529 389.917C303.529 388.917 303.777 388.658 303.806 388.629C303.834 388.601 304.094 388.353 305.093 388.353V383.017C303.271 383.017 301.415 383.475 300.033 384.857C298.651 386.239 298.194 388.095 298.194 389.917H303.529ZM305.093 388.353H329.376V383.017H305.093V388.353ZM329.376 388.353C337.779 388.353 343.399 390.354 346.828 393.811L350.616 390.053C345.783 385.181 338.505 383.017 329.376 383.017V388.353ZM346.843 393.826C350.3 397.255 352.301 402.875 352.301 411.278H357.637C357.637 402.149 355.473 394.871 350.601 390.038L346.843 393.826ZM352.301 411.278V428.407H357.637V411.278H352.301ZM352.301 428.407C352.301 436.813 350.315 442.46 346.878 445.925L350.666 449.682C355.492 444.817 357.637 437.533 357.637 428.407H352.301ZM346.878 445.925C343.49 449.341 337.861 451.332 329.376 451.332V456.668C338.558 456.668 345.86 454.528 350.666 449.682L346.878 445.925ZM329.376 451.332H305.093V456.668H329.376V451.332ZM309.325 448.204H329.376V442.869H309.325V448.204ZM329.376 448.204C333.843 448.204 337.635 447.67 340.584 446.435L338.522 441.514C336.5 442.361 333.508 442.869 329.376 442.869V448.204ZM340.6 446.428C343.746 445.086 346.039 442.802 347.354 439.665L342.433 437.603C341.665 439.437 340.398 440.713 338.506 441.521L340.6 446.428ZM347.347 439.681C348.62 436.697 349.173 432.883 349.173 428.407H343.838C343.838 432.529 343.316 435.534 342.44 437.587L347.347 439.681ZM349.173 428.407V411.278H343.838V428.407H349.173ZM349.173 411.278C349.173 406.835 348.62 403.049 347.342 400.093L342.445 402.21C343.316 404.225 343.838 407.19 343.838 411.278H349.173ZM347.359 400.133C346.049 396.965 343.758 394.655 340.6 393.307L338.506 398.215C340.386 399.017 341.655 400.301 342.428 402.171L347.359 400.133ZM340.612 393.312C337.653 392.033 333.85 391.481 329.376 391.481V396.816C333.501 396.816 336.482 397.339 338.494 398.209L340.612 393.312ZM329.376 391.481H309.325V396.816H329.376V391.481ZM306.657 394.149V445.536H311.993V394.149H306.657Z" fill="black" mask="url(#path-1-outside-1_74_517)"/>
<path d="M246.539 493C246.052 493 245.808 492.757 245.808 492.27V481.942C245.808 481.455 246.052 481.212 246.539 481.212H251.077C251.998 481.212 252.705 481.455 253.198 481.942C253.696 482.429 253.945 483.124 253.945 484.028V484.498C253.945 485.28 253.699 485.886 253.206 486.315C254.128 486.83 254.589 487.772 254.589 489.14V489.731C254.589 490.798 254.305 491.609 253.737 492.165C253.175 492.722 252.363 493 251.303 493H246.539ZM247.269 491.539H251.303C251.957 491.539 252.424 491.4 252.702 491.122C252.986 490.838 253.128 490.375 253.128 489.731V489.14C253.128 488.497 252.992 488.039 252.72 487.766C252.447 487.488 251.975 487.349 251.303 487.349H247.269V491.539ZM247.269 485.889H251.39C251.813 485.889 252.099 485.758 252.25 485.497C252.407 485.237 252.485 484.903 252.485 484.498V484.028C252.485 483.524 252.381 483.173 252.172 482.976C251.963 482.773 251.598 482.672 251.077 482.672H247.269V485.889ZM260.619 493C260.132 493 259.889 492.757 259.889 492.27V488.723L255.907 482.376C255.664 481.959 255.739 481.617 256.133 481.351C256.55 481.096 256.887 481.171 257.142 481.577L260.619 487.158L264.27 481.577C264.392 481.385 264.54 481.272 264.714 481.238C264.887 481.197 265.07 481.246 265.261 481.385C265.684 481.646 265.76 481.977 265.487 482.376L261.349 488.723V492.27C261.349 492.757 261.106 493 260.619 493ZM274.062 493C273.871 493 273.7 492.928 273.549 492.783C273.405 492.632 273.332 492.461 273.332 492.27V481.942C273.332 481.751 273.405 481.582 273.549 481.438C273.7 481.287 273.871 481.212 274.062 481.212C274.254 481.212 274.422 481.287 274.567 481.438C274.717 481.582 274.793 481.751 274.793 481.942V486.306H281.887V481.942C281.887 481.751 281.959 481.582 282.104 481.438C282.249 481.287 282.42 481.212 282.617 481.212C282.808 481.212 282.976 481.287 283.121 481.438C283.272 481.582 283.347 481.751 283.347 481.942V492.27C283.347 492.461 283.272 492.632 283.121 492.783C282.976 492.928 282.808 493 282.617 493C282.42 493 282.249 492.928 282.104 492.783C281.959 492.632 281.887 492.461 281.887 492.27V487.766H274.793V492.27C274.793 492.461 274.717 492.632 274.567 492.783C274.422 492.928 274.254 493 274.062 493ZM287.697 493C287.21 493 286.967 492.757 286.967 492.27V481.942C286.967 481.455 287.21 481.212 287.697 481.212H293.939C294.426 481.212 294.669 481.455 294.669 481.942C294.669 482.429 294.426 482.672 293.939 482.672H288.427V486.323H291.887C292.374 486.323 292.618 486.567 292.618 487.054C292.618 487.54 292.374 487.784 291.887 487.784H288.427V491.539H293.939C294.426 491.539 294.669 491.783 294.669 492.27C294.669 492.757 294.426 493 293.939 493H287.697ZM305.024 493.035C304.833 493.156 304.65 493.194 304.476 493.148C304.302 493.101 304.155 492.983 304.033 492.791L301.338 488.305H298.904V492.27C298.904 492.757 298.66 493 298.173 493C297.687 493 297.443 492.757 297.443 492.27V481.942C297.443 481.455 297.687 481.212 298.173 481.212H302.242C303.303 481.212 304.114 481.496 304.676 482.064C305.244 482.626 305.528 483.437 305.528 484.498V485.019C305.528 485.941 305.314 486.677 304.885 487.227C304.456 487.772 303.836 488.111 303.024 488.245L305.302 492.044C305.522 492.449 305.43 492.78 305.024 493.035ZM298.904 486.845H302.242C302.903 486.845 303.372 486.706 303.65 486.428C303.929 486.149 304.068 485.68 304.068 485.019V484.498C304.068 483.843 303.929 483.376 303.65 483.098C303.372 482.814 302.903 482.672 302.242 482.672H298.904V486.845ZM311.788 493C310.46 493 309.478 492.684 308.84 492.052C308.209 491.415 307.893 490.433 307.893 489.105V485.106C307.893 483.767 308.209 482.782 308.84 482.15C309.472 481.513 310.449 481.2 311.77 481.212H313.874C314.964 481.212 315.795 481.438 316.369 481.89C316.943 482.336 317.276 483.043 317.369 484.011C317.404 484.254 317.357 484.44 317.23 484.567C317.102 484.695 316.917 484.759 316.673 484.759C316.233 484.759 315.978 484.515 315.908 484.028C315.85 483.495 315.665 483.136 315.352 482.95C315.045 482.765 314.552 482.672 313.874 482.672H311.77C311.156 482.666 310.672 482.736 310.318 482.881C309.971 483.026 309.721 483.278 309.571 483.637C309.426 483.991 309.353 484.48 309.353 485.106V489.105C309.353 489.725 309.426 490.212 309.571 490.566C309.721 490.919 309.973 491.171 310.327 491.322C310.681 491.467 311.167 491.539 311.788 491.539H313.874C314.552 491.539 315.045 491.447 315.352 491.261C315.665 491.07 315.85 490.711 315.908 490.183C315.978 489.696 316.233 489.453 316.673 489.453C316.917 489.453 317.102 489.517 317.23 489.644C317.357 489.772 317.404 489.957 317.369 490.201C317.276 491.174 316.943 491.884 316.369 492.331C315.795 492.777 314.964 493 313.874 493H311.788ZM324.224 493C322.897 493 321.915 492.684 321.277 492.052C320.645 491.415 320.33 490.433 320.33 489.105V481.942C320.33 481.698 320.39 481.516 320.512 481.394C320.634 481.272 320.816 481.212 321.06 481.212C321.303 481.212 321.486 481.272 321.608 481.394C321.729 481.516 321.79 481.698 321.79 481.942V489.105C321.79 489.725 321.863 490.212 322.007 490.566C322.158 490.919 322.41 491.171 322.764 491.322C323.117 491.467 323.604 491.539 324.224 491.539H326.311C326.931 491.539 327.418 491.467 327.771 491.322C328.125 491.171 328.374 490.919 328.519 490.566C328.67 490.212 328.745 489.725 328.745 489.105V481.942C328.745 481.698 328.806 481.516 328.928 481.394C329.049 481.272 329.232 481.212 329.475 481.212C329.719 481.212 329.901 481.272 330.023 481.394C330.145 481.516 330.205 481.698 330.205 481.942V489.105C330.205 490.433 329.89 491.415 329.258 492.052C328.626 492.684 327.644 493 326.311 493H324.224ZM334.459 493C333.972 493 333.729 492.757 333.729 492.27V481.942C333.729 481.455 333.972 481.212 334.459 481.212C334.946 481.212 335.189 481.455 335.189 481.942V491.539H340.005C340.492 491.539 340.736 491.783 340.736 492.27C340.736 492.757 340.492 493 340.005 493H334.459ZM343.865 493C343.379 493 343.135 492.757 343.135 492.27V481.942C343.135 481.455 343.379 481.212 343.865 481.212H350.107C350.594 481.212 350.838 481.455 350.838 481.942C350.838 482.429 350.594 482.672 350.107 482.672H344.596V486.323H348.056C348.543 486.323 348.786 486.567 348.786 487.054C348.786 487.54 348.543 487.784 348.056 487.784H344.596V491.539H350.107C350.594 491.539 350.838 491.783 350.838 492.27C350.838 492.757 350.594 493 350.107 493H343.865ZM356.559 493C355.568 493 354.794 492.8 354.238 492.4C353.687 492 353.342 491.383 353.203 490.548C353.18 490.293 353.232 490.102 353.36 489.975C353.487 489.847 353.672 489.783 353.916 489.783C354.159 489.783 354.336 489.841 354.446 489.957C354.562 490.073 354.64 490.253 354.681 490.496C354.768 490.896 354.953 491.171 355.237 491.322C355.527 491.467 355.968 491.539 356.559 491.539H359.062C359.81 491.539 360.317 491.406 360.584 491.14C360.856 490.867 360.992 490.363 360.992 489.627C360.992 488.879 360.853 488.369 360.575 488.097C360.297 487.819 359.793 487.68 359.062 487.68H356.906C355.811 487.68 354.997 487.413 354.464 486.88C353.936 486.341 353.672 485.524 353.672 484.428C353.672 483.339 353.933 482.53 354.455 482.003C354.982 481.475 355.794 481.212 356.889 481.212H358.958C359.88 481.212 360.601 481.4 361.123 481.777C361.65 482.153 361.984 482.73 362.123 483.507C362.157 483.756 362.111 483.947 361.984 484.08C361.856 484.208 361.665 484.272 361.41 484.272C361.178 484.272 361.004 484.211 360.888 484.089C360.772 483.967 360.697 483.791 360.662 483.559C360.569 483.217 360.393 482.985 360.132 482.863C359.871 482.736 359.48 482.672 358.958 482.672H356.889C356.194 482.672 355.727 482.797 355.489 483.046C355.252 483.289 355.133 483.75 355.133 484.428C355.133 485.112 355.255 485.582 355.498 485.837C355.742 486.092 356.211 486.219 356.906 486.219H359.062C360.204 486.219 361.053 486.497 361.61 487.054C362.172 487.61 362.453 488.468 362.453 489.627C362.453 490.78 362.175 491.632 361.618 492.183C361.062 492.728 360.21 493 359.062 493H356.559Z" fill="black"/>
<path d="M246.35 510.532C246.133 510.532 246.024 510.423 246.024 510.205V508.62L244.245 505.784C244.136 505.598 244.17 505.445 244.346 505.326C244.532 505.212 244.682 505.245 244.796 505.427L246.35 507.921L247.982 505.427C248.037 505.341 248.103 505.291 248.18 505.275C248.258 505.257 248.34 505.279 248.425 505.341C248.614 505.458 248.648 505.605 248.526 505.784L246.677 508.62V510.205C246.677 510.423 246.568 510.532 246.35 510.532ZM249.915 510.532C249.697 510.532 249.588 510.423 249.588 510.205V505.59C249.588 505.372 249.697 505.264 249.915 505.264H252.704C252.922 505.264 253.031 505.372 253.031 505.59C253.031 505.807 252.922 505.916 252.704 505.916H250.241V507.548H251.787C252.005 507.548 252.114 507.657 252.114 507.874C252.114 508.092 252.005 508.201 251.787 508.201H250.241V509.879H252.704C252.922 509.879 253.031 509.988 253.031 510.205C253.031 510.423 252.922 510.532 252.704 510.532H249.915ZM255.587 510.532C255.144 510.532 254.799 510.442 254.55 510.264C254.304 510.085 254.15 509.809 254.088 509.436C254.077 509.322 254.101 509.237 254.158 509.18C254.215 509.123 254.297 509.094 254.406 509.094C254.515 509.094 254.594 509.12 254.643 509.172C254.695 509.224 254.73 509.304 254.748 509.413C254.787 509.591 254.87 509.714 254.997 509.782C255.126 509.847 255.323 509.879 255.587 509.879H256.706C257.04 509.879 257.267 509.819 257.386 509.7C257.508 509.578 257.569 509.353 257.569 509.024C257.569 508.69 257.506 508.462 257.382 508.34C257.258 508.216 257.033 508.154 256.706 508.154H255.743C255.253 508.154 254.889 508.035 254.651 507.797C254.415 507.556 254.297 507.19 254.297 506.701C254.297 506.214 254.414 505.853 254.647 505.617C254.883 505.381 255.245 505.264 255.735 505.264H256.66C257.071 505.264 257.394 505.348 257.627 505.516C257.863 505.684 258.012 505.942 258.074 506.289C258.089 506.401 258.069 506.486 258.012 506.546C257.955 506.603 257.869 506.631 257.755 506.631C257.652 506.631 257.574 506.604 257.522 506.549C257.47 506.495 257.437 506.416 257.421 506.312C257.38 506.16 257.301 506.056 257.184 506.002C257.067 505.945 256.893 505.916 256.66 505.916H255.735C255.424 505.916 255.216 505.972 255.109 506.083C255.003 506.192 254.95 506.398 254.95 506.701C254.95 507.007 255.005 507.216 255.113 507.33C255.222 507.444 255.432 507.501 255.743 507.501H256.706C257.216 507.501 257.596 507.626 257.844 507.874C258.096 508.123 258.221 508.506 258.221 509.024C258.221 509.54 258.097 509.92 257.848 510.166C257.6 510.41 257.219 510.532 256.706 510.532H255.587ZM259.069 511.518C258.976 511.518 258.903 511.495 258.851 511.448C258.802 511.402 258.784 511.335 258.797 511.246L259.014 510.007C259.022 509.818 259.126 509.724 259.325 509.724H259.512C259.709 509.724 259.807 509.825 259.807 510.027V510.221C259.807 510.265 259.799 510.309 259.784 510.353C259.771 510.394 259.754 510.436 259.733 510.477L259.325 511.347C259.263 511.461 259.178 511.518 259.069 511.518ZM265.287 510.532C265.178 510.532 265.097 510.504 265.042 510.45C264.988 510.396 264.961 510.314 264.961 510.205V505.924H263.453C263.344 505.924 263.263 505.897 263.208 505.842C263.154 505.788 263.127 505.706 263.127 505.598C263.127 505.489 263.154 505.407 263.208 505.353C263.263 505.298 263.344 505.271 263.453 505.271H267.121C267.229 505.271 267.311 505.298 267.365 505.353C267.42 505.407 267.447 505.489 267.447 505.598C267.447 505.706 267.42 505.788 267.365 505.842C267.311 505.897 267.229 505.924 267.121 505.924H265.613V510.205C265.613 510.309 265.585 510.389 265.528 510.446C265.473 510.503 265.393 510.532 265.287 510.532ZM268.809 510.532C268.723 510.532 268.647 510.499 268.58 510.434C268.515 510.367 268.482 510.291 268.482 510.205V505.59C268.482 505.504 268.515 505.429 268.58 505.365C268.647 505.297 268.723 505.264 268.809 505.264C268.894 505.264 268.969 505.297 269.034 505.365C269.101 505.429 269.135 505.504 269.135 505.59V507.54H272.305V505.59C272.305 505.504 272.338 505.429 272.402 505.365C272.467 505.297 272.544 505.264 272.632 505.264C272.717 505.264 272.792 505.297 272.857 505.365C272.924 505.429 272.958 505.504 272.958 505.59V510.205C272.958 510.291 272.924 510.367 272.857 510.434C272.792 510.499 272.717 510.532 272.632 510.532C272.544 510.532 272.467 510.499 272.402 510.434C272.338 510.367 272.305 510.291 272.305 510.205V508.193H269.135V510.205C269.135 510.291 269.101 510.367 269.034 510.434C268.969 510.499 268.894 510.532 268.809 510.532ZM274.327 510.501C274.12 510.42 274.058 510.278 274.14 510.073L275.99 505.52C276.067 505.349 276.189 505.264 276.355 505.264H276.37C276.539 505.271 276.653 505.357 276.712 505.52L278.593 510.073C278.676 510.278 278.616 510.42 278.414 510.501C278.209 510.581 278.067 510.521 277.987 510.322L277.567 509.304H275.147L274.747 510.322C274.666 510.524 274.526 510.583 274.327 510.501ZM275.403 508.651H277.299L276.332 506.297L275.403 508.651ZM280.706 510.532C280.597 510.532 280.515 510.504 280.461 510.45C280.407 510.396 280.379 510.314 280.379 510.205V505.924H278.872C278.763 505.924 278.682 505.897 278.627 505.842C278.573 505.788 278.546 505.706 278.546 505.598C278.546 505.489 278.573 505.407 278.627 505.353C278.682 505.298 278.763 505.271 278.872 505.271H282.539C282.648 505.271 282.73 505.298 282.784 505.353C282.839 505.407 282.866 505.489 282.866 505.598C282.866 505.706 282.839 505.788 282.784 505.842C282.73 505.897 282.648 505.924 282.539 505.924H281.032V510.205C281.032 510.309 281.004 510.389 280.947 510.446C280.892 510.503 280.812 510.532 280.706 510.532ZM284.018 507.043C283.945 507.043 283.882 507.016 283.827 506.961C283.773 506.907 283.746 506.843 283.746 506.771V505.186C283.746 505.111 283.773 505.047 283.827 504.995C283.882 504.941 283.945 504.914 284.018 504.914C284.093 504.914 284.156 504.941 284.208 504.995C284.262 505.047 284.29 505.111 284.29 505.186V506.771C284.29 506.843 284.262 506.907 284.208 506.961C284.156 507.016 284.093 507.043 284.018 507.043ZM287.07 510.532C286.627 510.532 286.281 510.442 286.032 510.264C285.786 510.085 285.632 509.809 285.57 509.436C285.56 509.322 285.583 509.237 285.64 509.18C285.697 509.123 285.78 509.094 285.889 509.094C285.997 509.094 286.076 509.12 286.126 509.172C286.177 509.224 286.212 509.304 286.23 509.413C286.269 509.591 286.352 509.714 286.479 509.782C286.609 509.847 286.805 509.879 287.07 509.879H288.189C288.523 509.879 288.749 509.819 288.868 509.7C288.99 509.578 289.051 509.353 289.051 509.024C289.051 508.69 288.989 508.462 288.865 508.34C288.74 508.216 288.515 508.154 288.189 508.154H287.225C286.736 508.154 286.372 508.035 286.133 507.797C285.898 507.556 285.78 507.19 285.78 506.701C285.78 506.214 285.896 505.853 286.129 505.617C286.365 505.381 286.728 505.264 287.217 505.264H288.142C288.554 505.264 288.876 505.348 289.109 505.516C289.345 505.684 289.494 505.942 289.556 506.289C289.572 506.401 289.551 506.486 289.494 506.546C289.437 506.603 289.351 506.631 289.238 506.631C289.134 506.631 289.056 506.604 289.004 506.549C288.953 506.495 288.919 506.416 288.903 506.312C288.862 506.16 288.783 506.056 288.666 506.002C288.55 505.945 288.375 505.916 288.142 505.916H287.217C286.906 505.916 286.698 505.972 286.592 506.083C286.486 506.192 286.433 506.398 286.433 506.701C286.433 507.007 286.487 507.216 286.596 507.33C286.704 507.444 286.914 507.501 287.225 507.501H288.189C288.699 507.501 289.078 507.626 289.327 507.874C289.578 508.123 289.704 508.506 289.704 509.024C289.704 509.54 289.579 509.92 289.331 510.166C289.082 510.41 288.701 510.532 288.189 510.532H287.07ZM293.902 510.532C293.685 510.532 293.576 510.423 293.576 510.205V505.59C293.576 505.372 293.685 505.264 293.902 505.264C294.045 505.264 294.164 505.333 294.26 505.473L296.093 508.232L295.953 508.255L297.803 505.473C297.891 505.333 298.023 505.264 298.199 505.264C298.375 505.264 298.463 505.372 298.463 505.59V510.205C298.463 510.423 298.354 510.532 298.137 510.532C297.919 510.532 297.81 510.423 297.81 510.205V506.243L298.013 506.312L296.381 508.713C296.285 508.853 296.153 508.923 295.985 508.923C295.868 508.923 295.762 508.853 295.666 508.713L294.034 506.312L294.228 506.367V510.205C294.228 510.423 294.12 510.532 293.902 510.532ZM301.621 510.532C301.403 510.532 301.295 510.423 301.295 510.205V508.62L299.515 505.784C299.407 505.598 299.44 505.445 299.616 505.326C299.803 505.212 299.953 505.245 300.067 505.427L301.621 507.921L303.253 505.427C303.307 505.341 303.373 505.291 303.451 505.275C303.529 505.257 303.61 505.279 303.696 505.341C303.885 505.458 303.918 505.605 303.797 505.784L301.947 508.62V510.205C301.947 510.423 301.839 510.532 301.621 510.532ZM307.054 510.501C306.847 510.42 306.784 510.278 306.867 510.073L308.717 505.52C308.794 505.349 308.916 505.264 309.082 505.264H309.097C309.266 505.271 309.38 505.357 309.439 505.52L311.32 510.073C311.402 510.278 311.343 510.42 311.141 510.501C310.936 510.581 310.794 510.521 310.713 510.322L310.294 509.304H307.873L307.473 510.322C307.393 510.524 307.253 510.583 307.054 510.501ZM308.13 508.651H310.026L309.058 506.297L308.13 508.651ZM313.956 510.532C313.362 510.532 312.923 510.39 312.638 510.108C312.356 509.823 312.215 509.384 312.215 508.791V507.004C312.215 506.406 312.356 505.965 312.638 505.683C312.921 505.398 313.357 505.258 313.948 505.264H314.888C315.375 505.264 315.747 505.365 316.003 505.567C316.259 505.766 316.408 506.082 316.45 506.514C316.465 506.623 316.445 506.706 316.388 506.763C316.331 506.82 316.248 506.849 316.139 506.849C315.942 506.849 315.828 506.74 315.797 506.522C315.771 506.284 315.688 506.123 315.548 506.041C315.411 505.958 315.191 505.916 314.888 505.916H313.948C313.673 505.914 313.457 505.945 313.299 506.009C313.144 506.074 313.032 506.187 312.965 506.347C312.9 506.505 312.868 506.724 312.868 507.004V508.791C312.868 509.068 312.9 509.286 312.965 509.444C313.032 509.602 313.145 509.714 313.303 509.782C313.461 509.847 313.678 509.879 313.956 509.879H314.888C315.191 509.879 315.411 509.837 315.548 509.755C315.688 509.669 315.771 509.509 315.797 509.273C315.828 509.055 315.942 508.947 316.139 508.947C316.248 508.947 316.331 508.975 316.388 509.032C316.445 509.089 316.465 509.172 316.45 509.281C316.408 509.716 316.259 510.033 316.003 510.232C315.747 510.432 315.375 510.532 314.888 510.532H313.956ZM319.389 510.532C319.28 510.532 319.199 510.504 319.144 510.45C319.09 510.396 319.063 510.314 319.063 510.205V505.924H317.555C317.447 505.924 317.365 505.897 317.311 505.842C317.256 505.788 317.229 505.706 317.229 505.598C317.229 505.489 317.256 505.407 317.311 505.353C317.365 505.298 317.447 505.271 317.555 505.271H321.223C321.332 505.271 321.413 505.298 321.468 505.353C321.522 505.407 321.549 505.489 321.549 505.598C321.549 505.706 321.522 505.788 321.468 505.842C321.413 505.897 321.332 505.924 321.223 505.924H319.715V510.205C319.715 510.309 319.687 510.389 319.63 510.446C319.575 510.503 319.495 510.532 319.389 510.532ZM324.286 510.532C323.693 510.532 323.254 510.39 322.969 510.108C322.687 509.823 322.546 509.384 322.546 508.791V505.59C322.546 505.481 322.573 505.399 322.627 505.345C322.682 505.291 322.763 505.264 322.872 505.264C322.981 505.264 323.062 505.291 323.117 505.345C323.171 505.399 323.198 505.481 323.198 505.59V508.791C323.198 509.068 323.231 509.286 323.295 509.444C323.363 509.602 323.475 509.714 323.633 509.782C323.791 509.847 324.009 509.879 324.286 509.879H325.219C325.496 509.879 325.713 509.847 325.871 509.782C326.029 509.714 326.141 509.602 326.205 509.444C326.273 509.286 326.306 509.068 326.306 508.791V505.59C326.306 505.481 326.334 505.399 326.388 505.345C326.442 505.291 326.524 505.264 326.633 505.264C326.741 505.264 326.823 505.291 326.877 505.345C326.932 505.399 326.959 505.481 326.959 505.59V508.791C326.959 509.384 326.818 509.823 326.536 510.108C326.253 510.39 325.814 510.532 325.219 510.532H324.286ZM328.285 510.501C328.078 510.42 328.015 510.278 328.098 510.073L329.948 505.52C330.025 505.349 330.147 505.264 330.313 505.264H330.328C330.497 505.271 330.611 505.357 330.67 505.52L332.551 510.073C332.633 510.278 332.574 510.42 332.372 510.501C332.167 510.581 332.025 510.521 331.945 510.322L331.525 509.304H329.105L328.704 510.322C328.624 510.524 328.484 510.583 328.285 510.501ZM329.361 508.651H331.257L330.289 506.297L329.361 508.651ZM334.035 510.532C333.817 510.532 333.708 510.423 333.708 510.205V505.59C333.708 505.372 333.817 505.264 334.035 505.264C334.252 505.264 334.361 505.372 334.361 505.59V509.879H336.513C336.731 509.879 336.84 509.988 336.84 510.205C336.84 510.423 336.731 510.532 336.513 510.532H334.035ZM340.682 510.532C340.464 510.532 340.355 510.423 340.355 510.205V505.59C340.355 505.372 340.464 505.264 340.682 505.264C340.793 505.264 340.902 505.328 341.008 505.458L344.132 509.483H343.969V505.59C343.969 505.372 344.077 505.264 344.295 505.264C344.512 505.264 344.621 505.372 344.621 505.59V510.205C344.621 510.423 344.512 510.532 344.295 510.532C344.178 510.532 344.07 510.467 343.969 510.337L340.845 506.312H341.008V510.205C341.008 510.423 340.899 510.532 340.682 510.532ZM345.987 510.501C345.78 510.42 345.718 510.278 345.801 510.073L347.65 505.52C347.728 505.349 347.85 505.264 348.015 505.264H348.031C348.199 505.271 348.313 505.357 348.373 505.52L350.253 510.073C350.336 510.278 350.277 510.42 350.075 510.501C349.87 510.581 349.727 510.521 349.647 510.322L349.228 509.304H346.807L346.407 510.322C346.327 510.524 346.187 510.583 345.987 510.501ZM347.064 508.651H348.96L347.992 506.297L347.064 508.651ZM351.737 510.532C351.52 510.532 351.411 510.423 351.411 510.205V505.59C351.411 505.372 351.52 505.264 351.737 505.264C351.88 505.264 351.999 505.333 352.095 505.473L353.929 508.232L353.789 508.255L355.638 505.473C355.726 505.333 355.858 505.264 356.034 505.264C356.21 505.264 356.298 505.372 356.298 505.59V510.205C356.298 510.423 356.19 510.532 355.972 510.532C355.755 510.532 355.646 510.423 355.646 510.205V506.243L355.848 506.312L354.216 508.713C354.12 508.853 353.988 508.923 353.82 508.923C353.703 508.923 353.597 508.853 353.501 508.713L351.87 506.312L352.064 506.367V510.205C352.064 510.423 351.955 510.532 351.737 510.532ZM358.24 510.532C358.023 510.532 357.914 510.423 357.914 510.205V505.59C357.914 505.372 358.023 505.264 358.24 505.264H361.03C361.247 505.264 361.356 505.372 361.356 505.59C361.356 505.807 361.247 505.916 361.03 505.916H358.567V507.548H360.113C360.33 507.548 360.439 507.657 360.439 507.874C360.439 508.092 360.33 508.201 360.113 508.201H358.567V509.879H361.03C361.247 509.879 361.356 509.988 361.356 510.205C361.356 510.423 361.247 510.532 361.03 510.532H358.24ZM362.844 509.553C362.627 509.553 362.518 509.444 362.518 509.226V505.38C362.518 505.163 362.627 505.054 362.844 505.054C363.062 505.054 363.171 505.163 363.171 505.38V509.226C363.171 509.444 363.062 509.553 362.844 509.553ZM362.751 510.532C362.544 510.532 362.44 510.428 362.44 510.221V510.027C362.44 509.825 362.544 509.724 362.751 509.724H362.938C363.134 509.724 363.233 509.825 363.233 510.027V510.221C363.233 510.428 363.134 510.532 362.938 510.532H362.751Z" fill="black"/>
</svg>
